<?xml version="1.0" encoding="UTF-8"?> <svg xmlns="http://www.w3.org/2000/svg" xmlns:xlink="http://www.w3.org/1999/xlink" version="1.1" id="Layer_1" x="0px" y="0px" viewBox="0 0 288 58.9" style="enable-background:new 0 0 288 58.9;" xml:space="preserve"> <style type="text/css"> .st0{enable-background:new ;} .st1{clip-path:url(#SVGID_2_);} .st2{fill:#500C76;} </style> <g class="st0"> <g id="Layer-1"> <g> <defs> <rect id="SVGID_1_" x="-34.8" y="-29.2" width="357.2" height="116.2"></rect> </defs> <clipPath id="SVGID_2_"> <use xlink:href="#SVGID_1_" style="overflow:visible;"></use> </clipPath> <g class="st1"> <path class="st2" d="M68,47.6c-2.3,0-4.5-0.4-6.8-1.2c-2.2-0.8-4.3-2.1-6.1-3.8l4.4-5.4c1.2,1,2.6,1.8,4.2,2.3 c1.5,0.5,3,0.8,4.5,0.8c1.5,0,2.6-0.2,3.3-0.7c0.7-0.5,1.1-1.2,1.1-2.1c0-0.7-0.2-1.2-0.6-1.6c-0.4-0.4-1-0.7-1.7-1.1 c-0.7-0.3-1.5-0.7-2.5-1.1l-4.4-1.8c-1.2-0.5-2.4-1.2-3.4-2c-1.1-0.8-1.9-1.9-2.6-3.1c-0.7-1.2-1-2.7-1-4.3 c0-1.9,0.5-3.7,1.6-5.2c1.1-1.6,2.5-2.8,4.4-3.8c1.9-0.9,4-1.4,6.5-1.4c2.1,0,4.1,0.4,6,1.1c1.9,0.7,3.7,1.8,5.1,3.2l-4.4,5.5 c-1.2-0.8-2.3-1.5-3.5-1.9c-1.1-0.4-2.3-0.6-3.3-0.6c-1.2,0-2.2,0.2-2.9,0.7c-0.7,0.5-1.1,1.1-1.1,2c0,0.6,0.2,1.1,0.6,1.5 c0.4,0.4,1,0.8,1.8,1.1c0.8,0.3,1.7,0.7,2.7,1.1l4.3,1.7c1.4,0.6,2.6,1.3,3.6,2.1c1,0.9,1.8,1.9,2.3,3.1 c0.5,1.2,0.8,2.6,0.8,4.2c0,1.9-0.5,3.7-1.5,5.3c-1,1.6-2.5,3-4.5,4C73.2,47.1,70.8,47.6,68,47.6"></path> <path class="st2" d="M99.4,40.3c1.5,0,2.7-0.4,3.8-1.3c1.1-0.9,1.9-2.1,2.5-3.7c0.6-1.6,0.8-3.5,0.8-5.7c0-2.2-0.3-4.1-0.8-5.6 c-0.6-1.5-1.4-2.7-2.5-3.5c-1.1-0.8-2.3-1.2-3.8-1.2c-1.5,0-2.7,0.4-3.8,1.2c-1.1,0.8-1.9,2-2.4,3.5c-0.6,1.5-0.8,3.4-0.8,5.6 c0,2.2,0.3,4.1,0.8,5.7c0.6,1.6,1.4,2.8,2.4,3.7C96.7,39.9,98,40.3,99.4,40.3 M99.4,47.6c-3.1,0-5.9-0.7-8.2-2.1 C88.8,44,87,42,85.7,39.3c-1.3-2.7-2-5.9-2-9.6c0-3.8,0.7-6.9,2-9.6c1.3-2.6,3.2-4.6,5.5-6c2.4-1.4,5.1-2.1,8.2-2.1 s5.9,0.7,8.2,2.1c2.4,1.4,4.2,3.4,5.5,6c1.3,2.6,2,5.8,2,9.6c0,3.7-0.7,6.9-2,9.6c-1.3,2.7-3.2,4.7-5.5,6.2 C105.3,46.9,102.6,47.6,99.4,47.6"></path> <path class="st2" d="M153.3,40.2h1c1.8,0,3.4-0.3,4.8-0.9c1.4-0.6,2.5-1.7,3.3-3.2c0.8-1.5,1.2-3.6,1.2-6.4 c0-2.7-0.4-4.8-1.2-6.3s-1.9-2.5-3.3-3.1c-1.4-0.6-3-0.9-4.8-0.9h-1V40.2z M144.9,46.9V12.6h10c3.5,0,6.5,0.6,9.1,1.8 c2.6,1.2,4.6,3,6.1,5.5c1.4,2.5,2.2,5.7,2.2,9.7c0,4-0.7,7.2-2.2,9.8c-1.4,2.5-3.4,4.4-6,5.7c-2.5,1.2-5.5,1.8-8.8,1.8H144.9z"></path> <path class="st2" d="M176.1,46.9V12.6h21.9v7.1h-13.4v6.1h11.4v7.1h-11.4v7h14v7.1H176.1z"></path> <path class="st2" d="M211.5,19.3h3.6c1.9,0,3.3,0.3,4.3,0.9c1,0.6,1.5,1.7,1.5,3.3c0,1.6-0.5,2.8-1.5,3.6 c-1,0.8-2.4,1.2-4.3,1.2h-3.6V19.3z M231,46.9l-7.6-13.6c1.6-0.8,3-1.9,4-3.3c1.2-1.7,1.9-3.9,1.9-6.5c0-2.8-0.6-5-1.9-6.6 c-1.2-1.6-2.9-2.7-4.9-3.3c-2-0.6-4.3-1-6.7-1H203v34.3h8.4V35h3.9l6.2,11.9H231z"></path> <path class="st2" d="M234.2,46.9V12.6h21.9v7.1h-13.4v6.1h11.4v7.1h-11.4v7h14v7.1H234.2z"></path> <path class="st2" d="M269.1,40.2h1c1.8,0,3.4-0.3,4.8-0.9c1.4-0.6,2.5-1.7,3.3-3.2c0.8-1.5,1.2-3.6,1.2-6.4 c0-2.7-0.4-4.8-1.2-6.3c-0.8-1.5-1.9-2.5-3.3-3.1c-1.4-0.6-3-0.9-4.8-0.9h-1V40.2z M260.7,46.9V12.6h10c3.5,0,6.5,0.6,9.1,1.8 c2.6,1.2,4.6,3,6.1,5.5c1.4,2.5,2.2,5.7,2.2,9.7c0,4-0.7,7.2-2.2,9.8c-1.4,2.5-3.4,4.4-6,5.7c-2.5,1.2-5.5,1.8-8.8,1.8H260.7z"></path> <path class="st2" d="M131.9,39.1l-4.6-4.6V12.6h-8.4v25.4l8.8,8.8h13.2v-7.8H131.9z"></path> <path class="st2" d="M38,8.8L38,8.8c-1.1,0-2.2-0.3-3.1-0.8L21.8,0.4L2.2,11.8v19l20.6,11.9l0.5-0.3c1.8-0.9,3.1-2.9,3.1-4.9 c0-2-1.2-4.3-3-5.2L11,25.6v-8.9l10.8-6.3l9,5.3c0.9,0.5,1.5,1.2,2.1,2.1c1,1.8,2.9,2.9,5.1,2.9c2,0,3.7-1,4.8-2.5 c0.1-0.1,0.2-0.3,0.3-0.4c0,0,0,0,0-0.1c0.5-0.9,0.8-1.9,0.8-3C43.9,11.5,41.3,8.8,38,8.8"></path> <path class="st2" d="M21,16.3c-1.8,0.9-3.1,2.9-3.1,4.9c0,2,1.2,4.3,3,5.2l12.4,6.7V42l-10.8,6.3l-9-5.3 c-0.9-0.5-1.5-1.2-2.1-2.1c-1-1.8-2.9-2.9-5.1-2.9c-2,0-3.7,1-4.8,2.5c-0.1,0.1-0.2,0.3-0.3,0.4c0,0,0,0,0,0.1 c-0.5,0.9-0.8,1.9-0.8,3c0,3.3,2.7,6,6,6h0c1.1,0,2.1,0.3,3.1,0.8l13.1,7.5L42.1,47v-19L21.5,16.1L21,16.3z"></path> </g> </g> </g> </g> </svg> 