<svg xmlns="http://www.w3.org/2000/svg" viewBox="0 0 1122 794" width="1122" height="794" preserveAspectRatio="xMidYMid meet"><g id="graphics-layer"><g><line x1="850" y1="100" x2="850" y2="794" stroke="#00C0DE" stroke-width="2"/><path d="&#10;        M860,185&#10;        H876&#10;        V201&#10;        H863&#10;        L860,198&#10;        Z&#10;      " fill="#D1D2D4"/><text x="886" y="193" dominant-baseline="middle" fill="#500B76" font-size="15" font-family="Source Code Pro, monospace">Pin description</text><path d="&#10;        M860,209&#10;        H876&#10;        V225&#10;        H863&#10;        L860,222&#10;        Z&#10;      " fill="#EE4035"/><text x="886" y="217" dominant-baseline="middle" fill="#500B76" font-size="15" font-family="Source Code Pro, monospace">Power supply pin</text><path d="&#10;        M860,233&#10;        H876&#10;        V249&#10;        H863&#10;        L860,246&#10;        Z&#10;      " fill="#221E1F"/><text x="886" y="241" dominant-baseline="middle" fill="#500B76" font-size="15" font-family="Source Code Pro, monospace">Ground</text><path d="&#10;        M860,257&#10;        H876&#10;        V273&#10;        H863&#10;        L860,270&#10;        Z&#10;      " fill="#FED53E"/><text x="886" y="265" dominant-baseline="middle" fill="#500B76" font-size="15" font-family="Source Code Pro, monospace">Control</text><path d="&#10;        M860,281&#10;        H876&#10;        V297&#10;        H863&#10;        L860,294&#10;        Z&#10;      " fill="#88C284"/><text x="886" y="289" dominant-baseline="middle" fill="#500B76" font-size="15" font-family="Source Code Pro, monospace">GPIO</text><path d="&#10;        M860,305&#10;        H876&#10;        V321&#10;        H863&#10;        L860,318&#10;        Z&#10;      " fill="#4777B9"/><text x="886" y="313" dominant-baseline="middle" fill="#500B76" font-size="15" font-family="Source Code Pro, monospace">ADC pin</text><path d="&#10;        M860,329&#10;        H876&#10;        V345&#10;        H863&#10;        L860,342&#10;        Z&#10;      " fill="#97B8DB"/><text x="886" y="337" dominant-baseline="middle" fill="#500B76" font-size="15" font-family="Source Code Pro, monospace">DAC pin</text><path d="&#10;        M860,353&#10;        H876&#10;        V369&#10;        H863&#10;        L860,366&#10;        Z&#10;      " fill="#E58F40"/><text x="886" y="361" dominant-baseline="middle" fill="#500B76" font-size="15" font-family="Source Code Pro, monospace">SPI comms</text><path d="&#10;        M860,377&#10;        H876&#10;        V393&#10;        H863&#10;        L860,390&#10;        Z&#10;      " fill="#6A241F"/><text x="886" y="385" dominant-baseline="middle" fill="#500B76" font-size="15" font-family="Source Code Pro, monospace">UART comms</text><path d="&#10;        M860,401&#10;        H876&#10;        V417&#10;        H863&#10;        L860,414&#10;        Z&#10;      " fill="#A75383"/><text x="886" y="409" dominant-baseline="middle" fill="#500B76" font-size="15" font-family="Source Code Pro, monospace">I2C comms</text><path d="&#10;        M860,425&#10;        H876&#10;        V441&#10;        H863&#10;        L860,438&#10;        Z&#10;      " fill="#2E3175"/><text x="886" y="433" dominant-baseline="middle" fill="#500B76" font-size="15" font-family="Source Code Pro, monospace">PWM comms</text><path d="&#10;        M860,449&#10;        H876&#10;        V465&#10;        H863&#10;        L860,462&#10;        Z&#10;      " fill="#295A32"/><text x="886" y="457" dominant-baseline="middle" fill="#500B76" font-size="15" font-family="Source Code Pro, monospace">Other</text><path d="&#10;        M860,473&#10;        H876&#10;        V489&#10;        H863&#10;        L860,486&#10;        Z&#10;      " fill="#ED008C"/><text x="886" y="481" dominant-baseline="middle" fill="#500B76" font-size="15" font-family="Source Code Pro, monospace">Port name</text><g><path d="M863,497 H873 L876,500 V510 L873,513 H863 L860,510 V500 Z" fill="#00C0DE"/><text x="868" y="508" text-anchor="middle" font-size="10" font-family="Source Code Pro, monospace" fill="white">i</text></g><text x="886" y="505" dominant-baseline="middle" fill="#500B76" font-size="15" font-family="Source Code Pro, monospace">General info</text><g><path d="M868,521 L876,537 H860 Z" fill="#FFD700"/><text x="868" y="535" text-anchor="middle" font-size="12" font-family="Source Code Pro, monospace" fill="black">!</text></g><text x="886" y="529" dominant-baseline="middle" fill="#500B76" font-size="15" font-family="Source Code Pro, monospace">Warning!</text></g><g transform="translate(30, 620) scale(0.45)"><path d="M0 21 L120 -44 L240 21 Z" fill="#500B76"/><rect x="0" y="20" width="240" height="650" fill="#500B76"/><path d="M183.944 33.9609C179.575 33.9609 175.205 32.7691 171.63 30.7827L119.5943 0.589111L41.73877 45.8794V121.363L123.5665 168.64L125.5527 167.448C132.7027 163.873 137.867 155.927 137.867 147.981C137.867 140.036 133.1 130.898 125.9499 127.323L76.6943 100.705V65.3463L119.5943 40.3175L155.344 61.3735C158.919 63.3599 161.303 66.1409 163.686 69.7164C167.658 76.8675 175.205 81.2377 183.944 81.2377C191.889 81.2377 198.642 77.2648 203.011 71.3056C203.408 70.9083 203.805 70.1137 204.203 69.7164C204.203 69.7164 204.203 69.7165 204.203 69.3192C206.189 65.7436 207.38 61.7708 207.38 57.4007C207.38 44.6876 197.053 33.9609 183.944 33.9609Z" fill="white"/><path d="M116.4166 63.7572C109.2666 67.3328 104.1028 75.2784 104.1028 83.2241C104.1028 91.1698 108.8694 100.307 116.0194 103.883L165.275 130.501V165.859L122.375 190.888L86.625 169.832C83.05 167.845 80.6666 165.065 78.2833 161.489C74.3111 154.338 66.7639 149.968 58.025 149.968C50.0805 149.968 43.3278 153.941 38.95831 159.9C38.56109 160.297 38.16387 161.092 37.76665 161.489C37.76665 161.489 37.76665 161.489 37.76665 161.886C35.78053 165.462 34.588867 169.435 34.588867 173.805C34.588867 186.915 45.3139 197.642 58.4222 197.642C62.7916 197.642 66.7639 198.834 70.7361 200.82L122.7722 230.616L200.231 185.723V110.239L118.4028 62.9626L116.4166 63.7572Z" fill="white"/></g><g transform="translate(47, 740) scale(0.08)"><path d="M52.111 142.107C42.975 142.107 34.236 140.518 25.1 137.34C16.361 134.161 8.01902 128.997 0.869019 122.243L18.347 100.789C23.114 104.762 28.675 107.941 35.031 109.927C40.989 111.913 46.947 113.105 52.905 113.105C58.864 113.105 63.233 112.311 66.014 110.324C68.794 108.338 70.383 105.557 70.383 101.981C70.383 99.2 69.589 97.214 68 95.625C66.411 94.036 64.028 92.844 61.247 91.255C58.467 90.063 55.289 88.474 51.317 86.885L33.839 79.733C29.072 77.747 24.306 74.966 20.333 71.788C15.964 68.609 12.786 64.239 10.006 59.472C7.22501 54.705 6.03302 48.7453 6.03302 42.3888C6.03302 34.8404 8.01902 27.6893 12.389 21.73C16.758 15.3735 22.319 10.6061 29.867 6.6333C37.414 3.0577 45.756 1.0713 55.686 1.0713C64.028 1.0713 71.972 2.6604 79.519 5.4414C87.067 8.2224 94.217 12.5925 99.778 18.1545L82.3 40.0051C77.533 36.8268 73.164 34.0458 68.397 32.4567C64.028 30.8675 59.261 30.073 55.289 30.073C50.522 30.073 46.55 30.8676 43.769 32.854C40.989 34.8404 39.4 37.2241 39.4 40.7996C39.4 43.1833 40.194 45.1698 41.783 46.7589C43.372 48.348 45.755 49.9372 48.933 51.129C52.111 52.3209 55.686 53.91 59.658 55.499L76.739 62.253C82.3 64.637 87.067 67.418 91.039 70.596C95.011 74.171 98.189 78.144 100.175 82.912C102.161 87.679 103.353 93.241 103.353 99.598C103.353 107.146 101.367 114.297 97.394 120.654C93.422 127.01 87.464 132.572 79.519 136.545C72.767 140.121 63.233 142.107 52.111 142.107Z" fill="white"/><path d="M176.839 113.105C182.797 113.105 187.564 111.516 191.933 107.94C196.303 104.365 199.48 99.598 201.864 93.241C204.247 86.884 205.042 79.336 205.042 70.596C205.042 61.856 203.85 54.307 201.864 48.348C199.48 42.3887 196.303 37.6213 191.933 34.443C187.564 31.2648 182.797 29.6756 176.839 29.6756C170.88 29.6756 166.114 31.2648 161.744 34.443C157.375 37.6213 154.197 42.3887 152.211 48.348C149.828 54.307 149.033 61.856 149.033 70.596C149.033 79.336 150.225 86.884 152.211 93.241C154.594 99.598 157.772 104.365 161.744 107.94C166.114 111.516 171.278 113.105 176.839 113.105ZM176.839 142.107C164.525 142.107 153.403 139.326 144.267 133.764C134.733 127.805 127.583 119.859 122.419 109.132C117.255 98.406 114.475 85.693 114.475 70.993C114.475 55.896 117.255 43.5806 122.419 32.8539C127.583 22.5245 135.13 14.5789 144.267 9.0169C153.8 3.4549 164.525 0.673996 176.839 0.673996C189.153 0.673996 200.275 3.4549 209.411 9.0169C218.944 14.5789 226.094 22.5245 231.258 32.8539C236.422 43.1833 239.203 55.896 239.203 70.993C239.203 85.693 236.422 98.406 231.258 109.132C226.094 119.859 218.547 127.805 209.411 133.764C200.275 139.326 189.55 142.107 176.839 142.107Z" fill="white"/><path d="M390.942 112.708H394.914C402.064 112.708 408.419 111.516 413.981 109.132C419.542 106.749 423.911 102.379 427.089 96.419C430.267 90.46 431.856 82.117 431.856 70.993C431.856 60.267 430.267 51.9236 427.089 45.9644C423.911 40.0051 419.542 36.0323 413.981 33.6486C408.419 31.2649 402.064 30.073 394.914 30.073H390.942V112.708ZM357.575 139.326V3.0577H397.297C411.2 3.0577 423.117 5.4414 433.444 10.2088C443.772 14.9762 451.717 22.1273 457.675 32.0594C463.236 41.9915 466.414 54.705 466.414 70.596C466.414 86.487 463.633 99.2 457.675 109.53C452.114 119.462 444.169 127.01 433.842 132.175C423.911 136.942 411.994 139.326 398.886 139.326H357.575Z" fill="white"/><path d="M481.508 139.326V3.0577H568.5V31.2649H515.272V55.499H560.556V83.706H515.272V111.516H570.883V139.723H481.508V139.326Z" fill="white"/><path d="M622.125 29.6757H636.425C643.972 29.6757 649.533 30.8676 653.506 33.2513C657.478 35.635 659.464 40.0051 659.464 46.3616C659.464 52.7182 657.478 57.486 653.506 60.664C649.533 63.842 643.972 65.431 636.425 65.431H622.125V29.6757ZM699.583 139.326L669.394 85.295C675.75 82.117 681.311 77.747 685.283 72.185C690.05 65.431 692.831 56.691 692.831 46.3616C692.831 35.2377 690.447 26.4975 685.283 20.1409C680.517 13.7844 673.764 9.4143 665.819 7.0306C657.875 4.6469 648.739 3.0577 639.206 3.0577H588.361V139.326H621.728V92.049H637.219L661.847 139.326H699.583Z" fill="white"/><path d="M712.294 139.326V3.0577H799.29V31.2649H746.058V55.499H791.34V83.706H746.058V111.516H801.67V139.723H712.294V139.326Z" fill="white"/><path d="M850.93 112.708H854.9C862.05 112.708 868.4 111.516 873.96 109.132C879.53 106.749 883.89 102.379 887.07 96.419C890.25 90.46 891.84 82.117 891.84 70.993C891.84 60.267 890.25 51.9236 887.07 45.9644C883.89 40.0051 879.53 36.0323 873.96 33.6486C868.4 31.2649 862.05 30.073 854.9 30.073H850.93V112.708ZM817.56 139.326V3.0577H857.28C871.18 3.0577 883.1 5.4414 893.43 10.2088C903.76 14.9762 911.7 22.1273 917.66 32.0594C923.22 41.9915 926.4 54.705 926.4 70.596C926.4 86.487 923.62 99.2 917.66 109.53C912.1 119.462 904.15 127.01 893.83 132.175C883.89 136.942 871.98 139.326 858.87 139.326H817.56Z" fill="white"/><path d="M305.936 108.338L287.664 90.063V3.0577H254.297V103.968L289.253 138.929H341.686V107.941H305.936V108.338Z" fill="white"/></g><text x="83" y="775" fill="white" font-size="12" font-family="Source Code Pro, monospace" text-anchor="middle">soldered.com</text><g transform="translate(860, 600) scale(3)"><g transform="translate(0, 0) scale(0.027805629418030078) translate(-0.2899308204650879, -0.01001596450805664)"><path d="m794.87 343.82c2.39.45 4.35 2.8 4.34 5.25l-.01 100.98c0 2.43-1.96 4.81-4.35 5.24l-95.68 17.81c-2.4.44-4.94 2.71-5.68 5.03l-29.87 74.64c-1.06 2.19-.81 5.61.56 7.62l54.35 79.21c1.38 2.01 1.1 5.06-.63 6.79l-71.4 71.4c-1.71 1.71-4.76 1.99-6.77.63l-77.8-53.41c-2-1.38-5.36-1.48-7.46-.25l-34.31 18.32c-2.18 1.1-4.71.18-5.64-2.07l-70.74-170.99c-.93-2.25.01-5.12 2.08-6.39l8.59-5.26c1.58-.97 3.74-2.64 5.42-4.16 30.98-19.84 51.53-54.54 51.53-94.07 0-61.68-49.99-111.68-111.65-111.68s-111.65 50-111.65 111.68c0 39.53 20.55 74.23 51.53 94.07 1.69 1.53 3.84 3.19 5.43 4.16l8.59 5.26c2.08 1.27 3.01 4.14 2.08 6.39l-70.75 170.98c-.93 2.25-3.47 3.19-5.64 2.07l-34.31-18.32c-2.09-1.22-5.45-1.12-7.46.26l-77.8 53.41c-2.01 1.37-5.06 1.09-6.78-.63l-71.4-71.4c-1.72-1.73-2-4.78-.63-6.79l54.35-79.22c1.38-2 1.63-5.43.56-7.62l-29.87-74.64c-.73-2.32-3.29-4.6-5.68-5.03l-95.68-17.81c-2.39-.44-4.35-2.8-4.35-5.24v-100.98c0-2.43 1.95-4.79 4.35-5.24l98.09-18.25c2.4-.45 5-2.69 5.8-4.99l30.07-70.16c1.12-2.17.9-5.57-.47-7.59l-57.16-83.32c-1.38-2-1.09-5.05.63-6.78l71.39-71.4c1.72-1.72 4.77-2 6.78-.63l84.76 58.18c2 1.38 5.43 1.62 7.62.55l68.01-27.84c2.31-.76 4.56-3.35 5.01-5.74l18.88-101.49c.44-2.39 2.8-4.35 5.23-4.35h100.96c2.43 0 4.79 1.96 5.23 4.36l18.89 101.48c.45 2.39 2.7 4.98 5.01 5.74l68 27.84c2.18 1.08 5.61.83 7.62-.55l84.76-58.18c2-1.38 5.05-1.1 6.77.63l71.39 71.4c1.72 1.73 1.99 4.78.63 6.78l-57.15 83.33c-1.39 2.02-1.6 5.42-.48 7.59l30.07 70.16c.81 2.3 3.42 4.55 5.81 4.99l98.09 18.25" fill="#500B76"/></g><g transform="translate(25, -1)"><circle cx="12" cy="12" r="10" fill="none" stroke="#500B76" stroke-width="2.5" vector-effect="non-scaling-stroke"/><text x="9" y="12.5" text-anchor="middle" dominant-baseline="middle" font-size="10" font-family="Source Code Pro, monospace" font-weight="bold" fill="#500B76">C</text><text x="15" y="12.5" text-anchor="middle" dominant-baseline="middle" font-size="10" font-family="Source Code Pro, monospace" font-weight="bold" fill="#500B76">C</text></g><text x="0" y="30" font-size="3" fill="#500B76" font-family="Source Code Pro, monospace" font-weight="bold">This work is licensed under the Creative Commons</text><text x="0" y="35" font-size="3" fill="#500B76" font-family="Source Code Pro, monospace" font-weight="bold">Attribution-ShareAlike 4.0 International.</text><text x="0" y="40" font-size="3" fill="#500B76" font-family="Source Code Pro, monospace" font-weight="bold">To view a copy of this license, visit</text><text x="0" y="45" font-size="3" fill="#500B76" font-family="Source Code Pro, monospace" font-weight="bold">http://creativecommons.org/licenses/by-sa/4.0/</text><text x="0" y="50" font-size="3" fill="#500B76" font-family="Source Code Pro, monospace" font-weight="bold">or send a letter to Creative Commons,</text><text x="0" y="55" font-size="3" fill="#500B76" font-family="Source Code Pro, monospace" font-weight="bold">PO Box 1866, Mountain View, CA 94042, USA.</text></g><g><text x="860" y="120" fill="#00C0DE" font-size="14" font-family="Source Code Pro, monospace">v1.3</text><path d="&#10;    M30,30 &#10;    H830 &#10;    V80 &#10;    H40 &#10;    L30,70 &#10;    Z&#10;  " fill="#500B76"/><text x="430" y="55" text-anchor="middle" dominant-baseline="middle" fill="white" font-size="20" font-family="Source Code Pro, monospace"><tspan font-weight="bold">THERMOCOUPLE SENSOR AD8495 BREAKOUT</tspan><tspan font-weight="normal"> - Pinout</tspan></text><path d="&#10;    M850,30 &#10;    H1090 &#10;    V80 &#10;    H860 &#10;    L850,70 &#10;    Z&#10;  " fill="#00C0DE"/><text x="970" y="52" text-anchor="middle" fill="white" font-size="13" font-family="Source Code Pro, monospace"><tspan x="970" dy="0">Full product documentation:</tspan><tspan x="970" dy="1.2em">solde.red/333053</tspan></text></g></g><g id="user-layer" transform="translate(-367 -21) rotate(0 561 397) scale(1)"><style>
  @import url('https://fonts.googleapis.com/css2?family=Source+Code+Pro&amp;display=swap');

  .hex-label {
    text-anchor: middle;
    dominant-baseline: middle;
    font-family: 'Source Code Pro', monospace;
  }

  .pin-highlight {
    stroke: none;
    stroke-width: 0.5;
    fill: none;
  }
</style>
    <g id="main-content" class="svg-pan-zoom_viewport" transform="matrix(13.046077070336864,0,0,13.046077070336864,636.827993820447,155.48113136347283)" style="transform: matrix(13.0461, 0, 0, 13.0461, 636.828, 155.481);">
      <g id="kicad-layers"><g><title stroke="#5b2379" fill="none" stroke-width="0.2">SVG Image created as Thermocouple_sensor_AD8495_breakout-Edge_Cuts.svg date 2025/09/22 13:05:54 </title><desc stroke="#5b2379" fill="none" stroke-width="0.2">Image generated by PCBNEW </desc><g style="fill:none; fill-opacity:1.0000;stroke:#5b2379; stroke-opacity:1.0000; stroke-linecap:round; stroke-linejoin:round;;stroke-width:0.2" transform="translate(0 0) scale(1 1)">
</g><g style="fill:none;  stroke:#5b2379; stroke-width:0.2; stroke-opacity:1;  stroke-linecap:round; stroke-linejoin:round;">
<path d="M3.8121 0.5483 A2.7613 2.7613 0.0 0 0 1.3121 3.5482" stroke="#5b2379" fill="none" stroke-width="0.2"/>
<path d="M3.8121 38.5482 L20.8121 38.5482 " stroke="#5b2379" fill="none" stroke-width="0.2"/>
<path d="M23.3121 36.0482 L23.3121 3.0482 " stroke="#5b2379" fill="none" stroke-width="0.2"/>
<path d="M23.3121 3.0482 A2.5000 2.5000 0.0 0 0 20.8121 0.5482" stroke="#5b2379" fill="none" stroke-width="0.2"/>
<path d="M20.8121 38.5482 A2.5000 2.5000 0.0 0 0 23.3121 36.0482" stroke="#5b2379" fill="none" stroke-width="0.2"/>
<path d="M20.8121 0.5483 L3.8121 0.5483 " stroke="#5b2379" fill="none" stroke-width="0.2"/>
<path d="M1.3121 3.5482 L1.3121 36.0482 " stroke="#5b2379" fill="none" stroke-width="0.2"/>
<path d="M1.3121 36.0482 A2.5000 2.5000 0.0 0 0 3.8121 38.5482" stroke="#5b2379" fill="none" stroke-width="0.2"/>
</g><g style="fill:none; fill-opacity:1.0000; stroke:#5b2379;;stroke-width:0.2">
<circle cx="20.1621" cy="10.0482" r="0.7000" stroke="#5b2379" fill="none" stroke-width="0.2"/> 
</g><g style="fill:none; fill-opacity:1.0000; stroke:#5b2379;;stroke-width:0.2">
<circle cx="15.1621" cy="10.0482" r="0.7000" stroke="#5b2379" fill="none" stroke-width="0.2"/> 
</g><g style="fill:none; fill-opacity:1.0000; stroke:#5b2379;;stroke-width:0.2">
<circle cx="4.3121" cy="35.5482" r="1.6000" stroke="#5b2379" fill="none" stroke-width="0.2"/> 
</g><g style="fill:none; fill-opacity:1.0000; stroke:#5b2379;;stroke-width:0.2">
<circle cx="4.3121" cy="3.5482" r="1.6000" stroke="#5b2379" fill="none" stroke-width="0.2"/> 
</g><g style="fill:none; fill-opacity:1.0000; stroke:#5b2379;;stroke-width:0.2">
<circle cx="9.4621" cy="10.0482" r="0.7000" stroke="#5b2379" fill="none" stroke-width="0.2"/> 
</g><g style="fill:none; fill-opacity:1.0000; stroke:#5b2379;;stroke-width:0.2">
<circle cx="4.4621" cy="10.0482" r="0.7000" stroke="#5b2379" fill="none" stroke-width="0.2"/> 
</g><g style="fill:none; fill-opacity:1.0000; stroke:#5b2379;;stroke-width:0.2">
<circle cx="9.7721" cy="37.0482" r="0.5000" stroke="#5b2379" fill="none" stroke-width="0.2"/> 
</g><g style="fill:none; fill-opacity:1.0000; stroke:#5b2379;;stroke-width:0.2">
<circle cx="12.3121" cy="37.0482" r="0.5000" stroke="#5b2379" fill="none" stroke-width="0.2"/> 
</g><g style="fill:none; fill-opacity:1.0000; stroke:#5b2379;;stroke-width:0.2">
<circle cx="14.8521" cy="37.0482" r="0.5000" stroke="#5b2379" fill="none" stroke-width="0.2"/> 
</g></g><g><title stroke="none" fill="#cccccc">SVG Image created as Thermocouple_sensor_AD8495_breakout-F_Mask.svg date 2025/09/22 13:05:55 </title><desc stroke="none" fill="#cccccc">Image generated by PCBNEW </desc><g style="fill:#cccccc; fill-opacity:1.0000;stroke:none; stroke-opacity:1.0000; stroke-linecap:round; stroke-linejoin:round;" transform="translate(0 0) scale(1 1)">
</g><g style="fill:#cccccc; fill-opacity:1.0000; stroke:none;">
<circle cx="12.7121" cy="3.0482" r="0.8500" stroke="none" fill="#cccccc"/> 
</g><g style="fill:#cccccc;  stroke:none; stroke-width:0.7000; stroke-opacity:1;  stroke-linecap:round; stroke-linejoin:round;">
<circle cx="12.7121" cy="3.0482" r="1.2000" stroke="none" fill="#cccccc"/> 
<path style="fill:#cccccc; fill-opacity:1.0000; stroke:none;fill-rule:evenodd;" d="M 8.1521,16.4183 8.1598,16.3800 8.1814,16.3475 8.2139,16.3259 8.2521,16.3182 8.9121,16.3182 8.9504,16.3259 8.9829,16.3475 9.0045,16.3800 9.0121,16.4183 9.0121,17.4183 9.0045,17.4565 8.9829,17.4890 8.9504,17.5106 8.9121,17.5182 8.2521,17.5182 8.2139,17.5106 8.1814,17.4890 8.1598,17.4565 8.1521,17.4183 Z"/> 
<path style="fill:#cccccc; fill-opacity:1.0000; stroke:none;fill-rule:evenodd;" d="M 9.6121,16.4183 9.6198,16.3800 9.6414,16.3475 9.6739,16.3259 9.7121,16.3182 10.3721,16.3182 10.4104,16.3259 10.4429,16.3475 10.4645,16.3800 10.4721,16.4183 10.4721,17.4183 10.4645,17.4565 10.4429,17.4890 10.4104,17.5106 10.3721,17.5182 9.7121,17.5182 9.6739,17.5106 9.6414,17.4890 9.6198,17.4565 9.6121,17.4183 Z"/> 
<path style="fill:#cccccc; fill-opacity:1.0000; stroke:none;fill-rule:evenodd;" d="M 9.7171,24.6482 9.6789,24.6406 9.6464,24.6190 9.6248,24.5865 9.6171,24.5482 9.6171,23.5482 9.6248,23.5100 9.6464,23.4775 9.6789,23.4559 9.7171,23.4482 10.3571,23.4482 10.3954,23.4559 10.4279,23.4775 10.4495,23.5100 10.4571,23.5482 10.4571,24.5482 10.4495,24.5865 10.4279,24.6190 10.3954,24.6406 10.3571,24.6482 Z"/> 
<path style="fill:#cccccc; fill-opacity:1.0000; stroke:none;fill-rule:evenodd;" d="M 11.2671,24.6482 11.2289,24.6406 11.1964,24.6190 11.1748,24.5865 11.1671,24.5482 11.1671,23.5482 11.1748,23.5100 11.1964,23.4775 11.2289,23.4559 11.2671,23.4482 11.9071,23.4482 11.9454,23.4559 11.9779,23.4775 11.9995,23.5100 12.0071,23.5482 12.0071,24.5482 11.9995,24.5865 11.9779,24.6190 11.9454,24.6406 11.9071,24.6482 Z"/> 
<path style="fill:#cccccc; fill-opacity:1.0000; stroke:none;fill-rule:evenodd;" d="M 18.4521,21.4482 18.4445,21.4865 18.4229,21.5190 18.3904,21.5406 18.3521,21.5482 17.6921,21.5482 17.6539,21.5406 17.6214,21.5190 17.5998,21.4865 17.5921,21.4482 17.5921,20.4482 17.5998,20.4100 17.6214,20.3775 17.6539,20.3559 17.6921,20.3483 18.3521,20.3483 18.3904,20.3559 18.4229,20.3775 18.4445,20.4100 18.4521,20.4482 Z"/> 
<path style="fill:#cccccc; fill-opacity:1.0000; stroke:none;fill-rule:evenodd;" d="M 16.9921,21.4482 16.9845,21.4865 16.9629,21.5190 16.9304,21.5406 16.8921,21.5482 16.2321,21.5482 16.1939,21.5406 16.1614,21.5190 16.1398,21.4865 16.1321,21.4482 16.1321,20.4482 16.1398,20.4100 16.1614,20.3775 16.1939,20.3559 16.2321,20.3483 16.8921,20.3483 16.9304,20.3559 16.9629,20.3775 16.9845,20.4100 16.9921,20.4482 Z"/> 
<path style="fill:#cccccc; fill-opacity:1.0000; stroke:none;fill-rule:evenodd;" d="M 9.7171,15.6482 9.6789,15.6406 9.6464,15.6190 9.6248,15.5865 9.6171,15.5482 9.6171,14.5482 9.6248,14.5100 9.6464,14.4775 9.6789,14.4559 9.7171,14.4482 10.3571,14.4482 10.3954,14.4559 10.4279,14.4775 10.4495,14.5100 10.4571,14.5482 10.4571,15.5482 10.4495,15.5865 10.4279,15.6190 10.3954,15.6406 10.3571,15.6482 Z"/> 
<path style="fill:#cccccc; fill-opacity:1.0000; stroke:none;fill-rule:evenodd;" d="M 11.2671,15.6482 11.2289,15.6406 11.1964,15.6190 11.1748,15.5865 11.1671,15.5482 11.1671,14.5482 11.1748,14.5100 11.1964,14.4775 11.2289,14.4559 11.2671,14.4482 11.9071,14.4482 11.9454,14.4559 11.9779,14.4775 11.9995,14.5100 12.0071,14.5482 12.0071,15.5482 11.9995,15.5865 11.9779,15.6190 11.9454,15.6406 11.9071,15.6482 Z"/> 
<path style="fill:#cccccc; fill-opacity:1.0000; stroke:none;fill-rule:evenodd;" d="M 16.1521,18.5482 16.1598,18.5100 16.1814,18.4775 16.2139,18.4559 16.2521,18.4482 16.9121,18.4482 16.9504,18.4559 16.9829,18.4775 17.0045,18.5100 17.0121,18.5482 17.0121,19.5482 17.0045,19.5865 16.9829,19.6190 16.9504,19.6406 16.9121,19.6483 16.2521,19.6483 16.2139,19.6406 16.1814,19.6190 16.1598,19.5865 16.1521,19.5482 Z"/> 
<path style="fill:#cccccc; fill-opacity:1.0000; stroke:none;fill-rule:evenodd;" d="M 17.6121,18.5482 17.6198,18.5100 17.6414,18.4775 17.6739,18.4559 17.7121,18.4482 18.3721,18.4482 18.4104,18.4559 18.4429,18.4775 18.4645,18.5100 18.4721,18.5482 18.4721,19.5482 18.4645,19.5865 18.4429,19.6190 18.4104,19.6406 18.3721,19.6483 17.7121,19.6483 17.6739,19.6406 17.6414,19.6190 17.6198,19.5865 17.6121,19.5482 Z"/> 
<path style="fill:#cccccc; fill-opacity:1.0000; stroke:none;fill-rule:evenodd;" d="M 14.9071,14.4482 14.9454,14.4559 14.9779,14.4775 14.9995,14.5100 15.0071,14.5482 15.0071,15.5482 14.9995,15.5865 14.9779,15.6190 14.9454,15.6406 14.9071,15.6482 14.2671,15.6482 14.2289,15.6406 14.1964,15.6190 14.1748,15.5865 14.1671,15.5482 14.1671,14.5482 14.1748,14.5100 14.1964,14.4775 14.2289,14.4559 14.2671,14.4482 Z"/> 
<path style="fill:#cccccc; fill-opacity:1.0000; stroke:none;fill-rule:evenodd;" d="M 13.3571,14.4482 13.3954,14.4559 13.4279,14.4775 13.4495,14.5100 13.4571,14.5482 13.4571,15.5482 13.4495,15.5865 13.4279,15.6190 13.3954,15.6406 13.3571,15.6482 12.7171,15.6482 12.6789,15.6406 12.6464,15.6190 12.6248,15.5865 12.6171,15.5482 12.6171,14.5482 12.6248,14.5100 12.6464,14.4775 12.6789,14.4559 12.7171,14.4482 Z"/> 
<path style="fill:#cccccc; fill-opacity:1.0000; stroke:none;fill-rule:evenodd;" d="M 11.1521,16.4183 11.1598,16.3800 11.1814,16.3475 11.2139,16.3259 11.2521,16.3182 11.9121,16.3182 11.9504,16.3259 11.9829,16.3475 12.0045,16.3800 12.0121,16.4183 12.0121,17.4183 12.0045,17.4565 11.9829,17.4890 11.9504,17.5106 11.9121,17.5182 11.2521,17.5182 11.2139,17.5106 11.1814,17.4890 11.1598,17.4565 11.1521,17.4183 Z"/> 
<path style="fill:#cccccc; fill-opacity:1.0000; stroke:none;fill-rule:evenodd;" d="M 12.6121,16.4183 12.6198,16.3800 12.6414,16.3475 12.6739,16.3259 12.7121,16.3182 13.3721,16.3182 13.4104,16.3259 13.4429,16.3475 13.4645,16.3800 13.4721,16.4183 13.4721,17.4183 13.4645,17.4565 13.4429,17.4890 13.4104,17.5106 13.3721,17.5182 12.7121,17.5182 12.6739,17.5106 12.6414,17.4890 12.6198,17.4565 12.6121,17.4183 Z"/> 
</g><g style="fill:#cccccc; fill-opacity:1.0000; stroke:none;">
<circle cx="20.1621" cy="10.0482" r="1.0500" stroke="none" fill="#cccccc"/> 
</g><g style="fill:#cccccc; fill-opacity:1.0000; stroke:none;">
<circle cx="15.1621" cy="10.0482" r="1.0500" stroke="none" fill="#cccccc"/> 
</g><g style="fill:#cccccc; fill-opacity:1.0000; stroke:none;">
<circle cx="4.3121" cy="35.5482" r="1.6000" stroke="none" fill="#cccccc"/> 
<path style="fill:#cccccc; fill-opacity:1.0000; stroke:none;fill-rule:evenodd;" d="M 9.0721,23.6782 9.1104,23.6859 9.1429,23.7075 9.1645,23.7400 9.1721,23.7782 9.1721,24.3782 9.1645,24.4165 9.1429,24.4490 9.1104,24.4706 9.0721,24.4782 8.0721,24.4782 8.0339,24.4706 8.0014,24.4490 7.9798,24.4165 7.9721,24.3782 7.9721,23.7782 7.9798,23.7400 8.0014,23.7075 8.0339,23.6859 8.0721,23.6782 Z"/> 
<path style="fill:#cccccc; fill-opacity:1.0000; stroke:none;fill-rule:evenodd;" d="M 9.0721,21.7782 9.1104,21.7859 9.1429,21.8075 9.1645,21.8400 9.1721,21.8782 9.1721,22.4782 9.1645,22.5165 9.1429,22.5490 9.1104,22.5706 9.0721,22.5783 8.0721,22.5783 8.0339,22.5706 8.0014,22.5490 7.9798,22.5165 7.9721,22.4782 7.9721,21.8782 7.9798,21.8400 8.0014,21.8075 8.0339,21.7859 8.0721,21.7782 Z"/> 
<path style="fill:#cccccc; fill-opacity:1.0000; stroke:none;fill-rule:evenodd;" d="M 6.6721,22.7282 6.7104,22.7359 6.7429,22.7575 6.7645,22.7900 6.7721,22.8283 6.7721,23.4282 6.7645,23.4665 6.7429,23.4990 6.7104,23.5206 6.6721,23.5282 5.6721,23.5282 5.6339,23.5206 5.6014,23.4990 5.5798,23.4665 5.5721,23.4282 5.5721,22.8283 5.5798,22.7900 5.6014,22.7575 5.6339,22.7359 5.6721,22.7282 Z"/> 
<path style="fill:#cccccc; fill-opacity:1.0000; stroke:none;fill-rule:evenodd;" d="M 14.1521,16.4183 14.1598,16.3800 14.1814,16.3475 14.2139,16.3259 14.2521,16.3182 14.9121,16.3182 14.9504,16.3259 14.9829,16.3475 15.0045,16.3800 15.0121,16.4183 15.0121,17.4183 15.0045,17.4565 14.9829,17.4890 14.9504,17.5106 14.9121,17.5182 14.2521,17.5182 14.2139,17.5106 14.1814,17.4890 14.1598,17.4565 14.1521,17.4183 Z"/> 
<path style="fill:#cccccc; fill-opacity:1.0000; stroke:none;fill-rule:evenodd;" d="M 15.6121,16.4183 15.6198,16.3800 15.6414,16.3475 15.6739,16.3259 15.7121,16.3182 16.3721,16.3182 16.4104,16.3259 16.4429,16.3475 16.4645,16.3800 16.4721,16.4183 16.4721,17.4183 16.4645,17.4565 16.4429,17.4890 16.4104,17.5106 16.3721,17.5182 15.7121,17.5182 15.6739,17.5106 15.6414,17.4890 15.6198,17.4565 15.6121,17.4183 Z"/> 
</g><g style="fill:#cccccc; fill-opacity:1.0000; stroke:none;">
<circle cx="4.3121" cy="3.5482" r="1.6000" stroke="none" fill="#cccccc"/> 
<path style="fill:#cccccc; fill-opacity:1.0000; stroke:none;fill-rule:evenodd;" d="M 9.5621,18.3483 9.5698,18.3100 9.5914,18.2775 9.6239,18.2559 9.6621,18.2482 11.0121,18.2482 11.0504,18.2559 11.0829,18.2775 11.1045,18.3100 11.1121,18.3483 11.1121,18.7982 11.1045,18.8365 11.0829,18.8690 11.0504,18.8906 11.0121,18.8983 9.6621,18.8983 9.6239,18.8906 9.5914,18.8690 9.5698,18.8365 9.5621,18.7982 Z"/> 
<path style="fill:#cccccc; fill-opacity:1.0000; stroke:none;fill-rule:evenodd;" d="M 9.5621,18.9982 9.5698,18.9600 9.5914,18.9275 9.6239,18.9059 9.6621,18.8983 11.0121,18.8983 11.0504,18.9059 11.0829,18.9275 11.1045,18.9600 11.1121,18.9982 11.1121,19.4482 11.1045,19.4865 11.0829,19.5190 11.0504,19.5406 11.0121,19.5482 9.6621,19.5482 9.6239,19.5406 9.5914,19.5190 9.5698,19.4865 9.5621,19.4482 Z"/> 
<path style="fill:#cccccc; fill-opacity:1.0000; stroke:none;fill-rule:evenodd;" d="M 9.5621,19.6483 9.5698,19.6100 9.5914,19.5775 9.6239,19.5559 9.6621,19.5482 11.0121,19.5482 11.0504,19.5559 11.0829,19.5775 11.1045,19.6100 11.1121,19.6483 11.1121,20.0983 11.1045,20.1365 11.0829,20.1690 11.0504,20.1906 11.0121,20.1982 9.6621,20.1982 9.6239,20.1906 9.5914,20.1690 9.5698,20.1365 9.5621,20.0983 Z"/> 
<path style="fill:#cccccc; fill-opacity:1.0000; stroke:none;fill-rule:evenodd;" d="M 9.5621,20.2982 9.5698,20.2600 9.5914,20.2275 9.6239,20.2059 9.6621,20.1982 11.0121,20.1982 11.0504,20.2059 11.0829,20.2275 11.1045,20.2600 11.1121,20.2982 11.1121,20.7482 11.1045,20.7865 11.0829,20.8190 11.0504,20.8406 11.0121,20.8483 9.6621,20.8483 9.6239,20.8406 9.5914,20.8190 9.5698,20.7865 9.5621,20.7482 Z"/> 
<path style="fill:#cccccc; fill-opacity:1.0000; stroke:none;fill-rule:evenodd;" d="M 13.5121,20.2982 13.5198,20.2600 13.5414,20.2275 13.5739,20.2059 13.6121,20.1982 14.9621,20.1982 15.0004,20.2059 15.0329,20.2275 15.0545,20.2600 15.0621,20.2982 15.0621,20.7482 15.0545,20.7865 15.0329,20.8190 15.0004,20.8406 14.9621,20.8483 13.6121,20.8483 13.5739,20.8406 13.5414,20.8190 13.5198,20.7865 13.5121,20.7482 Z"/> 
<path style="fill:#cccccc; fill-opacity:1.0000; stroke:none;fill-rule:evenodd;" d="M 13.5121,19.6483 13.5198,19.6100 13.5414,19.5775 13.5739,19.5559 13.6121,19.5482 14.9621,19.5482 15.0004,19.5559 15.0329,19.5775 15.0545,19.6100 15.0621,19.6483 15.0621,20.0983 15.0545,20.1365 15.0329,20.1690 15.0004,20.1906 14.9621,20.1982 13.6121,20.1982 13.5739,20.1906 13.5414,20.1690 13.5198,20.1365 13.5121,20.0983 Z"/> 
<path style="fill:#cccccc; fill-opacity:1.0000; stroke:none;fill-rule:evenodd;" d="M 13.5121,18.9982 13.5198,18.9600 13.5414,18.9275 13.5739,18.9059 13.6121,18.8983 14.9621,18.8983 15.0004,18.9059 15.0329,18.9275 15.0545,18.9600 15.0621,18.9982 15.0621,19.4482 15.0545,19.4865 15.0329,19.5190 15.0004,19.5406 14.9621,19.5482 13.6121,19.5482 13.5739,19.5406 13.5414,19.5190 13.5198,19.4865 13.5121,19.4482 Z"/> 
<path style="fill:#cccccc; fill-opacity:1.0000; stroke:none;fill-rule:evenodd;" d="M 13.5121,18.3483 13.5198,18.3100 13.5414,18.2775 13.5739,18.2559 13.6121,18.2482 14.9621,18.2482 15.0004,18.2559 15.0329,18.2775 15.0545,18.3100 15.0621,18.3483 15.0621,18.7982 15.0545,18.8365 15.0329,18.8690 15.0004,18.8906 14.9621,18.8983 13.6121,18.8983 13.5739,18.8906 13.5414,18.8690 13.5198,18.8365 13.5121,18.7982 Z"/> 
<path style="fill:#cccccc; fill-opacity:1.0000; stroke:none;fill-rule:evenodd;" d="M 7.6121,16.9432 7.6045,16.9815 7.5829,17.0140 7.5504,17.0356 7.5121,17.0433 6.5121,17.0433 6.4739,17.0356 6.4414,17.0140 6.4198,16.9815 6.4121,16.9432 6.4121,16.3032 6.4198,16.2650 6.4414,16.2325 6.4739,16.2109 6.5121,16.2033 7.5121,16.2033 7.5504,16.2109 7.5829,16.2325 7.6045,16.2650 7.6121,16.3032 Z"/> 
<path style="fill:#cccccc; fill-opacity:1.0000; stroke:none;fill-rule:evenodd;" d="M 7.6121,15.3933 7.6045,15.4315 7.5829,15.4640 7.5504,15.4856 7.5121,15.4932 6.5121,15.4932 6.4739,15.4856 6.4414,15.4640 6.4198,15.4315 6.4121,15.3933 6.4121,14.7532 6.4198,14.7150 6.4414,14.6825 6.4739,14.6609 6.5121,14.6532 7.5121,14.6532 7.5504,14.6609 7.5829,14.6825 7.6045,14.7150 7.6121,14.7532 Z"/> 
</g><g style="fill:#cccccc; fill-opacity:1.0000; stroke:none;">
<circle cx="9.4621" cy="10.0482" r="1.0500" stroke="none" fill="#cccccc"/> 
</g><g style="fill:#cccccc; fill-opacity:1.0000; stroke:none;">
<circle cx="4.4621" cy="10.0482" r="1.0500" stroke="none" fill="#cccccc"/> 
</g><g style="fill:#cccccc; fill-opacity:1.0000; stroke:none;">
<circle cx="9.7721" cy="37.0482" r="0.9500" stroke="none" fill="#cccccc"/> 
</g><g style="fill:#cccccc; fill-opacity:1.0000; stroke:none;">
<circle cx="12.3121" cy="37.0482" r="0.9500" stroke="none" fill="#cccccc"/> 
</g><g style="fill:#cccccc; fill-opacity:1.0000; stroke:none;">
<circle cx="14.8521" cy="37.0482" r="0.9500" stroke="none" fill="#cccccc"/> 
</g><g style="fill:#cccccc; fill-opacity:1.0000; stroke:none;">
<circle cx="20.1621" cy="10.0482" r="0.7000" stroke="none" fill="#cccccc"/> 
</g><g style="fill:#cccccc; fill-opacity:1.0000; stroke:none;">
<circle cx="15.1621" cy="10.0482" r="0.7000" stroke="none" fill="#cccccc"/> 
</g><g style="fill:#cccccc; fill-opacity:1.0000; stroke:none;">
<circle cx="4.3121" cy="35.5482" r="1.6000" stroke="none" fill="#cccccc"/> 
</g><g style="fill:#cccccc; fill-opacity:1.0000; stroke:none;">
<circle cx="4.3121" cy="3.5482" r="1.6000" stroke="none" fill="#cccccc"/> 
</g><g style="fill:#cccccc; fill-opacity:1.0000; stroke:none;">
<circle cx="9.4621" cy="10.0482" r="0.7000" stroke="none" fill="#cccccc"/> 
</g><g style="fill:#cccccc; fill-opacity:1.0000; stroke:none;">
<circle cx="4.4621" cy="10.0482" r="0.7000" stroke="none" fill="#cccccc"/> 
</g><g style="fill:#cccccc; fill-opacity:1.0000; stroke:none;">
<circle cx="9.7721" cy="37.0482" r="0.5000" stroke="none" fill="#cccccc" data-pin-id="P1"/> 
</g><g style="fill:#cccccc; fill-opacity:1.0000; stroke:none;">
<circle cx="12.3121" cy="37.0482" r="0.5000" stroke="none" fill="#cccccc" data-pin-id="P2"/> 
</g><g style="fill:#cccccc; fill-opacity:1.0000; stroke:none;">
<circle cx="14.8521" cy="37.0482" r="0.5000" stroke="none" fill="#cccccc" data-pin-id="P3"/> 
</g></g><g><title stroke="#5b2379" fill="#5b2379" stroke-width="0.05">SVG Image created as Thermocouple_sensor_AD8495_breakout-F_Silkscreen.svg date 2025/09/22 13:05:54 </title><desc stroke="#5b2379" fill="#5b2379" stroke-width="0.05">Image generated by PCBNEW </desc><g style="fill:#5b2379; fill-opacity:1.0000;stroke:#5b2379; stroke-opacity:1.0000; stroke-linecap:round; stroke-linejoin:round;;stroke-width:0.05" transform="translate(0 0) scale(1 1)">
</g><g style="fill:#5b2379;  stroke:#5b2379; stroke-width:0.05; stroke-opacity:1;  stroke-linecap:round; stroke-linejoin:round;">
<path d="M9.1621 16.5182 L9.4621 16.5182 " stroke="#5b2379" fill="#5b2379" stroke-width="0.05"/>
<path d="M9.1621 17.3182 L9.4621 17.3182 " stroke="#5b2379" fill="#5b2379" stroke-width="0.05"/>
<path d="M10.6621 23.6482 L10.9621 23.6482 " stroke="#5b2379" fill="#5b2379" stroke-width="0.05"/>
<path d="M10.6621 24.4482 L10.9621 24.4482 " stroke="#5b2379" fill="#5b2379" stroke-width="0.05"/>
<path d="M17.4621 20.5482 L17.1621 20.5482 " stroke="#5b2379" fill="#5b2379" stroke-width="0.05"/>
<path d="M17.4621 21.3483 L17.1621 21.3483 " stroke="#5b2379" fill="#5b2379" stroke-width="0.05"/>
<path d="M10.6621 14.6482 L10.9621 14.6482 " stroke="#5b2379" fill="#5b2379" stroke-width="0.05"/>
<path d="M10.6621 15.4482 L10.9621 15.4482 " stroke="#5b2379" fill="#5b2379" stroke-width="0.05"/>
<path style="fill:#5b2379; fill-opacity:1.0000; stroke:#5b2379;fill-rule:evenodd;;stroke-width:0.05" d="M 5.5929,29.4404 5.4206,29.4404 5.3070,29.0782 5.3070,29.0508 5.3188,29.0273 5.3109,29.0214 5.2923,29.0400 5.2777,29.0453 5.2679,29.0489 4.8587,29.0489 4.8342,29.0400 4.8156,29.0214 4.8078,29.0273 4.8195,29.0508 4.8195,29.0782 4.7060,29.4404 4.5396,29.4404 4.7118,28.9314 4.8430,28.9314 4.8489,28.9392 4.8724,28.9245 4.8998,28.9177 5.2268,28.9177 5.2542,28.9255 5.2777,28.9412 5.2835,28.9314 5.2620,28.9128 5.2463,28.8883 5.1954,28.7219 5.1629,28.6223 5.1318,28.5232 5.1017,28.4226 5.0721,28.3186 5.0691,28.2892 5.0701,28.2598 5.0584,28.2598 5.0594,28.2892 5.0564,28.3186 5.0268,28.4226 4.9967,28.5232 4.9656,28.6223 4.9331,28.7219 4.8802,28.8883 4.8646,28.9128 4.8430,28.9314 4.7118,28.9314 4.9742,28.1561 5.1582,28.1561 Z"/> 
<path style="fill:#5b2379; fill-opacity:1.0000; stroke:#5b2379;fill-rule:evenodd;;stroke-width:0.05" d="M 6.2202,28.1664 6.3422,28.1972 6.4464,28.2486 6.5326,28.3205 6.6003,28.4117 6.6486,28.5207 6.6776,28.6476 6.6873,28.7924 6.6777,28.9375 6.6489,29.0655 6.6008,29.1764 6.5336,29.2701 6.4481,29.3446 6.3454,29.3978 6.2254,29.4298 6.0882,29.4404 5.9042,29.4404 5.7593,29.4404 5.7593,28.2716 5.8963,28.2716 5.9139,28.2941 5.9218,28.3205 5.9218,29.2760 5.9139,29.3024 5.8963,29.3249 5.9042,29.3327 5.9267,29.3151 5.9531,29.3073 6.0686,29.3073 6.2062,29.2923 6.3188,29.2472 6.4063,29.1722 6.4689,29.0700 6.5064,28.9433 6.5189,28.7924 6.5064,28.6421 6.4689,28.5174 6.4063,28.4184 6.3188,28.3466 6.2062,28.3036 6.0686,28.2892 5.9531,28.2892 5.9267,28.2814 5.9042,28.2638 5.8963,28.2716 5.7593,28.2716 5.7593,28.1561 6.0804,28.1561 Z"/> 
<path style="fill:#5b2379; fill-opacity:1.0000; stroke:#5b2379;fill-rule:evenodd;;stroke-width:0.05" d="M 15.4173,29.4404 15.2450,29.4404 15.1314,29.0782 15.1314,29.0508 15.1432,29.0273 15.1353,29.0214 15.1167,29.0400 15.1021,29.0453 15.0923,29.0489 14.6831,29.0489 14.6586,29.0400 14.6400,29.0214 14.6322,29.0273 14.6439,29.0508 14.6439,29.0782 14.5304,29.4404 14.3639,29.4404 14.5362,28.9314 14.6674,28.9314 14.6733,28.9392 14.6968,28.9245 14.7242,28.9177 15.0511,28.9177 15.0786,28.9255 15.1021,28.9412 15.1079,28.9314 15.0864,28.9128 15.0707,28.8883 15.0198,28.7219 14.9873,28.6223 14.9562,28.5232 14.9261,28.4226 14.8965,28.3186 14.8935,28.2892 14.8945,28.2598 14.8828,28.2598 14.8838,28.2892 14.8808,28.3186 14.8512,28.4226 14.8211,28.5232 14.7900,28.6223 14.7575,28.7219 14.7046,28.8883 14.6890,28.9128 14.6674,28.9314 14.5362,28.9314 14.7986,28.1561 14.9826,28.1561 Z"/> 
<path style="fill:#5b2379; fill-opacity:1.0000; stroke:#5b2379;fill-rule:evenodd;;stroke-width:0.05" d="M 20.0847,28.1561 20.0789,28.1590 20.0749,28.1639 20.0749,28.2853 20.0789,28.2902 20.0847,28.2931 20.0749,28.3029 20.0710,28.2961 20.0671,28.2931 19.7147,28.2931 19.6893,28.2853 19.6677,28.2677 19.6599,28.2755 19.6775,28.2970 19.6853,28.3225 19.6853,29.4326 19.6893,29.4375 19.6951,29.4404 19.6853,29.4502 19.6824,29.4443 19.6775,29.4404 19.5307,29.4404 19.5258,29.4443 19.5228,29.4502 19.5130,29.4404 19.5189,29.4375 19.5228,29.4326 19.5228,28.3225 19.5307,28.2970 19.5483,28.2755 19.5405,28.2677 19.5189,28.2853 19.4935,28.2931 19.1411,28.2931 19.1371,28.2961 19.1332,28.3029 19.1234,28.2931 19.1293,28.2902 19.1332,28.2853 19.1332,28.1639 19.1293,28.1590 19.1234,28.1561 19.1332,28.1463 19.1362,28.1522 19.1411,28.1561 20.0671,28.1561 20.0720,28.1522 20.0749,28.1463 Z"/> 
<path style="fill:#5b2379; fill-opacity:1.0000; stroke:#5b2379;fill-rule:evenodd;;stroke-width:0.05" d="M 18.9296,28.1561 18.9237,28.1590 18.9198,28.1639 18.9198,28.9098 18.9110,29.0523 18.8846,29.1702 18.8427,29.2659 18.7877,29.3415 18.7201,29.3978 18.6408,29.4355 18.5525,29.4568 18.4578,29.4639 18.3631,29.4568 18.2747,29.4355 18.1954,29.3978 18.1279,29.3415 18.0728,29.2659 18.0310,29.1702 18.0045,29.0523 17.9957,28.9098 17.9957,28.1639 17.9918,28.1590 17.9859,28.1561 17.9957,28.1463 17.9987,28.1522 18.0036,28.1561 18.1524,28.1561 18.1572,28.1522 18.1602,28.1463 18.1700,28.1561 18.1641,28.1590 18.1602,28.1639 18.1602,28.9138 18.1661,29.0200 18.1837,29.1076 18.2473,29.2329 18.3413,29.3004 18.4578,29.3210 18.5782,29.3004 18.6751,29.2329 18.7397,29.1076 18.7573,29.0200 18.7632,28.9138 18.7632,28.1639 18.7593,28.1590 18.7534,28.1561 18.7632,28.1463 18.7661,28.1522 18.7710,28.1561 18.9120,28.1561 18.9169,28.1522 18.9198,28.1463 Z"/> 
<path style="fill:#5b2379; fill-opacity:1.0000; stroke:#5b2379;fill-rule:evenodd;;stroke-width:0.05" d="M 17.3031,28.1441 17.4084,28.1786 17.5016,28.2344 17.5816,28.3098 17.6467,28.4042 17.6952,28.5173 17.7253,28.6473 17.7353,28.7924 17.7253,28.9395 17.6952,29.0714 17.6467,29.1864 17.5816,29.2828 17.5016,29.3599 17.4084,29.4169 17.3031,29.4522 17.1871,29.4639 17.0709,29.4522 16.9649,29.4169 16.8710,29.3599 16.7907,29.2828 16.7256,29.1864 16.6771,29.0714 16.6470,28.9395 16.6370,28.7924 16.8054,28.7924 16.8122,28.9064 16.8328,29.0097 16.8658,29.1005 16.9101,29.1771 16.9652,29.2385 17.0305,29.2838 17.1049,29.3117 17.1871,29.3210 17.2691,29.3117 17.3428,29.2838 17.4074,29.2385 17.4622,29.1771 17.5065,29.1005 17.5396,29.0097 17.5601,28.9064 17.5670,28.7924 17.5601,28.6788 17.5396,28.5770 17.5065,28.4884 17.4622,28.4145 17.3428,28.3117 17.2691,28.2846 17.1871,28.2755 17.1049,28.2846 17.0305,28.3117 16.9101,28.4145 16.8658,28.4884 16.8328,28.5770 16.8122,28.6788 16.8054,28.7924 16.6370,28.7924 16.6470,28.6458 16.6771,28.5153 16.7256,28.4023 16.7907,28.3078 16.8710,28.2327 16.9649,28.1776 17.0709,28.1438 17.1871,28.1326 Z"/> 
<path style="fill:#5b2379; fill-opacity:1.0000; stroke:#5b2379;fill-rule:evenodd;;stroke-width:0.05" d="M 16.4843,28.1580 16.4774,28.1590 16.4725,28.1600 16.0790,28.6377 16.0712,28.6406 16.0633,28.6397 16.0614,28.6514 16.0702,28.6514 16.0790,28.6553 16.5352,29.4345 16.5391,29.4375 16.5450,29.4385 16.5391,29.4482 16.5352,29.4434 16.5313,29.4404 16.3609,29.4404 16.3580,29.4424 16.3570,29.4482 16.3472,29.4424 16.3521,29.4385 16.3531,29.4345 15.9772,28.7826 15.9752,28.7728 15.9772,28.7630 15.9655,28.7611 15.9674,28.7708 15.9655,28.7806 15.7579,29.0254 15.7442,29.0234 15.7403,29.0351 15.7521,29.0430 15.7521,29.4345 15.7550,29.4385 15.7599,29.4404 15.7521,29.4482 15.7501,29.4434 15.7462,29.4404 15.5935,29.4404 15.5896,29.4434 15.5876,29.4482 15.5798,29.4404 15.5847,29.4385 15.5876,29.4345 15.5876,28.1620 15.5847,28.1580 15.5798,28.1561 15.5876,28.1482 15.5896,28.1531 15.5935,28.1561 15.7462,28.1561 15.7501,28.1531 15.7521,28.1482 15.7599,28.1561 15.7550,28.1580 15.7521,28.1620 15.7521,28.7708 15.7462,28.7982 15.7364,28.8257 15.7481,28.8296 15.7569,28.8012 15.7716,28.7767 16.2865,28.1600 16.2826,28.1541 16.2924,28.1482 16.2934,28.1541 16.2963,28.1561 16.4706,28.1561 16.4745,28.1531 16.4784,28.1482 Z"/> 
<path style="fill:#5b2379; fill-opacity:1.0000; stroke:#5b2379;fill-rule:evenodd;;stroke-width:0.05" d="M 14.2602,28.1561 14.2553,28.1580 14.2524,28.1620 14.2524,28.2873 14.2553,28.2912 14.2602,28.2931 14.2524,28.3010 14.2504,28.2961 14.2465,28.2931 13.7061,28.2931 13.6816,28.2853 13.6611,28.2677 13.6513,28.2775 13.6689,28.2980 13.6768,28.3225 13.6768,28.6671 13.6689,28.6915 13.6513,28.7121 13.6611,28.7219 13.6816,28.7043 13.7061,28.6964 14.1564,28.6964 14.1603,28.6935 14.1623,28.6886 14.1701,28.6964 14.1652,28.6984 14.1623,28.7023 14.1623,28.8296 14.1652,28.8335 14.1701,28.8354 14.1623,28.8433 14.1603,28.8384 14.1564,28.8354 13.7061,28.8354 13.6816,28.8276 13.6611,28.8100 13.6513,28.8198 13.6689,28.8403 13.6768,28.8648 13.6768,29.2720 13.6689,29.2965 13.6513,29.3171 13.6611,29.3269 13.6816,29.3092 13.7061,29.3014 14.2661,29.3014 14.2700,29.2985 14.2719,29.2936 14.2798,29.3014 14.2749,29.3034 14.2719,29.3073 14.2719,29.4345 14.2749,29.4385 14.2798,29.4404 14.2719,29.4482 14.2700,29.4434 14.2661,29.4404 13.5182,29.4404 13.5143,29.4434 13.5123,29.4482 13.5045,29.4404 13.5094,29.4385 13.5123,29.4345 13.5123,28.1620 13.5094,28.1580 13.5045,28.1561 13.5123,28.1482 13.5143,28.1531 13.5182,28.1561 14.2465,28.1561 14.2504,28.1531 14.2524,28.1482 Z"/> 
<path style="fill:#5b2379; fill-opacity:1.0000; stroke:#5b2379;fill-rule:evenodd;;stroke-width:0.05" d="M 11.7187,28.1605 11.8041,28.1737 11.9441,28.2285 12.0351,28.3254 12.0674,28.4693 12.0552,28.5552 12.0185,28.6328 11.9568,28.6972 11.8697,28.7434 11.8413,28.7473 11.8129,28.7493 11.8129,28.7611 11.8423,28.7571 11.8716,28.7591 11.9859,28.8000 12.0704,28.8638 12.1225,28.9517 12.1399,29.0645 12.1310,29.1526 12.1046,29.2290 12.0048,29.3464 11.9340,29.3876 11.8511,29.4169 11.7573,29.4345 11.6543,29.4404 11.3900,29.4404 11.2432,29.4404 11.2432,28.8080 11.3822,28.8080 11.3998,28.8296 11.4076,28.8550 11.4076,29.2818 11.3998,29.3073 11.3822,29.3288 11.3900,29.3367 11.4115,29.3190 11.4370,29.3112 11.6308,29.3112 11.7784,29.2958 11.8883,29.2495 11.9566,29.1705 11.9793,29.0567 11.9570,28.9532 11.8902,28.8815 11.7808,28.8396 11.6308,28.8257 11.4370,28.8257 11.4115,28.8178 11.3920,28.8018 11.3900,28.8002 11.3822,28.8080 11.2432,28.8080 11.2432,28.2696 11.3841,28.2696 11.4008,28.2902 11.4076,28.3147 11.4076,28.6749 11.4008,28.6994 11.3841,28.7199 11.3920,28.7278 11.4125,28.7111 11.4370,28.7043 11.5975,28.7043 11.7390,28.6901 11.8344,28.6475 11.8888,28.5780 11.9069,28.4830 11.8878,28.3922 11.8305,28.3313 11.7361,28.2968 11.6054,28.2853 11.4370,28.2853 11.4125,28.2784 11.3920,28.2618 11.3841,28.2696 11.2432,28.2696 11.2432,28.1561 11.6249,28.1561 Z"/> 
<path style="fill:#5b2379; fill-opacity:1.0000; stroke:#5b2379;fill-rule:evenodd;;stroke-width:0.05" d="M 9.2665,28.1771 9.3490,28.2050 9.4229,28.2518 9.4860,28.3176 9.5374,28.4023 9.5761,28.5056 9.6003,28.6277 9.6084,28.7689 9.5986,28.9429 9.5692,29.0890 9.5232,29.2089 9.4635,29.3043 9.3923,29.3763 9.3118,29.4257 9.2244,29.4544 9.1326,29.4639 9.0394,29.4549 8.9594,29.4277 8.8350,29.3367 8.8311,29.3367 8.8272,29.3386 8.8272,29.3269 8.8311,29.3288 8.8350,29.3288 8.9173,29.2348 8.9173,29.2309 8.9153,29.2270 8.9271,29.2270 8.9241,29.2309 8.9231,29.2348 9.0161,29.3053 9.1268,29.3308 9.2491,29.3043 9.3509,29.2192 9.3911,29.1511 9.4234,29.0645 9.4461,28.9578 9.4576,28.8296 9.4635,28.7963 9.4752,28.7630 9.4655,28.7591 9.4518,28.7924 9.4341,28.8217 9.3737,28.8775 9.3059,28.9196 9.1914,28.9481 9.1639,28.9549 9.0181,28.9309 8.9055,28.8589 8.8522,28.7841 8.8202,28.6875 8.8096,28.5692 8.9603,28.5692 8.9745,28.6793 9.0171,28.7630 9.0891,28.8159 9.1914,28.8335 9.3176,28.7973 9.3840,28.7486 9.4478,28.6749 9.4615,28.6749 9.4655,28.6632 9.4576,28.6612 9.4537,28.6573 9.4229,28.5007 9.3656,28.3871 9.2834,28.3181 9.1777,28.2951 9.0925,28.3147 9.0230,28.3705 8.9770,28.4566 8.9603,28.5692 8.8096,28.5692 8.8169,28.4833 8.8389,28.4057 8.9182,28.2794 9.0357,28.1972 9.1777,28.1678 Z"/> 
<path style="fill:#5b2379; fill-opacity:1.0000; stroke:#5b2379;fill-rule:evenodd;;stroke-width:0.05" d="M 12.3865,28.1522 12.3905,28.1561 12.7879,28.1561 12.8819,28.1607 12.9680,28.1747 13.1100,28.2364 13.2030,28.3479 13.2279,28.4243 13.2362,28.5163 13.2189,28.6441 13.1667,28.7454 13.0848,28.8213 12.9778,28.8726 12.9504,28.8717 12.9230,28.8629 12.9191,28.8746 12.9641,28.9059 13.2715,29.4345 13.2764,29.4375 13.2832,29.4385 13.2774,29.4482 13.2734,29.4434 13.2695,29.4404 13.0953,29.4404 13.0923,29.4424 13.0914,29.4482 13.0816,29.4424 13.0855,29.4385 13.0855,29.4345 12.7879,28.9098 12.7918,28.8883 12.7820,28.8824 12.7664,28.8981 12.5784,28.8981 12.5530,28.8903 12.5314,28.8726 12.5236,28.8805 12.5412,28.9020 12.5490,28.9275 12.5490,29.4345 12.5530,29.4385 12.5588,29.4404 12.5490,29.4502 12.5471,29.4443 12.5432,29.4404 12.3905,29.4404 12.3865,29.4443 12.3846,29.4502 12.3748,29.4404 12.3807,29.4385 12.3846,29.4345 12.3846,28.2696 12.5236,28.2696 12.5412,28.2912 12.5490,28.3166 12.5490,28.7356 12.5412,28.7611 12.5236,28.7826 12.5314,28.7904 12.5530,28.7728 12.5784,28.7650 12.7644,28.7650 12.8973,28.7495 12.9944,28.7033 13.0539,28.6257 13.0737,28.5163 13.0539,28.4082 12.9944,28.3382 12.8973,28.3000 12.7644,28.2873 12.5784,28.2873 12.5530,28.2794 12.5314,28.2618 12.5236,28.2696 12.3846,28.2696 12.3846,28.1620 12.3807,28.1580 12.3748,28.1561 12.3846,28.1463 Z"/> 
<path style="fill:#5b2379; fill-opacity:1.0000; stroke:#5b2379;fill-rule:evenodd;;stroke-width:0.05" d="M 10.5286,28.1913 10.5237,28.1933 10.5207,28.1972 10.5207,28.3245 10.5237,28.3284 10.5286,28.3303 10.5207,28.3382 10.5188,28.3333 10.5149,28.3303 10.0704,28.3303 10.0420,28.3215 10.0195,28.3010 10.0097,28.3088 10.0274,28.3342 10.0332,28.3636 10.0078,28.6671 9.9980,28.6974 9.9804,28.7258 9.9902,28.7317 10.0097,28.7043 10.0332,28.6847 10.1096,28.6592 10.1957,28.6495 10.3465,28.6729 10.4698,28.7444 10.5530,28.8658 10.5758,28.9463 10.5834,29.0410 10.5746,29.1370 10.5481,29.2211 10.5070,29.2933 10.4542,29.3533 10.3201,29.4355 10.1624,29.4639 10.0274,29.4502 9.9177,29.4130 9.8296,29.3592 9.7572,29.2975 9.7542,29.2975 9.7493,29.2995 9.7474,29.2877 9.7533,29.2897 9.7572,29.2897 9.8277,29.1918 9.8277,29.1888 9.8257,29.1839 9.8374,29.1820 9.8355,29.1879 9.8355,29.1918 9.9647,29.2887 10.0464,29.3203 10.1468,29.3308 10.2535,29.3102 10.3406,29.2525 10.3993,29.1624 10.4209,29.0449 10.4028,28.9299 10.3484,28.8433 10.2638,28.7889 10.1546,28.7708 10.0460,28.7904 9.9451,28.8452 9.9451,28.8482 9.9471,28.8531 9.9353,28.8531 9.9373,28.8482 9.9373,28.8452 9.8590,28.7943 9.8531,28.8002 9.8472,28.7885 9.8521,28.7885 9.8551,28.7865 9.8962,28.1972 9.8932,28.1933 9.8883,28.1913 9.8962,28.1835 9.8981,28.1884 9.9021,28.1913 10.5149,28.1913 10.5188,28.1884 10.5207,28.1835 Z"/> 
<path style="fill:#5b2379; fill-opacity:1.0000; stroke:#5b2379;fill-rule:evenodd;;stroke-width:0.05" d="M 7.4274,28.1923 7.5380,28.2608 7.6085,28.3665 7.6329,28.5007 7.6214,28.5856 7.5869,28.6641 7.4880,28.7885 7.4587,28.8012 7.4254,28.8061 7.4274,28.8178 7.4597,28.8168 7.4900,28.8276 7.5615,28.8795 7.6212,28.9451 7.6623,29.0283 7.6780,29.1311 7.6496,29.2623 7.5683,29.3680 7.4411,29.4385 7.3623,29.4575 7.2786,29.4636 7.2746,29.4639 7.1897,29.4575 7.1112,29.4385 6.9819,29.3670 6.8968,29.2583 6.8655,29.1213 6.8681,29.1056 7.0103,29.1056 7.0309,29.2016 7.0877,29.2769 7.1728,29.3269 7.2786,29.3445 7.3777,29.3293 7.4557,29.2838 7.5064,29.2138 7.5233,29.1252 7.4969,29.0244 7.4254,28.9490 7.3588,28.9111 7.3207,28.8893 7.1944,28.8374 7.1885,28.8217 7.1768,28.8217 7.1777,28.8315 7.1748,28.8394 7.1090,28.8942 7.0563,28.9568 7.0103,29.1056 6.8681,29.1056 6.8831,29.0165 6.9291,28.9275 6.9947,28.8531 7.0710,28.7943 7.1024,28.7836 7.1356,28.7845 7.1356,28.7728 7.1024,28.7679 7.0730,28.7552 6.9692,28.6426 6.9369,28.5714 6.9261,28.4889 7.0749,28.4889 7.0975,28.5839 7.1582,28.6553 7.2472,28.7101 7.3530,28.7552 7.3569,28.7620 7.3588,28.7708 7.3706,28.7689 7.3706,28.7513 7.4616,28.6357 7.4939,28.5085 7.4797,28.4221 7.4371,28.3509 7.3686,28.3032 7.2766,28.2873 7.1963,28.3010 7.1317,28.3421 7.0891,28.4062 7.0749,28.4889 6.9261,28.4889 6.9536,28.3577 7.0280,28.2569 7.1396,28.1913 7.2805,28.1678 Z"/> 
<path style="fill:#5b2379; fill-opacity:1.0000; stroke:#5b2379;fill-rule:evenodd;;stroke-width:0.05" d="M 8.5139,28.1933 8.5091,28.1943 8.5061,28.1952 8.5061,28.9314 8.4973,28.9617 8.4768,28.9882 8.4846,28.9960 8.5110,28.9754 8.5414,28.9666 8.6725,28.9666 8.6735,28.9637 8.6745,28.9588 8.6843,28.9686 8.6794,28.9696 8.6764,28.9705 8.6764,29.0919 8.6794,29.0929 8.6843,29.0939 8.6745,29.1037 8.6735,29.0988 8.6725,29.0958 8.5414,29.0958 8.5110,29.0870 8.4846,29.0665 8.4768,29.0743 8.4973,29.1007 8.5061,29.1311 8.5061,29.4365 8.5091,29.4375 8.5139,29.4385 8.5042,29.4482 8.5032,29.4434 8.5022,29.4404 8.3573,29.4404 8.3563,29.4434 8.3554,29.4482 8.3456,29.4385 8.3505,29.4375 8.3534,29.4365 8.3534,29.1311 8.3622,29.1007 8.3828,29.0743 8.3749,29.0665 8.3485,29.0870 8.3182,29.0958 7.7954,29.0958 7.7944,29.0988 7.7935,29.1037 7.7837,29.0939 7.7886,29.0929 7.7915,29.0919 7.7915,28.9940 7.7856,28.9940 7.7896,28.9823 7.7915,28.9852 7.7935,28.9862 7.7987,28.9784 7.9286,28.9784 7.9344,28.9882 7.9648,28.9735 7.9971,28.9666 8.3182,28.9666 8.3485,28.9754 8.3749,28.9960 8.3828,28.9882 8.3622,28.9617 8.3534,28.9314 8.3534,28.6044 8.3544,28.5046 8.3593,28.3989 8.3671,28.3656 8.3769,28.3323 8.3652,28.3284 8.3563,28.3626 8.3436,28.3949 8.2986,28.4664 8.2536,28.5398 7.9814,28.9373 7.9569,28.9607 7.9286,28.9784 7.7987,28.9784 8.3240,28.1952 8.3182,28.1894 8.3299,28.1854 8.3299,28.1894 8.3299,28.1913 8.5022,28.1913 8.5032,28.1884 8.5042,28.1835 Z"/> 
<path style="fill:#5b2379; fill-opacity:1.0000; stroke:#5b2379;fill-rule:evenodd;;stroke-width:0.05" d="M 17.9153,4.4498 18.4932,4.4498 18.4932,4.6467 17.9153,4.6467 17.9153,5.2658 17.7090,5.2658 17.7090,4.6467 17.1311,4.6467 17.1311,4.4498 17.7090,4.4498 17.7090,3.8307 17.9153,3.8307 Z"/> 
</g><g style="fill:#5b2379;  stroke:#5b2379; stroke-width:0.05; stroke-opacity:1;  stroke-linecap:round; stroke-linejoin:round;">
<path d="M17.1621 18.6483 L17.4621 18.6483 " stroke="#5b2379" fill="#5b2379" stroke-width="0.05"/>
<path d="M17.1621 19.4482 L17.4621 19.4482 " stroke="#5b2379" fill="#5b2379" stroke-width="0.05"/>
<path d="M13.9621 14.6482 L13.6621 14.6482 " stroke="#5b2379" fill="#5b2379" stroke-width="0.05"/>
<path d="M13.9621 15.4482 L13.6621 15.4482 " stroke="#5b2379" fill="#5b2379" stroke-width="0.05"/>
<path d="M12.1621 16.5182 L12.4621 16.5182 " stroke="#5b2379" fill="#5b2379" stroke-width="0.05"/>
<path d="M12.1621 17.3182 L12.4621 17.3182 " stroke="#5b2379" fill="#5b2379" stroke-width="0.05"/>
<path style="fill:#5b2379; fill-opacity:1.0000; stroke:#5b2379;fill-rule:evenodd;;stroke-width:0.05" d="M 9.8601,35.0062 9.9386,35.0257 10.0033,35.0584 10.0683,35.1276 10.0899,35.2180 10.0673,35.3084 10.0026,35.3769 9.9009,35.4206 9.8378,35.4324 9.7676,35.4364 9.6362,35.4215 9.5372,35.3769 9.4751,35.3074 9.4544,35.2180 9.4751,35.1276 9.5372,35.0584 9.6362,35.0143 9.7676,34.9996 Z"/> 
<path style="fill:#5b2379; fill-opacity:1.0000; stroke:#5b2379;fill-rule:evenodd;;stroke-width:0.05" d="M 10.5322,34.2014 10.5322,35.2180 10.5322,35.6638 10.5322,38.5503 9.0121,38.5503 9.0121,35.6638 9.0121,35.2180 9.2631,35.2180 9.2716,35.3131 9.2970,35.3995 9.3384,35.4757 9.3949,35.5403 9.4664,35.5924 9.5530,35.6314 9.6537,35.6557 9.7676,35.6638 9.8817,35.6557 9.9830,35.6314 10.0707,35.5924 10.1441,35.5403 10.2027,35.4757 10.2458,35.3995 10.2723,35.3131 10.2812,35.2180 10.2723,35.1229 10.2458,35.0365 10.2027,34.9603 10.1441,34.8957 10.0707,34.8436 9.9830,34.8046 9.8817,34.7803 9.7676,34.7722 9.6539,34.7803 9.5538,34.8046 9.4675,34.8436 9.3956,34.8957 9.3386,34.9603 9.2970,35.0365 9.2716,35.1229 9.2631,35.2180 9.0121,35.2180 9.0121,33.8069 9.2721,33.8069 9.2812,33.8234 9.2812,34.0162 9.2721,34.0328 9.2752,34.0358 9.2917,34.0267 9.8309,34.0267 9.9536,34.0382 10.0327,34.0727 10.0756,34.1278 10.0899,34.2014 10.0756,34.2745 10.0327,34.3279 9.9536,34.3607 9.8309,34.3716 9.2917,34.3716 9.2752,34.3626 9.2721,34.3656 9.2812,34.3822 9.2812,34.5825 9.2721,34.5990 9.2752,34.6020 9.2917,34.5930 9.8083,34.5930 9.9234,34.5867 10.0218,34.5680 10.1034,34.5367 10.1682,34.4928 10.2310,34.4160 10.2686,34.3188 10.2812,34.2014 10.2686,34.0842 10.2310,33.9876 10.1682,33.9115 10.1034,33.8684 10.0218,33.8375 9.9234,33.8190 9.8083,33.8129 9.2917,33.8129 9.2752,33.8038 9.2721,33.8069 9.0121,33.8069 9.0121,32.9002 9.2721,32.9002 9.2812,32.9168 9.2812,33.6578 9.2721,33.6743 9.2752,33.6773 9.2917,33.6683 9.4574,33.6683 9.4740,33.6773 9.4770,33.6743 9.4679,33.6578 9.4679,33.4424 9.4589,33.4010 9.4348,33.3656 9.4363,33.3641 9.4717,33.3882 9.5131,33.3972 10.2526,33.3972 10.2691,33.4063 10.2721,33.4032 10.2631,33.3867 10.2631,33.1864 10.2721,33.1698 10.2691,33.1668 10.2526,33.1758 9.5131,33.1758 9.4717,33.1849 9.4363,33.2090 9.4348,33.2060 9.4589,33.1721 9.4679,33.1306 9.4679,32.9168 9.4770,32.9002 9.4740,32.8972 9.4574,32.9063 9.2917,32.9063 9.2752,32.8972 9.2721,32.9002 9.0121,32.9002 9.0121,32.8972 9.0121,32.6462 9.0158,32.5717 9.0267,32.4979 9.0448,32.4256 9.0700,32.3554 9.1018,32.2879 9.1402,32.2240 9.1846,32.1640 9.2347,32.1088 9.2900,32.0587 9.3499,32.0143 9.4139,31.9759 9.4813,31.9440 9.5515,31.9189 9.6239,31.9008 9.6976,31.8898 9.7721,31.8862 9.8466,31.8898 9.9204,31.9008 9.9928,31.9189 10.0630,31.9440 10.1304,31.9759 10.1944,32.0143 10.2543,32.0587 10.3096,32.1088 10.3597,32.1640 10.4041,32.2240 10.4424,32.2879 10.4743,32.3554 10.4995,32.4256 10.5176,32.4979 10.5285,32.5717 10.5322,32.6462 10.5322,32.8972 10.5322,33.1698 Z"/> 
<path style="fill:#5b2379;  stroke:#5b2379; stroke-width:0.05; stroke-opacity:1;  stroke-linecap:round; stroke-linejoin:round;fill:none" d="M 12.6621,13.5482 22.6621,13.5482 22.6621,6.5482 12.6621,6.5482 Z"/> 
</g><g style="fill:#5b2379;  stroke:#5b2379; stroke-width:0.05; stroke-opacity:1;  stroke-linecap:round; stroke-linejoin:round;">
<path d="M6.6721 21.6282 L7.6721 21.6282 " stroke="#5b2379" fill="#5b2379" stroke-width="0.05"/>
<path d="M6.6721 22.5282 L6.6721 21.6282 " stroke="#5b2379" fill="#5b2379" stroke-width="0.05"/>
<path d="M6.6721 24.6282 L6.6721 23.7282 " stroke="#5b2379" fill="#5b2379" stroke-width="0.05"/>
<path d="M7.6721 24.6282 L6.6721 24.6282 " stroke="#5b2379" fill="#5b2379" stroke-width="0.05"/>
<path d="M15.1621 16.5182 L15.4621 16.5182 " stroke="#5b2379" fill="#5b2379" stroke-width="0.05"/>
<path d="M15.1621 17.3182 L15.4621 17.3182 " stroke="#5b2379" fill="#5b2379" stroke-width="0.05"/>
<path d="M10.8121 18.0482 L13.8121 18.0482 " stroke="#5b2379" fill="#5b2379" stroke-width="0.05"/>
<path d="M13.8121 21.0482 L10.8121 21.0482 " stroke="#5b2379" fill="#5b2379" stroke-width="0.05"/>
</g><g style="fill:#5b2379;  stroke:#5b2379; stroke-width:0.05; stroke-opacity:1;  stroke-linecap:round; stroke-linejoin:round;">
<circle cx="9.2121" cy="18.5482" r="0.2270" stroke="#5b2379" fill="#5b2379" stroke-width="0.05"/> 
<path style="fill:#5b2379; fill-opacity:1.0000; stroke:#5b2379;fill-rule:evenodd;;stroke-width:0.05" d="M 15.6122,34.2782 15.6122,35.0930 15.6122,35.6652 15.6122,38.5518 14.0921,38.5518 14.0921,35.6652 14.0921,35.0282 14.3521,35.0282 14.3536,35.0312 14.3717,35.0267 14.8190,35.1396 14.8811,35.1556 14.9410,35.1705 15.0615,35.2014 15.1345,35.2149 15.2091,35.2195 15.2091,35.2225 15.1345,35.2270 15.0615,35.2405 14.9410,35.2714 14.8811,35.2863 14.8190,35.3023 14.3717,35.4183 14.3536,35.4137 14.3521,35.4152 14.3612,35.4318 14.3612,35.6457 14.3589,35.6555 14.3536,35.6637 14.3567,35.6652 14.3717,35.6532 15.3431,35.3595 15.3431,35.0930 14.3717,34.7993 14.3567,34.7872 14.3536,34.7887 14.3589,34.7970 14.3612,34.8068 14.3612,35.0131 14.3521,35.0282 14.0921,35.0282 14.0921,34.2722 14.3431,34.2722 14.3518,34.3646 14.3777,34.4521 14.4203,34.5320 14.4786,34.6012 14.5523,34.6587 14.6405,34.7029 14.7428,34.7311 14.8582,34.7405 14.9743,34.7315 15.0758,34.7044 15.1622,34.6615 15.2332,34.6050 15.2887,34.5365 15.3288,34.4574 15.3531,34.3704 15.3612,34.2782 15.3525,34.1912 15.3265,34.1110 15.2836,34.0384 15.2241,33.9740 15.2181,33.9559 15.2151,33.9559 15.2091,33.9740 15.0901,34.0809 15.0720,34.0869 15.0720,34.0899 15.0901,34.0960 15.1481,34.1743 15.1699,34.2752 15.1490,34.3727 15.0863,34.4484 15.0230,34.4844 14.9444,34.5059 14.8506,34.5131 14.7806,34.5084 14.7181,34.4943 14.6187,34.4423 14.5562,34.3648 14.5344,34.2692 14.5524,34.1826 14.6006,34.1110 14.6187,34.1050 14.6187,34.1020 14.6006,34.0960 14.4786,33.9890 14.4726,33.9710 14.4696,33.9710 14.4636,33.9890 14.4184,34.0444 14.3793,34.1110 14.3521,34.1875 14.3431,34.2722 14.0921,34.2722 14.0921,33.3987 14.3431,33.3987 14.3518,33.4911 14.3777,33.5786 14.4203,33.6585 14.4786,33.7277 14.5523,33.7852 14.6405,33.8294 14.7428,33.8576 14.8582,33.8670 14.9743,33.8580 15.0758,33.8309 15.1622,33.7880 15.2332,33.7315 15.2887,33.6630 15.3288,33.5839 15.3531,33.4969 15.3612,33.4047 15.3525,33.3177 15.3265,33.2375 15.2836,33.1649 15.2241,33.1005 15.2181,33.0824 15.2151,33.0824 15.2091,33.1005 15.0901,33.2074 15.0720,33.2134 15.0720,33.2164 15.0901,33.2225 15.1481,33.3008 15.1699,33.4017 15.1490,33.4992 15.0863,33.5749 15.0230,33.6109 14.9444,33.6324 14.8506,33.6396 14.7806,33.6349 14.7181,33.6208 14.6187,33.5689 14.5562,33.4913 14.5344,33.3957 14.5524,33.3091 14.6006,33.2375 14.6187,33.2315 14.6187,33.2285 14.6006,33.2225 14.4786,33.1155 14.4726,33.0975 14.4696,33.0975 14.4636,33.1155 14.4184,33.1709 14.3793,33.2375 14.3521,33.3140 14.3431,33.3987 14.0921,33.3987 14.0921,33.0824 14.0921,32.8314 14.8521,32.3247 15.6122,32.8314 15.6122,33.0824 15.6122,33.4047 Z"/> 
</g><g style="fill:#5b2379;  stroke:#5b2379; stroke-width:0.05; stroke-opacity:1;  stroke-linecap:round; stroke-linejoin:round;">
<path d="M6.6121 15.9982 L6.6121 15.6982 " stroke="#5b2379" fill="#5b2379" stroke-width="0.05"/>
<path d="M7.4121 15.9982 L7.4121 15.6982 " stroke="#5b2379" fill="#5b2379" stroke-width="0.05"/>
<path style="fill:#5b2379;  stroke:#5b2379; stroke-width:0.05; stroke-opacity:1;  stroke-linecap:round; stroke-linejoin:round;fill:none" d="M 1.9621,13.5482 11.9621,13.5482 11.9621,6.5482 1.9621,6.5482 Z"/> 
<path style="fill:#5b2379; fill-opacity:1.0000; stroke:#5b2379;fill-rule:evenodd;;stroke-width:0.05" d="M 12.3882,33.1312 12.4552,33.1464 12.5524,33.2029 12.6066,33.2895 12.6239,33.4017 12.6329,33.4431 12.6570,33.4770 12.6540,33.4800 12.6201,33.4559 12.5787,33.4469 12.0456,33.4469 12.0042,33.4559 11.9688,33.4800 11.9673,33.4770 11.9914,33.4431 12.0004,33.4017 12.0162,33.2895 12.0674,33.2029 12.1615,33.1464 12.2274,33.1312 12.3076,33.1261 Z"/> 
<path style="fill:#5b2379; fill-opacity:1.0000; stroke:#5b2379;fill-rule:evenodd;;stroke-width:0.05" d="M 13.0722,34.1201 13.0722,35.1864 13.0722,35.6623 13.0722,38.5488 11.5521,38.5488 11.5521,35.6623 11.5521,35.1788 11.8031,35.1788 11.8118,35.2754 11.8377,35.3663 11.8803,35.4488 11.9386,35.5199 12.0123,35.5787 12.1005,35.6239 12.2028,35.6527 12.3182,35.6623 12.4343,35.6530 12.5358,35.6254 12.6222,35.5815 12.6932,35.5237 12.7487,35.4535 12.7888,35.3723 12.8131,35.2826 12.8212,35.1864 12.8127,35.0907 12.7873,35.0026 12.7506,34.9258 12.7082,34.8641 12.7082,34.8475 12.7052,34.8460 12.6917,34.8565 12.2609,34.8565 12.2444,34.8475 12.2414,34.8505 12.2504,34.8671 12.2504,35.2059 12.2414,35.2225 12.2444,35.2255 12.2609,35.2165 12.4206,35.2165 12.4371,35.2255 12.4402,35.2225 12.4311,35.2059 12.4311,35.0990 12.4221,35.0576 12.3980,35.0222 12.3995,35.0207 12.4349,35.0448 12.4763,35.0538 12.5546,35.0538 12.5930,35.0425 12.6224,35.0147 12.6239,35.0162 12.6133,35.0553 12.6209,35.0945 12.6299,35.1577 12.6090,35.2799 12.5463,35.3663 12.4830,35.4044 12.4044,35.4272 12.3106,35.4348 12.2406,35.4300 12.1781,35.4153 12.0787,35.3618 12.0162,35.2797 11.9944,35.1758 12.0124,35.0764 12.0606,35.0026 12.0787,34.9966 12.0787,34.9936 12.0606,34.9876 11.9386,34.8806 11.9326,34.8626 11.9296,34.8626 11.9236,34.8806 11.8784,34.9364 11.8393,35.0041 11.8121,35.0847 11.8031,35.1788 11.5521,35.1788 11.5521,34.4258 11.8106,34.4258 11.8212,34.4409 11.8212,34.6472 11.8121,34.6638 11.8152,34.6668 11.8317,34.6577 12.7926,34.6577 12.8091,34.6668 12.8121,34.6638 12.8031,34.6472 12.8031,34.4559 12.8121,34.4394 12.8091,34.4364 12.7926,34.4454 12.4552,34.4454 12.3777,34.4475 12.2986,34.4537 12.2203,34.4618 12.1450,34.4695 12.1005,34.4770 12.0561,34.4876 12.0561,34.4845 12.0990,34.4710 12.1405,34.4544 12.3136,34.3716 12.7941,34.1201 12.8121,34.1216 12.8136,34.1201 12.8031,34.1050 12.8031,33.8987 12.8121,33.8821 12.8091,33.8791 12.7926,33.8882 11.8317,33.8882 11.8152,33.8791 11.8121,33.8821 11.8212,33.8987 11.8212,34.0885 11.8121,34.1050 11.8152,34.1080 11.8317,34.0990 12.1676,34.0990 12.2447,34.0969 12.3257,34.0907 12.4059,34.0826 12.4808,34.0749 12.5252,34.0674 12.5697,34.0568 12.5697,34.0598 12.5268,34.0734 12.4853,34.0900 12.3091,34.1743 11.8302,34.4258 11.8121,34.4228 11.8106,34.4258 11.5521,34.4258 11.5521,33.6758 11.8121,33.6758 11.8152,33.6788 11.8317,33.6698 12.7926,33.6698 12.8091,33.6788 12.8121,33.6758 12.8031,33.6592 12.8031,33.3791 12.7956,33.2758 12.7730,33.1826 12.7351,33.1007 12.6819,33.0312 12.6128,32.9751 12.5275,32.9333 12.4258,32.9074 12.3076,32.8987 12.1898,32.9074 12.0893,32.9333 12.0055,32.9755 11.9379,33.0327 11.8861,33.1039 11.8498,33.1879 11.8283,33.2839 11.8212,33.3912 11.8212,33.6592 11.8121,33.6758 11.5521,33.6758 11.5521,32.8987 11.5521,32.6477 13.0722,32.6477 13.0722,32.8987 13.0722,33.6758 Z"/> 
<path style="fill:#5b2379; fill-opacity:1.0000; stroke:#5b2379;fill-rule:evenodd;;stroke-width:0.05" d="M 19.7795,30.8082 19.7972,30.8179 19.8251,30.8335 19.8625,30.8547 19.9088,30.8811 19.9631,30.9121 20.0248,30.9474 20.0931,30.9866 20.1673,31.0292 20.2465,31.0748 20.3302,31.1230 20.4176,31.1734 20.4695,31.2034 20.5594,31.2552 20.6465,31.3053 20.7301,31.3533 20.8093,31.3988 20.8835,31.4411 20.9518,31.4801 21.0134,31.5151 21.0676,31.5457 21.1136,31.5715 21.1506,31.5921 21.1778,31.6070 21.1944,31.6157 21.1986,31.6177 21.2523,31.6366 21.3086,31.6506 21.3712,31.6604 21.4434,31.6665 21.4446,31.6666 21.5275,31.6742 21.6003,31.6872 21.6655,31.7064 21.7259,31.7327 21.7841,31.7668 21.7965,31.7752 21.8675,31.8321 21.9281,31.8965 21.9779,31.9673 22.0168,32.0432 22.0447,32.1230 22.0613,32.2055 22.0665,32.2896 22.0600,32.3740 22.0418,32.4575 22.0117,32.5389 21.9694,32.6170 21.9304,32.6716 21.8714,32.7352 21.8025,32.7907 21.7258,32.8368 21.6430,32.8722 21.6208,32.8794 21.5961,32.8866 21.5747,32.8917 21.5531,32.8951 21.5281,32.8971 21.4964,32.8980 21.4546,32.8984 21.4514,32.8984 21.4074,32.8982 21.3737,32.8973 21.3472,32.8953 21.3245,32.8920 21.3026,32.8869 21.2899,32.8834 21.2036,32.8525 21.1254,32.8114 21.0546,32.7595 20.9903,32.6963 20.9317,32.6211 20.9216,32.6061 20.8742,32.5390 20.8280,32.4840 20.7820,32.4399 20.7527,32.4173 20.7429,32.4110 20.7225,32.3986 20.6925,32.3806 20.6541,32.3576 20.6083,32.3304 20.5563,32.2996 20.4991,32.2657 20.4378,32.2295 20.3735,32.1916 20.3074,32.1526 20.2404,32.1133 20.1738,32.0741 20.1085,32.0358 20.0457,31.9989 19.9865,31.9643 19.9319,31.9324 19.8831,31.9040 19.8411,31.8796 19.8071,31.8600 19.7821,31.8457 19.7713,31.8396 19.7650,31.8427 19.7479,31.8521 19.7206,31.8675 19.6841,31.8883 19.6391,31.9141 19.5864,31.9444 19.5269,31.9787 19.4613,32.0166 19.3906,32.0577 19.3154,32.1013 19.2366,32.1472 19.2113,32.1619 18.6548,32.4862 18.6548,33.4119 19.2997,33.7580 19.3873,33.8051 19.4721,33.8508 19.5533,33.8946 19.6300,33.9360 19.7014,33.9746 19.7666,34.0100 19.8248,34.0417 19.8752,34.0692 19.9169,34.0922 19.9492,34.1100 19.9711,34.1224 19.9818,34.1287 20.0171,34.1556 20.0553,34.1911 20.0931,34.2315 20.1270,34.2734 20.1420,34.2948 20.1720,34.3456 20.2000,34.4041 20.2236,34.4642 20.2369,34.5076 20.2442,34.5469 20.2485,34.5944 20.2497,34.6456 20.2479,34.6959 20.2429,34.7409 20.2371,34.7689 20.2071,34.8529 20.1652,34.9318 20.1125,35.0042 20.0501,35.0686 19.9792,35.1238 19.9275,35.1547 19.8766,35.1820 18.8109,34.5665 17.7453,33.9510 17.7453,31.9707 18.7558,31.3878 18.8639,31.3254 18.9689,31.2649 19.0702,31.2066 19.1671,31.1508 19.2590,31.0980 19.3454,31.0483 19.4256,31.0023 19.4990,30.9602 19.5651,30.9224 19.6231,30.8892 19.6726,30.8610 19.7129,30.8382 19.7433,30.8210 19.7634,30.8098 19.7724,30.8050 19.7729,30.8048 Z"/> 
<path style="fill:#5b2379; fill-opacity:1.0000; stroke:#5b2379;fill-rule:evenodd;;stroke-width:0.05" d="M 19.7433,32.4263 19.7614,32.4358 19.7901,32.4515 19.8287,32.4730 19.8768,32.5000 19.9336,32.5321 19.9986,32.5690 20.0712,32.6103 20.1508,32.6557 20.2368,32.7049 20.3287,32.7576 20.4258,32.8133 20.5275,32.8719 20.6333,32.9328 20.7425,32.9958 20.8133,33.0368 21.8790,33.6527 21.8790,35.6272 20.8643,36.2127 20.7559,36.2752 20.6508,36.3359 20.5494,36.3943 20.4524,36.4502 20.3604,36.5032 20.2739,36.5530 20.1937,36.5991 20.1202,36.6414 20.0542,36.6794 19.9961,36.7127 19.9466,36.7411 19.9063,36.7641 19.8758,36.7815 19.8557,36.7929 19.8466,36.7980 19.8461,36.7982 19.8399,36.7949 19.8227,36.7851 19.7951,36.7695 19.7580,36.7482 19.7121,36.7219 19.6580,36.6909 19.5966,36.6555 19.5285,36.6163 19.4544,36.5736 19.3752,36.5279 19.2914,36.4796 19.2039,36.4291 19.1451,36.3952 19.0540,36.3426 18.9656,36.2918 18.8808,36.2432 18.8003,36.1972 18.7249,36.1543 18.6555,36.1149 18.5927,36.0795 18.5373,36.0485 18.4901,36.0223 18.4520,36.0013 18.4236,35.9861 18.4057,35.9770 18.4008,35.9749 18.3527,35.9598 18.2998,35.9476 18.2475,35.9394 18.2017,35.9364 18.2010,35.9364 18.1037,35.9302 18.0117,35.9121 17.9257,35.8824 17.8465,35.8416 17.7746,35.7900 17.7108,35.7280 17.6558,35.6562 17.6160,35.5868 17.5876,35.5212 17.5684,35.4556 17.5572,35.3855 17.5539,35.3391 17.5564,35.2493 17.5716,35.1627 17.5986,35.0804 17.6368,35.0033 17.6853,34.9325 17.7433,34.8690 17.8102,34.8139 17.8851,34.7680 17.9673,34.7326 18.0187,34.7170 18.0770,34.7059 18.1414,34.7001 18.2067,34.6998 18.2677,34.7052 18.2967,34.7104 18.3824,34.7352 18.4612,34.7707 18.5338,34.8175 18.6011,34.8760 18.6636,34.9467 18.7073,35.0073 18.7235,35.0317 18.7385,35.0535 18.7530,35.0735 18.7679,35.0921 18.7839,35.1100 18.8019,35.1277 18.8227,35.1458 18.8471,35.1649 18.8759,35.1856 18.9100,35.2085 18.9501,35.2342 18.9971,35.2632 19.0518,35.2961 19.1149,35.3336 19.1874,35.3762 19.2700,35.4245 19.3591,35.4765 19.4336,35.5200 19.5048,35.5613 19.5717,35.6002 19.6335,35.6360 19.6894,35.6683 19.7384,35.6965 19.7797,35.7202 19.8124,35.7388 19.8356,35.7519 19.8485,35.7589 19.8509,35.7599 19.8575,35.7566 19.8750,35.7469 19.9026,35.7312 19.9394,35.7102 19.9847,35.6842 20.0377,35.6537 20.0974,35.6192 20.1631,35.5812 20.2340,35.5401 20.3092,35.4964 20.3880,35.4505 20.4098,35.4378 20.9627,35.1157 20.9657,34.1885 20.3131,33.8390 20.2248,33.7916 20.1393,33.7456 20.0575,33.7015 19.9802,33.6596 19.9081,33.6204 19.8422,33.5844 19.7832,33.5520 19.7320,33.5238 19.6895,33.5000 19.6563,33.4813 19.6335,33.4680 19.6218,33.4607 19.6215,33.4605 19.5567,33.4040 19.4997,33.3375 19.4513,33.2628 19.4128,33.1816 19.3850,33.0958 19.3703,33.0188 19.3672,32.9416 19.3768,32.8625 19.3991,32.7828 19.4335,32.7041 19.4438,32.6851 19.4743,32.6388 19.5140,32.5905 19.5596,32.5434 19.6080,32.5010 19.6558,32.4663 19.6684,32.4586 19.6941,32.4440 19.7163,32.4322 19.7318,32.4247 19.7363,32.4232 Z"/> 
<path style="fill:#5b2379; fill-opacity:1.0000; stroke:#5b2379;fill-rule:evenodd;;stroke-width:0.05" d="M 14.0654,26.1561 14.0605,26.1580 14.0575,26.1620 14.0575,27.2720 14.0497,27.2975 14.0321,27.3190 14.0399,27.3269 14.0615,27.3092 14.0869,27.3014 14.6116,27.3014 14.6155,27.2985 14.6175,27.2936 14.6253,27.3014 14.6204,27.3034 14.6175,27.3073 14.6175,27.4345 14.6204,27.4385 14.6253,27.4404 14.6175,27.4482 14.6155,27.4434 14.6116,27.4404 13.8990,27.4404 13.8950,27.4434 13.8931,27.4482 13.8853,27.4404 13.8902,27.4385 13.8931,27.4345 13.8931,26.1620 13.8902,26.1580 13.8853,26.1561 13.8931,26.1482 13.8950,26.1531 13.8990,26.1561 14.0517,26.1561 14.0556,26.1531 14.0575,26.1482 Z"/> 
<path style="fill:#5b2379; fill-opacity:1.0000; stroke:#5b2379;fill-rule:evenodd;;stroke-width:0.05" d="M 2.7941,26.1561 2.7883,26.1590 2.7844,26.1639 2.7844,26.2853 2.7883,26.2902 2.7941,26.2931 2.7844,26.3029 2.7804,26.2961 2.7765,26.2931 2.4241,26.2931 2.3987,26.2853 2.3771,26.2677 2.3693,26.2755 2.3869,26.2970 2.3947,26.3225 2.3947,27.4326 2.3987,27.4375 2.4045,27.4404 2.3947,27.4502 2.3918,27.4443 2.3869,27.4404 2.2401,27.4404 2.2352,27.4443 2.2322,27.4502 2.2225,27.4404 2.2283,27.4375 2.2322,27.4326 2.2322,26.3225 2.2401,26.2970 2.2577,26.2755 2.2499,26.2677 2.2283,26.2853 2.2029,26.2931 1.8505,26.2931 1.8466,26.2961 1.8426,26.3029 1.8329,26.2931 1.8387,26.2902 1.8426,26.2853 1.8426,26.1639 1.8387,26.1590 1.8329,26.1561 1.8426,26.1463 1.8456,26.1522 1.8505,26.1561 2.7765,26.1561 2.7814,26.1522 2.7844,26.1463 Z"/> 
<path style="fill:#5b2379; fill-opacity:1.0000; stroke:#5b2379;fill-rule:evenodd;;stroke-width:0.05" d="M 12.4502,26.1561 12.4443,26.1590 12.4404,26.1639 12.4404,26.9098 12.4316,27.0523 12.4051,27.1702 12.3633,27.2659 12.3082,27.3415 12.2407,27.3978 12.1614,27.4355 12.0730,27.4568 11.9783,27.4639 11.8836,27.4568 11.7953,27.4355 11.7160,27.3978 11.6484,27.3415 11.5934,27.2659 11.5515,27.1702 11.5251,27.0523 11.5163,26.9098 11.5163,26.1639 11.5124,26.1590 11.5065,26.1561 11.5163,26.1463 11.5192,26.1522 11.5241,26.1561 11.6729,26.1561 11.6778,26.1522 11.6807,26.1463 11.6905,26.1561 11.6847,26.1590 11.6807,26.1639 11.6807,26.9138 11.6866,27.0200 11.7042,27.1076 11.7679,27.2329 11.8618,27.3004 11.9783,27.3210 12.0987,27.3004 12.1957,27.2329 12.2603,27.1076 12.2779,27.0200 12.2838,26.9138 12.2838,26.1639 12.2798,26.1590 12.2740,26.1561 12.2838,26.1463 12.2867,26.1522 12.2916,26.1561 12.4325,26.1561 12.4374,26.1522 12.4404,26.1463 Z"/> 
<path style="fill:#5b2379; fill-opacity:1.0000; stroke:#5b2379;fill-rule:evenodd;;stroke-width:0.05" d="M 12.7771,26.1531 12.7810,26.1561 13.1707,26.1561 13.2720,26.1610 13.3645,26.1757 13.4460,26.2014 13.5143,26.2393 13.6102,26.3558 13.6359,26.4365 13.6444,26.5339 13.6359,26.6289 13.6102,26.7101 13.5133,26.8335 13.4445,26.8763 13.3635,26.9069 13.2717,26.9253 13.1707,26.9314 12.9690,26.9314 12.9435,26.9236 12.9220,26.9059 12.9142,26.9138 12.9318,26.9353 12.9396,26.9607 12.9396,27.4345 12.9426,27.4385 12.9475,27.4404 12.9396,27.4482 12.9377,27.4434 12.9338,27.4404 12.7810,27.4404 12.7771,27.4434 12.7752,27.4482 12.7673,27.4404 12.7722,27.4385 12.7752,27.4345 12.7752,26.2696 12.9142,26.2696 12.9318,26.2912 12.9396,26.3166 12.9396,26.7689 12.9318,26.7943 12.9142,26.8159 12.9220,26.8237 12.9435,26.8061 12.9690,26.7982 13.1491,26.7982 13.2972,26.7823 13.4007,26.7346 13.4616,26.6526 13.4819,26.5339 13.4611,26.4162 13.3987,26.3411 13.2947,26.3007 13.1491,26.2873 12.9690,26.2873 12.9435,26.2794 12.9220,26.2618 12.9142,26.2696 12.7752,26.2696 12.7752,26.1620 12.7722,26.1580 12.7673,26.1561 12.7752,26.1482 Z"/> 
<path style="fill:#5b2379; fill-opacity:1.0000; stroke:#5b2379;fill-rule:evenodd;;stroke-width:0.05" d="M 8.4254,26.1441 8.5306,26.1786 8.6238,26.2344 8.7039,26.3098 8.7690,26.4042 8.8174,26.5173 8.8475,26.6473 8.8575,26.7924 8.8475,26.9395 8.8174,27.0714 8.7690,27.1864 8.7039,27.2828 8.6238,27.3599 8.5306,27.4169 8.4254,27.4522 8.3094,27.4639 8.1931,27.4522 8.0871,27.4169 7.9932,27.3599 7.9129,27.2828 7.8478,27.1864 7.7993,27.0714 7.7692,26.9395 7.7592,26.7924 7.9276,26.7924 7.9344,26.9064 7.9550,27.0097 7.9880,27.1005 8.0323,27.1771 8.0874,27.2385 8.1527,27.2838 8.2271,27.3117 8.3094,27.3210 8.3913,27.3117 8.4650,27.2838 8.5296,27.2385 8.5844,27.1771 8.6287,27.1005 8.6618,27.0097 8.6823,26.9064 8.6892,26.7924 8.6823,26.6788 8.6618,26.5770 8.6287,26.4884 8.5844,26.4145 8.4650,26.3117 8.3913,26.2846 8.3094,26.2755 8.2271,26.2846 8.1527,26.3117 8.0323,26.4145 7.9880,26.4884 7.9550,26.5770 7.9344,26.6788 7.9276,26.7924 7.7592,26.7924 7.7692,26.6458 7.7993,26.5153 7.8478,26.4023 7.9129,26.3078 7.9932,26.2327 8.0871,26.1776 8.1931,26.1438 8.3094,26.1326 Z"/> 
<path style="fill:#5b2379; fill-opacity:1.0000; stroke:#5b2379;fill-rule:evenodd;;stroke-width:0.05" d="M 10.8237,26.1441 10.9289,26.1786 11.0222,26.2344 11.1022,26.3098 11.1673,26.4042 11.2158,26.5173 11.2459,26.6473 11.2559,26.7924 11.2459,26.9395 11.2158,27.0714 11.1673,27.1864 11.1022,27.2828 11.0222,27.3599 10.9289,27.4169 10.8237,27.4522 10.7077,27.4639 10.5915,27.4522 10.4855,27.4169 10.3915,27.3599 10.3112,27.2828 10.2461,27.1864 10.1977,27.0714 10.1676,26.9395 10.1575,26.7924 10.3259,26.7924 10.3328,26.9064 10.3533,27.0097 10.3864,27.1005 10.4307,27.1771 10.4857,27.2385 10.5511,27.2838 10.6255,27.3117 10.7077,27.3210 10.7897,27.3117 10.8633,27.2838 10.9280,27.2385 10.9828,27.1771 11.0271,27.1005 11.0601,27.0097 11.0807,26.9064 11.0875,26.7924 11.0807,26.6788 11.0601,26.5770 11.0271,26.4884 10.9828,26.4145 10.8633,26.3117 10.7897,26.2846 10.7077,26.2755 10.6255,26.2846 10.5511,26.3117 10.4307,26.4145 10.3864,26.4884 10.3533,26.5770 10.3328,26.6788 10.3259,26.7924 10.1575,26.7924 10.1676,26.6458 10.1977,26.5153 10.2461,26.4023 10.3112,26.3078 10.3915,26.2327 10.4855,26.1776 10.5915,26.1438 10.7077,26.1326 Z"/> 
<path style="fill:#5b2379; fill-opacity:1.0000; stroke:#5b2379;fill-rule:evenodd;;stroke-width:0.05" d="M 21.1943,26.1441 21.2996,26.1786 21.3928,26.2344 21.4728,26.3098 21.5379,26.4042 21.5864,26.5173 21.6165,26.6473 21.6265,26.7924 21.6165,26.9395 21.5864,27.0714 21.5379,27.1864 21.4728,27.2828 21.3928,27.3599 21.2996,27.4169 21.1943,27.4522 21.0783,27.4639 20.9621,27.4522 20.8561,27.4169 20.7621,27.3599 20.6819,27.2828 20.6168,27.1864 20.5683,27.0714 20.5382,26.9395 20.5282,26.7924 20.6966,26.7924 20.7034,26.9064 20.7240,27.0097 20.7570,27.1005 20.8013,27.1771 20.8564,27.2385 20.9217,27.2838 20.9961,27.3117 21.0783,27.3210 21.1603,27.3117 21.2340,27.2838 21.2986,27.2385 21.3534,27.1771 21.3977,27.1005 21.4307,27.0097 21.4513,26.9064 21.4582,26.7924 21.4513,26.6788 21.4307,26.5770 21.3977,26.4884 21.3534,26.4145 21.2340,26.3117 21.1603,26.2846 21.0783,26.2755 20.9961,26.2846 20.9217,26.3117 20.8013,26.4145 20.7570,26.4884 20.7240,26.5770 20.7034,26.6788 20.6966,26.7924 20.5282,26.7924 20.5382,26.6458 20.5683,26.5153 20.6168,26.4023 20.6819,26.3078 20.7621,26.2327 20.8561,26.1776 20.9621,26.1438 21.0783,26.1326 Z"/> 
<path style="fill:#5b2379; fill-opacity:1.0000; stroke:#5b2379;fill-rule:evenodd;;stroke-width:0.05" d="M 9.7285,26.1438 9.8218,26.1776 9.9013,26.2266 9.9657,26.2833 9.9755,26.2863 9.9853,26.2853 9.9853,26.2970 9.9755,26.2961 9.9657,26.2990 9.8893,26.3871 9.8864,26.3969 9.8874,26.4067 9.8756,26.4067 9.8766,26.3969 9.8737,26.3871 9.7621,26.3059 9.6250,26.2755 9.5372,26.2846 9.4576,26.3117 9.3879,26.3558 9.3294,26.4155 9.2824,26.4901 9.2472,26.5790 9.2251,26.6808 9.2178,26.7943 9.2249,26.9096 9.2462,27.0126 9.2804,27.1024 9.3264,27.1781 9.3837,27.2388 9.4518,27.2838 9.5298,27.3117 9.6172,27.3210 9.7004,27.3122 9.7738,27.2858 9.8404,27.2432 9.9030,27.1859 9.9060,27.1761 9.9050,27.1663 9.9167,27.1663 9.9158,27.1761 9.9187,27.1859 9.9950,27.2701 10.0048,27.2730 10.0146,27.2720 10.0146,27.2838 10.0048,27.2828 9.9950,27.2858 9.9158,27.3606 9.8267,27.4169 9.7263,27.4522 9.6133,27.4639 9.4965,27.4527 9.3891,27.4189 9.2932,27.3638 9.2109,27.2887 9.1436,27.1937 9.0925,27.0792 9.0602,26.9468 9.0494,26.7982 9.0602,26.6514 9.0925,26.5202 9.1441,26.4062 9.2129,26.3107 9.2971,26.2346 9.3950,26.1786 9.5044,26.1441 9.6231,26.1326 Z"/> 
<path style="fill:#5b2379; fill-opacity:1.0000; stroke:#5b2379;fill-rule:evenodd;;stroke-width:0.05" d="M 19.2321,26.1561 19.2272,26.1580 19.2243,26.1620 19.2243,27.4345 19.2272,27.4385 19.2321,27.4404 19.2243,27.4482 19.2223,27.4434 19.2184,27.4404 19.0618,27.4404 19.0588,27.4424 19.0579,27.4482 19.0481,27.4424 19.0520,27.4385 19.0520,27.4345 18.5919,26.6318 18.4705,26.4028 18.4568,26.3665 18.4490,26.3284 18.4372,26.3303 18.4470,26.3685 18.4548,26.4067 18.4585,26.4955 18.4617,26.5858 18.4639,26.6771 18.4646,26.7689 18.4646,27.4345 18.4676,27.4385 18.4725,27.4404 18.4646,27.4482 18.4627,27.4434 18.4588,27.4404 18.3158,27.4404 18.3119,27.4434 18.3100,27.4482 18.3021,27.4404 18.3070,27.4385 18.3100,27.4345 18.3100,26.1620 18.3070,26.1580 18.3021,26.1561 18.3100,26.1482 18.3119,26.1531 18.3158,26.1561 18.4725,26.1561 18.4754,26.1541 18.4764,26.1482 18.4862,26.1541 18.4822,26.1580 18.4822,26.1620 18.9443,26.9627 19.0716,27.1937 19.0872,27.2300 19.0970,27.2681 19.1068,27.2642 19.0970,27.2270 19.0892,27.1898 19.0831,27.0988 19.0764,27.0058 19.0713,26.9123 19.0696,26.8198 19.0696,26.1620 19.0667,26.1580 19.0618,26.1561 19.0696,26.1482 19.0716,26.1531 19.0755,26.1561 19.2184,26.1561 19.2223,26.1531 19.2243,26.1482 Z"/> 
<path style="fill:#5b2379; fill-opacity:1.0000; stroke:#5b2379;fill-rule:evenodd;;stroke-width:0.05" d="M 3.9356,26.1561 3.9307,26.1580 3.9277,26.1620 3.9277,27.4345 3.9307,27.4385 3.9356,27.4404 3.9277,27.4482 3.9258,27.4434 3.9219,27.4404 3.7711,27.4404 3.7672,27.4434 3.7652,27.4482 3.7574,27.4404 3.7623,27.4385 3.7652,27.4345 3.7652,26.8648 3.7731,26.8394 3.7907,26.8178 3.7829,26.8100 3.7613,26.8276 3.7359,26.8354 3.1975,26.8354 3.1720,26.8276 3.1505,26.8100 3.1426,26.8178 3.1603,26.8394 3.1681,26.8648 3.1681,27.4345 3.1710,27.4385 3.1759,27.4404 3.1681,27.4482 3.1661,27.4434 3.1622,27.4404 3.0095,27.4404 3.0056,27.4434 3.0036,27.4482 2.9958,27.4404 3.0007,27.4385 3.0036,27.4345 3.0036,26.1620 3.0007,26.1580 2.9958,26.1561 3.0036,26.1482 3.0056,26.1531 3.0095,26.1561 3.1622,26.1561 3.1661,26.1531 3.1681,26.1482 3.1759,26.1561 3.1710,26.1580 3.1681,26.1620 3.1681,26.6651 3.1603,26.6906 3.1426,26.7121 3.1505,26.7199 3.1720,26.7023 3.1975,26.6945 3.7359,26.6945 3.7613,26.7023 3.7829,26.7199 3.7907,26.7121 3.7731,26.6906 3.7652,26.6651 3.7652,26.1620 3.7623,26.1580 3.7574,26.1561 3.7652,26.1482 3.7672,26.1531 3.7711,26.1561 3.9219,26.1561 3.9258,26.1531 3.9277,26.1482 Z"/> 
<path style="fill:#5b2379; fill-opacity:1.0000; stroke:#5b2379;fill-rule:evenodd;;stroke-width:0.05" d="M 5.0182,26.1561 5.0133,26.1580 5.0104,26.1620 5.0104,26.2873 5.0133,26.2912 5.0182,26.2931 5.0104,26.3010 5.0085,26.2961 5.0045,26.2931 4.4642,26.2931 4.4397,26.2853 4.4191,26.2677 4.4094,26.2775 4.4270,26.2980 4.4348,26.3225 4.4348,26.6671 4.4270,26.6915 4.4094,26.7121 4.4191,26.7219 4.4397,26.7043 4.4642,26.6964 4.9145,26.6964 4.9184,26.6935 4.9204,26.6886 4.9282,26.6964 4.9233,26.6984 4.9204,26.7023 4.9204,26.8296 4.9233,26.8335 4.9282,26.8354 4.9204,26.8433 4.9184,26.8384 4.9145,26.8354 4.4642,26.8354 4.4397,26.8276 4.4191,26.8100 4.4094,26.8198 4.4270,26.8403 4.4348,26.8648 4.4348,27.2720 4.4270,27.2965 4.4094,27.3171 4.4191,27.3269 4.4397,27.3092 4.4642,27.3014 5.0241,27.3014 5.0280,27.2985 5.0300,27.2936 5.0378,27.3014 5.0329,27.3034 5.0300,27.3073 5.0300,27.4345 5.0329,27.4385 5.0378,27.4404 5.0300,27.4482 5.0280,27.4434 5.0241,27.4404 4.2762,27.4404 4.2723,27.4434 4.2704,27.4482 4.2625,27.4404 4.2674,27.4385 4.2704,27.4345 4.2704,26.1620 4.2674,26.1580 4.2625,26.1561 4.2704,26.1482 4.2723,26.1531 4.2762,26.1561 5.0045,26.1561 5.0085,26.1531 5.0104,26.1482 Z"/> 
<path style="fill:#5b2379; fill-opacity:1.0000; stroke:#5b2379;fill-rule:evenodd;;stroke-width:0.05" d="M 15.5827,26.1561 15.5778,26.1580 15.5749,26.1620 15.5749,26.2873 15.5778,26.2912 15.5827,26.2931 15.5749,26.3010 15.5729,26.2961 15.5690,26.2931 15.0286,26.2931 15.0042,26.2853 14.9836,26.2677 14.9738,26.2775 14.9914,26.2980 14.9993,26.3225 14.9993,26.6671 14.9914,26.6915 14.9738,26.7121 14.9836,26.7219 15.0042,26.7043 15.0286,26.6964 15.4789,26.6964 15.4829,26.6935 15.4848,26.6886 15.4926,26.6964 15.4877,26.6984 15.4848,26.7023 15.4848,26.8296 15.4877,26.8335 15.4926,26.8354 15.4848,26.8433 15.4829,26.8384 15.4789,26.8354 15.0286,26.8354 15.0042,26.8276 14.9836,26.8100 14.9738,26.8198 14.9914,26.8403 14.9993,26.8648 14.9993,27.2720 14.9914,27.2965 14.9738,27.3171 14.9836,27.3269 15.0042,27.3092 15.0286,27.3014 15.5886,27.3014 15.5925,27.2985 15.5944,27.2936 15.6023,27.3014 15.5974,27.3034 15.5944,27.3073 15.5944,27.4345 15.5974,27.4385 15.6023,27.4404 15.5944,27.4482 15.5925,27.4434 15.5886,27.4404 14.8407,27.4404 14.8368,27.4434 14.8348,27.4482 14.8270,27.4404 14.8319,27.4385 14.8348,27.4345 14.8348,26.1620 14.8319,26.1580 14.8270,26.1561 14.8348,26.1482 14.8368,26.1531 14.8407,26.1561 15.5690,26.1561 15.5729,26.1531 15.5749,26.1482 Z"/> 
<path style="fill:#5b2379; fill-opacity:1.0000; stroke:#5b2379;fill-rule:evenodd;;stroke-width:0.05" d="M 18.0359,26.1561 18.0310,26.1580 18.0280,26.1620 18.0280,26.2873 18.0310,26.2912 18.0359,26.2931 18.0280,26.3010 18.0261,26.2961 18.0222,26.2931 17.4818,26.2931 17.4573,26.2853 17.4368,26.2677 17.4270,26.2775 17.4446,26.2980 17.4524,26.3225 17.4524,26.6671 17.4446,26.6915 17.4270,26.7121 17.4368,26.7219 17.4573,26.7043 17.4818,26.6964 17.9321,26.6964 17.9360,26.6935 17.9380,26.6886 17.9458,26.6964 17.9409,26.6984 17.9380,26.7023 17.9380,26.8296 17.9409,26.8335 17.9458,26.8354 17.9380,26.8433 17.9360,26.8384 17.9321,26.8354 17.4818,26.8354 17.4573,26.8276 17.4368,26.8100 17.4270,26.8198 17.4446,26.8403 17.4524,26.8648 17.4524,27.2720 17.4446,27.2965 17.4270,27.3171 17.4368,27.3269 17.4573,27.3092 17.4818,27.3014 18.0417,27.3014 18.0457,27.2985 18.0476,27.2936 18.0554,27.3014 18.0505,27.3034 18.0476,27.3073 18.0476,27.4345 18.0505,27.4385 18.0554,27.4404 18.0476,27.4482 18.0457,27.4434 18.0417,27.4404 17.2938,27.4404 17.2899,27.4434 17.2880,27.4482 17.2801,27.4404 17.2850,27.4385 17.2880,27.4345 17.2880,26.1620 17.2850,26.1580 17.2801,26.1561 17.2880,26.1482 17.2899,26.1531 17.2938,26.1561 18.0222,26.1561 18.0261,26.1531 18.0280,26.1482 Z"/> 
<path style="fill:#5b2379; fill-opacity:1.0000; stroke:#5b2379;fill-rule:evenodd;;stroke-width:0.05" d="M 16.7354,26.1434 16.8357,26.1757 16.9248,26.2251 17.0002,26.2873 17.0041,26.2873 17.0100,26.2853 17.0119,26.2970 17.0051,26.2951 17.0002,26.2970 16.9219,26.3910 16.9219,26.3969 16.9238,26.4028 16.9121,26.4047 16.9150,26.3979 16.9140,26.3930 16.7848,26.3068 16.7099,26.2833 16.6262,26.2755 16.5276,26.2880 16.4510,26.3254 16.4018,26.3849 16.3854,26.4635 16.4050,26.5428 16.4549,26.5995 16.5234,26.6426 16.5988,26.6769 16.7829,26.7552 16.8876,26.8090 16.9708,26.8795 17.0266,26.9735 17.0472,27.0978 17.0168,27.2407 16.9297,27.3572 16.7917,27.4355 16.7053,27.4568 16.6086,27.4639 16.4791,27.4514 16.3609,27.4140 16.2555,27.3550 16.1642,27.2779 16.1603,27.2779 16.1544,27.2799 16.1524,27.2681 16.1593,27.2701 16.1642,27.2681 16.2542,27.1663 16.2542,27.1604 16.2523,27.1546 16.2640,27.1526 16.2621,27.1595 16.2621,27.1644 16.3362,27.2280 16.4216,27.2779 16.5149,27.3102 16.6125,27.3210 16.7256,27.3066 16.8103,27.2632 16.8631,27.1964 16.8807,27.1115 16.8641,27.0283 16.8181,26.9696 16.7496,26.9245 16.6654,26.8844 16.4813,26.8041 16.3903,26.7571 16.3061,26.6896 16.2444,26.5966 16.2210,26.4733 16.2513,26.3372 16.3365,26.2295 16.4647,26.1580 16.5418,26.1389 16.6262,26.1326 Z"/> 
<path style="fill:#5b2379; fill-opacity:1.0000; stroke:#5b2379;fill-rule:evenodd;;stroke-width:0.05" d="M 20.0500,26.1434 20.1503,26.1757 20.2394,26.2251 20.3148,26.2873 20.3187,26.2873 20.3246,26.2853 20.3265,26.2970 20.3197,26.2951 20.3148,26.2970 20.2365,26.3910 20.2365,26.3969 20.2384,26.4028 20.2267,26.4047 20.2296,26.3979 20.2286,26.3930 20.0994,26.3068 20.0245,26.2833 19.9408,26.2755 19.8422,26.2880 19.7656,26.3254 19.7164,26.3849 19.7000,26.4635 19.7196,26.5428 19.7695,26.5995 19.8380,26.6426 19.9134,26.6769 20.0975,26.7552 20.2022,26.8090 20.2854,26.8795 20.3412,26.9735 20.3618,27.0978 20.3314,27.2407 20.2443,27.3572 20.1063,27.4355 20.0199,27.4568 19.9232,27.4639 19.7938,27.4514 19.6755,27.4140 19.5701,27.3550 19.4788,27.2779 19.4749,27.2779 19.4690,27.2799 19.4670,27.2681 19.4739,27.2701 19.4788,27.2681 19.5688,27.1663 19.5688,27.1604 19.5669,27.1546 19.5786,27.1526 19.5767,27.1595 19.5767,27.1644 19.6508,27.2280 19.7362,27.2779 19.8295,27.3102 19.9271,27.3210 20.0402,27.3066 20.1249,27.2632 20.1777,27.1964 20.1954,27.1115 20.1787,27.0283 20.1327,26.9696 20.0642,26.9245 19.9800,26.8844 19.7960,26.8041 19.7049,26.7571 19.6207,26.6896 19.5591,26.5966 19.5356,26.4733 19.5659,26.3372 19.6511,26.2295 19.7793,26.1580 19.8564,26.1389 19.9408,26.1326 Z"/> 
<path style="fill:#5b2379; fill-opacity:1.0000; stroke:#5b2379;fill-rule:evenodd;;stroke-width:0.05" d="M 5.2943,26.1522 5.2982,26.1561 5.6957,26.1561 5.7896,26.1607 5.8758,26.1747 6.0177,26.2364 6.1107,26.3479 6.1357,26.4243 6.1440,26.5163 6.1266,26.6441 6.0745,26.7454 5.9925,26.8213 5.8856,26.8726 5.8582,26.8717 5.8307,26.8629 5.8268,26.8746 5.8719,26.9059 6.1792,27.4345 6.1841,27.4375 6.1910,27.4385 6.1851,27.4482 6.1812,27.4434 6.1773,27.4404 6.0030,27.4404 6.0001,27.4424 5.9991,27.4482 5.9893,27.4424 5.9932,27.4385 5.9932,27.4345 5.6957,26.9098 5.6996,26.8883 5.6898,26.8824 5.6741,26.8981 5.4862,26.8981 5.4607,26.8903 5.4392,26.8726 5.4313,26.8805 5.4490,26.9020 5.4568,26.9275 5.4568,27.4345 5.4607,27.4385 5.4666,27.4404 5.4568,27.4502 5.4548,27.4443 5.4509,27.4404 5.2982,27.4404 5.2943,27.4443 5.2923,27.4502 5.2825,27.4404 5.2884,27.4385 5.2923,27.4345 5.2923,26.2696 5.4313,26.2696 5.4490,26.2912 5.4568,26.3166 5.4568,26.7356 5.4490,26.7611 5.4313,26.7826 5.4392,26.7904 5.4607,26.7728 5.4862,26.7650 5.6722,26.7650 5.8050,26.7495 5.9022,26.7033 5.9617,26.6257 5.9815,26.5163 5.9617,26.4082 5.9022,26.3382 5.8050,26.3000 5.6722,26.2873 5.4862,26.2873 5.4607,26.2794 5.4392,26.2618 5.4313,26.2696 5.2923,26.2696 5.2923,26.1620 5.2884,26.1580 5.2825,26.1561 5.2923,26.1463 Z"/> 
<path style="fill:#5b2379; fill-opacity:1.0000; stroke:#5b2379;fill-rule:evenodd;;stroke-width:0.05" d="M 21.8947,26.1522 21.8987,26.1561 22.2961,26.1561 22.3901,26.1607 22.4762,26.1747 22.6182,26.2364 22.7112,26.3479 22.7361,26.4243 22.7444,26.5163 22.7271,26.6441 22.6749,26.7454 22.5930,26.8213 22.4860,26.8726 22.4586,26.8717 22.4312,26.8629 22.4273,26.8746 22.4723,26.9059 22.7797,27.4345 22.7846,27.4375 22.7914,27.4385 22.7856,27.4482 22.7816,27.4434 22.7777,27.4404 22.6035,27.4404 22.6005,27.4424 22.5996,27.4482 22.5898,27.4424 22.5937,27.4385 22.5937,27.4345 22.2961,26.9098 22.3000,26.8883 22.2902,26.8824 22.2746,26.8981 22.0866,26.8981 22.0612,26.8903 22.0396,26.8726 22.0318,26.8805 22.0494,26.9020 22.0572,26.9275 22.0572,27.4345 22.0612,27.4385 22.0670,27.4404 22.0572,27.4502 22.0553,27.4443 22.0514,27.4404 21.8987,27.4404 21.8947,27.4443 21.8928,27.4502 21.8830,27.4404 21.8889,27.4385 21.8928,27.4345 21.8928,26.2696 22.0318,26.2696 22.0494,26.2912 22.0572,26.3166 22.0572,26.7356 22.0494,26.7611 22.0318,26.7826 22.0396,26.7904 22.0612,26.7728 22.0866,26.7650 22.2726,26.7650 22.4055,26.7495 22.5027,26.7033 22.5621,26.6257 22.5819,26.5163 22.5621,26.4082 22.5027,26.3382 22.4055,26.3000 22.2726,26.2873 22.0866,26.2873 22.0612,26.2794 22.0396,26.2618 22.0318,26.2696 21.8928,26.2696 21.8928,26.1620 21.8889,26.1580 21.8830,26.1561 21.8928,26.1463 Z"/> 
<path style="fill:#5b2379; fill-opacity:1.0000; stroke:#5b2379;fill-rule:evenodd;;stroke-width:0.05" d="M 7.4988,26.1561 7.4939,26.1580 7.4910,26.1620 7.4910,27.4345 7.4939,27.4385 7.4988,27.4404 7.4910,27.4482 7.4890,27.4434 7.4851,27.4404 7.3422,27.4404 7.3383,27.4434 7.3363,27.4482 7.3285,27.4404 7.3334,27.4385 7.3363,27.4345 7.3363,26.7336 7.3373,26.6517 7.3402,26.5623 7.3441,26.4720 7.3481,26.3871 7.3539,26.3548 7.3618,26.3225 7.3500,26.3205 7.3441,26.3528 7.3383,26.3851 7.2482,26.6397 7.0035,27.3053 7.0045,27.3092 7.0094,27.3132 6.9996,27.3190 6.9986,27.3132 6.9957,27.3112 6.9134,27.3112 6.9105,27.3132 6.9095,27.3190 6.8997,27.3132 6.9046,27.3092 6.9056,27.3053 6.6609,26.6397 6.5708,26.3851 6.5649,26.3528 6.5591,26.3205 6.5473,26.3225 6.5551,26.3548 6.5610,26.3871 6.5647,26.4720 6.5679,26.5623 6.5701,26.6517 6.5708,26.7336 6.5708,27.4345 6.5737,27.4385 6.5786,27.4404 6.5708,27.4482 6.5688,27.4434 6.5649,27.4404 6.4259,27.4404 6.4220,27.4434 6.4200,27.4482 6.4122,27.4404 6.4171,27.4385 6.4200,27.4345 6.4200,26.1620 6.4171,26.1580 6.4122,26.1561 6.4200,26.1482 6.4220,26.1531 6.4259,26.1561 6.6080,26.1561 6.6109,26.1541 6.6119,26.1482 6.6217,26.1541 6.6168,26.1580 6.6158,26.1620 6.8625,26.8452 6.9467,27.0763 6.9516,27.1086 6.9526,27.1409 6.9643,27.1409 6.9653,27.1086 6.9702,27.0763 7.0524,26.8452 7.2972,26.1620 7.2962,26.1580 7.2913,26.1541 7.3011,26.1482 7.3021,26.1541 7.3050,26.1561 7.4851,26.1561 7.4890,26.1531 7.4910,26.1482 Z"/> 
<path style="fill:#5b2379; fill-opacity:1.0000; stroke:#5b2379;fill-rule:evenodd;;stroke-width:0.05" d="M 7.1773,4.6483 6.4470,4.6483 6.4470,4.4482 7.1773,4.4482 Z"/> 
</g><g style="fill:#5b2379; fill-opacity:1.0000; stroke:#5b2379;;stroke-width:0.05">
<circle cx="20.1621" cy="10.0482" r="0.7000" stroke="#5b2379" fill="#5b2379" stroke-width="0.05"/> 
</g><g style="fill:#5b2379; fill-opacity:1.0000; stroke:#5b2379;;stroke-width:0.05">
<circle cx="15.1621" cy="10.0482" r="0.7000" stroke="#5b2379" fill="#5b2379" stroke-width="0.05"/> 
</g><g style="fill:#5b2379; fill-opacity:1.0000; stroke:#5b2379;;stroke-width:0.05">
<circle cx="4.3121" cy="35.5482" r="1.6000" stroke="#5b2379" fill="#5b2379" stroke-width="0.05"/> 
</g><g style="fill:#5b2379; fill-opacity:1.0000; stroke:#5b2379;;stroke-width:0.05">
<circle cx="4.3121" cy="3.5482" r="1.6000" stroke="#5b2379" fill="#5b2379" stroke-width="0.05"/> 
</g><g style="fill:#5b2379; fill-opacity:1.0000; stroke:#5b2379;;stroke-width:0.05">
<circle cx="9.4621" cy="10.0482" r="0.7000" stroke="#5b2379" fill="#5b2379" stroke-width="0.05"/> 
</g><g style="fill:#5b2379; fill-opacity:1.0000; stroke:#5b2379;;stroke-width:0.05">
<circle cx="4.4621" cy="10.0482" r="0.7000" stroke="#5b2379" fill="#5b2379" stroke-width="0.05"/> 
</g><g style="fill:#5b2379; fill-opacity:1.0000; stroke:#5b2379;;stroke-width:0.05">
<circle cx="9.7721" cy="37.0482" r="0.5000" stroke="#5b2379" fill="#5b2379" stroke-width="0.05"/> 
</g><g style="fill:#5b2379; fill-opacity:1.0000; stroke:#5b2379;;stroke-width:0.05">
<circle cx="12.3121" cy="37.0482" r="0.5000" stroke="#5b2379" fill="#5b2379" stroke-width="0.05"/> 
</g><g style="fill:#5b2379; fill-opacity:1.0000; stroke:#5b2379;;stroke-width:0.05">
<circle cx="14.8521" cy="37.0482" r="0.5000" stroke="#5b2379" fill="#5b2379" stroke-width="0.05"/> 
</g></g><g><title stroke="none" fill="#cccccc">SVG Image created as Thermocouple_sensor_AD8495_breakout-User_Drawings.svg date 2025/09/22 13:05:55 </title><desc stroke="none" fill="#cccccc">Image generated by PCBNEW </desc><g style="fill:#cccccc; fill-opacity:1.0000;stroke:none; stroke-opacity:1.0000; stroke-linecap:round; stroke-linejoin:round;" transform="translate(0 0) scale(1 1)">
</g><g style="fill:#cccccc;  stroke:none; stroke-width:0.1200; stroke-opacity:1;  stroke-linecap:round; stroke-linejoin:round;">
<path d="M8.6121 16.5182 L10.1121 16.5182 " stroke="none" fill="#cccccc"/>
<path d="M8.6121 17.3182 L8.6121 16.5182 " stroke="none" fill="#cccccc"/>
<path d="M10.1121 16.5182 L10.1121 17.3182 " stroke="none" fill="#cccccc"/>
<path d="M10.1121 17.3182 L8.6121 17.3182 " stroke="none" fill="#cccccc"/>
<path d="M10.0121 23.6482 L11.6121 23.6482 " stroke="none" fill="#cccccc"/>
<path d="M10.0121 24.4482 L10.0121 23.6482 " stroke="none" fill="#cccccc"/>
<path d="M11.6121 23.6482 L11.6121 24.4482 " stroke="none" fill="#cccccc"/>
<path d="M11.6121 24.4482 L10.0121 24.4482 " stroke="none" fill="#cccccc"/>
<path d="M16.4921 20.5482 L17.9921 20.5482 " stroke="none" fill="#cccccc"/>
<path d="M16.4921 21.3483 L16.4921 20.5482 " stroke="none" fill="#cccccc"/>
<path d="M17.9921 20.5482 L17.9921 21.3483 " stroke="none" fill="#cccccc"/>
<path d="M17.9921 21.3483 L16.4921 21.3483 " stroke="none" fill="#cccccc"/>
<path d="M10.0121 14.6482 L11.6121 14.6482 " stroke="none" fill="#cccccc"/>
<path d="M10.0121 15.4482 L10.0121 14.6482 " stroke="none" fill="#cccccc"/>
<path d="M11.6121 14.6482 L11.6121 15.4482 " stroke="none" fill="#cccccc"/>
<path d="M11.6121 15.4482 L10.0121 15.4482 " stroke="none" fill="#cccccc"/>
<path d="M16.6121 18.6483 L18.1121 18.6483 " stroke="none" fill="#cccccc"/>
<path d="M16.6121 19.4482 L16.6121 18.6483 " stroke="none" fill="#cccccc"/>
<path d="M18.1121 18.6483 L18.1121 19.4482 " stroke="none" fill="#cccccc"/>
<path d="M18.1121 19.4482 L16.6121 19.4482 " stroke="none" fill="#cccccc"/>
<path d="M13.0121 14.6482 L14.6121 14.6482 " stroke="none" fill="#cccccc"/>
<path d="M13.0121 15.4482 L13.0121 14.6482 " stroke="none" fill="#cccccc"/>
<path d="M14.6121 14.6482 L14.6121 15.4482 " stroke="none" fill="#cccccc"/>
<path d="M14.6121 15.4482 L13.0121 15.4482 " stroke="none" fill="#cccccc"/>
<path d="M11.6121 16.5182 L13.1121 16.5182 " stroke="none" fill="#cccccc"/>
<path d="M11.6121 17.3182 L11.6121 16.5182 " stroke="none" fill="#cccccc"/>
<path d="M13.1121 16.5182 L13.1121 17.3182 " stroke="none" fill="#cccccc"/>
<path d="M13.1121 17.3182 L11.6121 17.3182 " stroke="none" fill="#cccccc"/>
<path d="M6.6721 21.6082 L8.0721 21.6082 " stroke="none" fill="#cccccc"/>
<path d="M6.6721 24.6482 L6.6721 21.6082 " stroke="none" fill="#cccccc"/>
<path d="M8.0721 21.6082 L8.0721 24.6482 " stroke="none" fill="#cccccc"/>
<path d="M8.0721 24.6482 L6.6721 24.6482 " stroke="none" fill="#cccccc"/>
<path d="M14.6121 16.5182 L16.1121 16.5182 " stroke="none" fill="#cccccc"/>
<path d="M14.6121 17.3182 L14.6121 16.5182 " stroke="none" fill="#cccccc"/>
<path d="M16.1121 16.5182 L16.1121 17.3182 " stroke="none" fill="#cccccc"/>
<path d="M16.1121 17.3182 L14.6121 17.3182 " stroke="none" fill="#cccccc"/>
<path d="M10.8121 18.0482 L10.8121 21.0482 " stroke="none" fill="#cccccc"/>
<path d="M10.8121 21.0482 L13.8121 21.0482 " stroke="none" fill="#cccccc"/>
<path d="M13.8121 18.0482 L10.8121 18.0482 " stroke="none" fill="#cccccc"/>
<path d="M13.8121 21.0482 L13.8121 18.0482 " stroke="none" fill="#cccccc"/>
<path d="M6.6121 15.0482 L7.4121 15.0482 " stroke="none" fill="#cccccc"/>
<path d="M6.6121 16.6483 L6.6121 15.0482 " stroke="none" fill="#cccccc"/>
<path d="M7.4121 15.0482 L7.4121 16.6483 " stroke="none" fill="#cccccc"/>
<path d="M7.4121 16.6483 L6.6121 16.6483 " stroke="none" fill="#cccccc"/>
<path style="fill:#cccccc;  stroke:none; stroke-width:0.1200; stroke-opacity:1;  stroke-linecap:round; stroke-linejoin:round;fill:none" d="M 8.5021,38.3182 16.1221,38.3182 16.1221,35.7782 8.5021,35.7782 Z"/> 
</g><g style="fill:#cccccc; fill-opacity:1.0000; stroke:none;">
<circle cx="20.1621" cy="10.0482" r="0.7000" stroke="none" fill="#cccccc"/> 
</g><g style="fill:#cccccc; fill-opacity:1.0000; stroke:none;">
<circle cx="15.1621" cy="10.0482" r="0.7000" stroke="none" fill="#cccccc"/> 
</g><g style="fill:#cccccc; fill-opacity:1.0000; stroke:none;">
<circle cx="4.3121" cy="35.5482" r="1.6000" stroke="none" fill="#cccccc"/> 
</g><g style="fill:#cccccc; fill-opacity:1.0000; stroke:none;">
<circle cx="4.3121" cy="3.5482" r="1.6000" stroke="none" fill="#cccccc"/> 
</g><g style="fill:#cccccc; fill-opacity:1.0000; stroke:none;">
<circle cx="9.4621" cy="10.0482" r="0.7000" stroke="none" fill="#cccccc"/> 
</g><g style="fill:#cccccc; fill-opacity:1.0000; stroke:none;">
<circle cx="4.4621" cy="10.0482" r="0.7000" stroke="none" fill="#cccccc"/> 
</g><g style="fill:#cccccc; fill-opacity:1.0000; stroke:none;">
<circle cx="9.7721" cy="37.0482" r="0.5000" stroke="none" fill="#cccccc" data-pin-id="P4"/> 
</g><g style="fill:#cccccc; fill-opacity:1.0000; stroke:none;">
<circle cx="12.3121" cy="37.0482" r="0.5000" stroke="none" fill="#cccccc" data-pin-id="P5"/> 
</g><g style="fill:#cccccc; fill-opacity:1.0000; stroke:none;">
<circle cx="14.8521" cy="37.0482" r="0.5000" stroke="none" fill="#cccccc" data-pin-id="P6"/> 
</g></g></g>
    <g id="label-overlay"><line x1="14.8521" y1="37.0482" x2="14.8521" y2="42.0482" stroke="black" stroke-width="0.2" data-pin="P6" data-label-index="0"/><polygon points="5.743034686660766,35.998200000000004 9.2221,35.998200000000004 9.8521,37.0482 9.2221,38.098200000000006 5.743034686660766,38.098200000000006 5.113034686660766,37.0482" fill="#EE4035" stroke="black" stroke-width="0.08" data-pin="P6" data-label-index="0" transform="rotate(-90 14.8521 37.0482)"/><text x="7.482567343330383" y="37.178200000000004" class="hex-label" fill="white" font-size="1.3px" data-pin="P6" data-label-index="0" transform="rotate(-90 14.8521 37.0482)">VCC</text><line x1="12.3121" y1="37.0482" x2="12.3121" y2="42.0482" stroke="black" stroke-width="0.2" data-pin="P5" data-label-index="0"/><polygon points="3.2030346866607653,35.998200000000004 6.682099999999999,35.998200000000004 7.312099999999999,37.0482 6.682099999999999,38.098200000000006 3.2030346866607653,38.098200000000006 2.5730346866607654,37.0482" fill="#221E1F" stroke="black" stroke-width="0.08" data-pin="P5" data-label-index="0" transform="rotate(-90 12.3121 37.0482)"/><text x="4.942567343330382" y="37.178200000000004" class="hex-label" fill="white" font-size="1.3px" data-pin="P5" data-label-index="0" transform="rotate(-90 12.3121 37.0482)">GND</text><line x1="9.7721" y1="37.0482" x2="9.7721" y2="42.0482" stroke="black" stroke-width="0.2" data-pin="P4" data-label-index="0"/><polygon points="-1.6760306266784673,35.998200000000004 4.1421,35.998200000000004 4.7721,37.0482 4.1421,38.098200000000006 -1.6760306266784673,38.098200000000006 -2.306030626678467,37.0482" fill="#295A32" stroke="black" stroke-width="0.08" data-pin="P4" data-label-index="0" transform="rotate(-90 9.7721 37.0482)"/><text x="1.2330346866607664" y="37.178200000000004" class="hex-label" fill="white" font-size="1.3px" data-pin="P4" data-label-index="0" transform="rotate(-90 9.7721 37.0482)">OUTPUT</text><circle cx="9.7721" cy="37.0482" r="1" class="pin-highlight"/></g></g>
  </g></svg>