<?xml version="1.0" encoding="UTF-8" standalone="no"?>
<!-- Created with Inkscape (http://www.inkscape.org/) -->
<svg
   xmlns:dc="http://purl.org/dc/elements/1.1/"
   xmlns:cc="http://web.resource.org/cc/"
   xmlns:rdf="http://www.w3.org/1999/02/22-rdf-syntax-ns#"
   xmlns:svg="http://www.w3.org/2000/svg"
   xmlns="http://www.w3.org/2000/svg"
   xmlns:xlink="http://www.w3.org/1999/xlink"
   xmlns:sodipodi="http://sodipodi.sourceforge.net/DTD/sodipodi-0.dtd"
   xmlns:inkscape="http://www.inkscape.org/namespaces/inkscape"
   width="270"
   height="225"
   id="svg5433"
   sodipodi:version="0.32"
   inkscape:version="0.44.1"
   version="1.0"
   sodipodi:docbase="/Users/bdesham/Documents/Commons images"
   sodipodi:docname="USB pipes and endpoints (export).svg">
  <defs
     id="defs5435">
    <marker
       inkscape:stockid="Arrow2Mstart"
       orient="auto"
       refY="0"
       refX="0"
       id="Arrow2Mstart"
       style="overflow:visible">
      <path
         id="path2978"
         style="font-size:12px;fill-rule:evenodd;stroke-width:0.625;stroke-linejoin:round"
         d="M 8.7185878,4.0337352 L -2.2072895,0.016013256 L 8.7185884,-4.0017078 C 6.97309,-1.6296469 6.9831476,1.6157441 8.7185878,4.0337352 z "
         transform="scale(0.6,0.6)" />
    </marker>
    <marker
       inkscape:stockid="Arrow2Sstart"
       orient="auto"
       refY="0"
       refX="0"
       id="Arrow2Sstart"
       style="overflow:visible">
      <path
         id="path2972"
         style="font-size:12px;fill-rule:evenodd;stroke-width:0.625;stroke-linejoin:round"
         d="M 8.7185878,4.0337352 L -2.2072895,0.016013256 L 8.7185884,-4.0017078 C 6.97309,-1.6296469 6.9831476,1.6157441 8.7185878,4.0337352 z "
         transform="matrix(0.3,0,0,0.3,-0.69,0)" />
    </marker>
    <marker
       inkscape:stockid="Arrow2Lstart"
       orient="auto"
       refY="0"
       refX="0"
       id="Arrow2Lstart"
       style="overflow:visible">
      <path
         id="path2984"
         style="font-size:12px;fill-rule:evenodd;stroke-width:0.625;stroke-linejoin:round"
         d="M 8.7185878,4.0337352 L -2.2072895,0.016013256 L 8.7185884,-4.0017078 C 6.97309,-1.6296469 6.9831476,1.6157441 8.7185878,4.0337352 z "
         transform="matrix(1.1,0,0,1.1,1.1,0)" />
    </marker>
    <linearGradient
       id="linearGradient5805">
      <stop
         style="stop-color:#3465a4;stop-opacity:1;"
         offset="0"
         id="stop5807" />
      <stop
         style="stop-color:#234570;stop-opacity:1;"
         offset="1"
         id="stop5809" />
    </linearGradient>
    <linearGradient
       id="linearGradient5793">
      <stop
         style="stop-color:#5b28e4;stop-opacity:1;"
         offset="0"
         id="stop5795" />
      <stop
         style="stop-color:white;stop-opacity:0;"
         offset="1"
         id="stop5797" />
    </linearGradient>
    <marker
       inkscape:stockid="Arrow2Mend"
       orient="auto"
       refY="0"
       refX="0"
       id="Arrow2Mend"
       style="overflow:visible">
      <path
         id="path2975"
         style="font-size:12px;fill-rule:evenodd;stroke-width:0.625;stroke-linejoin:round"
         d="M 8.7185878,4.0337352 L -2.2072895,0.016013256 L 8.7185884,-4.0017078 C 6.97309,-1.6296469 6.9831476,1.6157441 8.7185878,4.0337352 z "
         transform="scale(-0.6,-0.6)" />
    </marker>
    <marker
       inkscape:stockid="Arrow1Lend"
       orient="auto"
       refY="0"
       refX="0"
       id="Arrow1Lend"
       style="overflow:visible">
      <path
         id="path2999"
         d="M 0,0 L 5,-5 L -12.5,0 L 5,5 L 0,0 z "
         style="fill-rule:evenodd;stroke:black;stroke-width:1pt;marker-start:none"
         transform="matrix(-0.8,0,0,-0.8,-10,0)" />
    </marker>
    <marker
       inkscape:stockid="Arrow1Mend"
       orient="auto"
       refY="0"
       refX="0"
       id="Arrow1Mend"
       style="overflow:visible">
      <path
         id="path2993"
         d="M 0,0 L 5,-5 L -12.5,0 L 5,5 L 0,0 z "
         style="fill-rule:evenodd;stroke:black;stroke-width:1pt;marker-start:none"
         transform="matrix(-0.4,0,0,-0.4,-4,0)" />
    </marker>
    <linearGradient
       inkscape:collect="always"
       xlink:href="#linearGradient5805"
       id="linearGradient5815"
       x1="132.87402"
       y1="531.49597"
       x2="132.87402"
       y2="549.21252"
       gradientUnits="userSpaceOnUse"
       gradientTransform="matrix(1,0,0,2.000002,0,-531.4972)" />
    <linearGradient
       inkscape:collect="always"
       xlink:href="#linearGradient5805"
       id="linearGradient5819"
       gradientUnits="userSpaceOnUse"
       x1="132.87402"
       y1="531.49597"
       x2="132.87402"
       y2="549.21252"
       gradientTransform="matrix(1,0,0,2.000002,35.43307,-531.4972)" />
    <linearGradient
       inkscape:collect="always"
       xlink:href="#linearGradient5805"
       id="linearGradient5823"
       gradientUnits="userSpaceOnUse"
       x1="132.87402"
       y1="531.49597"
       x2="132.87402"
       y2="549.21252"
       gradientTransform="matrix(1,0,0,2.000002,70.86614,-531.4972)" />
    <linearGradient
       inkscape:collect="always"
       xlink:href="#linearGradient5805"
       id="linearGradient8763"
       gradientUnits="userSpaceOnUse"
       gradientTransform="matrix(1,0,0,2.000002,0,-531.4972)"
       x1="132.87402"
       y1="531.49597"
       x2="132.87402"
       y2="549.21252" />
    <linearGradient
       inkscape:collect="always"
       xlink:href="#linearGradient5805"
       id="linearGradient8765"
       gradientUnits="userSpaceOnUse"
       gradientTransform="matrix(1,0,0,2.000002,35.43307,-531.4972)"
       x1="132.87402"
       y1="531.49597"
       x2="132.87402"
       y2="549.21252" />
    <linearGradient
       inkscape:collect="always"
       xlink:href="#linearGradient5805"
       id="linearGradient8767"
       gradientUnits="userSpaceOnUse"
       gradientTransform="matrix(1,0,0,2.000002,70.86614,-531.4972)"
       x1="132.87402"
       y1="531.49597"
       x2="132.87402"
       y2="549.21252" />
    <linearGradient
       inkscape:collect="always"
       xlink:href="#linearGradient5805"
       id="linearGradient8781"
       gradientUnits="userSpaceOnUse"
       gradientTransform="matrix(1,0,0,2.000002,76.13242,-526.1767)"
       x1="132.87402"
       y1="531.49597"
       x2="132.87402"
       y2="549.21252" />
    <linearGradient
       inkscape:collect="always"
       xlink:href="#linearGradient5805"
       id="linearGradient8784"
       gradientUnits="userSpaceOnUse"
       gradientTransform="matrix(1,0,0,2.000002,40.69935,-526.1767)"
       x1="132.87402"
       y1="531.49597"
       x2="132.87402"
       y2="549.21252" />
    <linearGradient
       inkscape:collect="always"
       xlink:href="#linearGradient5805"
       id="linearGradient8789"
       gradientUnits="userSpaceOnUse"
       gradientTransform="matrix(1,0,0,2.000002,5.266285,-526.1767)"
       x1="132.87402"
       y1="531.49597"
       x2="132.87402"
       y2="549.21252" />
  </defs>
  <sodipodi:namedview
     id="base"
     pagecolor="#ffffff"
     bordercolor="#666666"
     borderopacity="1.0"
     gridtolerance="10000"
     guidetolerance="10"
     objecttolerance="10"
     inkscape:pageopacity="0.0"
     inkscape:pageshadow="2"
     inkscape:zoom="2.7244444"
     inkscape:cx="135"
     inkscape:cy="112.5"
     inkscape:document-units="cm"
     inkscape:current-layer="layer1"
     inkscape:grid-points="true"
     inkscape:grid-bbox="false"
     gridspacingx="0.5cm"
     gridspacingy="0.5cm"
     grid_units="cm"
     showgrid="true"
     height="225px"
     width="270px"
     inkscape:window-width="1440"
     inkscape:window-height="785"
     inkscape:window-x="0"
     inkscape:window-y="22" />
  <metadata
     id="metadata5438">
    <rdf:RDF>
      <cc:Work
         rdf:about="">
        <dc:format>image/svg+xml</dc:format>
        <dc:type
           rdf:resource="http://purl.org/dc/dcmitype/StillImage" />
      </cc:Work>
    </rdf:RDF>
  </metadata>
  <g
     inkscape:label="Layer 1"
     inkscape:groupmode="layer"
     id="layer1"
     transform="translate(-103.3643,-389.0067)">
    <rect
       style="fill:white;fill-opacity:1;stroke:none;stroke-width:2.49999976;stroke-linecap:butt;stroke-linejoin:miter;stroke-miterlimit:4;stroke-dasharray:none;stroke-dashoffset:0;stroke-opacity:1"
       id="rect8736"
       width="143.30263"
       height="52.656555"
       x="111.5655"
       y="395.0842" />
    <rect
       style="fill:white;fill-opacity:1;stroke:none;stroke-width:2.50000024;stroke-linecap:butt;stroke-linejoin:miter;stroke-miterlimit:4;stroke-dasharray:none;stroke-dashoffset:0;stroke-opacity:1"
       id="rect8732"
       width="143.31776"
       height="70.619621"
       x="109.98002"
       y="536.81653" />
    <rect
       style="fill:none;fill-opacity:0;stroke:#204a87;stroke-width:2.49999976;stroke-linecap:butt;stroke-linejoin:miter;stroke-miterlimit:4;stroke-dasharray:none;stroke-dashoffset:0;stroke-opacity:1"
       id="rect1930"
       width="143.30263"
       height="52.656555"
       x="111.66496"
       y="395.57715" />
    <path
       style="fill:#204a87;fill-opacity:1;stroke:none;stroke-width:2.50000048;stroke-linecap:butt;stroke-linejoin:miter;stroke-miterlimit:4;stroke-dasharray:none;stroke-dashoffset:0;stroke-opacity:1"
       d="M 145.73504,448.22672 L 145.73504,521.16422 C 144.05613,520.9566 142.40806,520.33636 140.98503,519.28922 L 145.73504,532.19547 L 145.73504,532.35172 L 145.79754,532.35172 L 147.01629,535.66422 L 148.23504,532.35172 L 153.04754,519.28922 C 151.58802,520.33675 149.93026,520.95782 148.23504,521.16422 L 148.23504,448.22672 L 145.73504,448.22672 z "
       id="path1936" />
    <path
       style="fill:#204a87;fill-opacity:1;stroke:none;stroke-width:2.50000048;stroke-linecap:butt;stroke-linejoin:miter;stroke-miterlimit:4;stroke-dasharray:none;stroke-dashoffset:0;stroke-opacity:1"
       d="M 182.42254,449.38297 L 181.20379,452.69547 L 181.17254,452.69547 L 181.17254,452.78922 L 176.39129,465.75797 C 177.84186,464.71686 179.48812,464.09324 181.17254,463.88297 L 181.17254,536.82047 L 183.67254,536.82047 L 183.67254,463.88297 C 185.36236,464.08669 186.99075,464.70437 188.42254,465.75797 L 183.67254,452.78922 L 183.67254,452.69547 L 183.64129,452.69547 L 182.42254,449.38297 z "
       id="path3946" />
    <path
       style="fill:#204a87;fill-opacity:1;stroke:none;stroke-width:2.50000048;stroke-linecap:butt;stroke-linejoin:miter;stroke-miterlimit:4;stroke-dasharray:none;stroke-dashoffset:0;stroke-opacity:1"
       d="M 217.82879,449.38297 L 216.61003,452.69547 L 211.82879,465.75797 C 213.27936,464.71686 214.92562,464.09324 216.61003,463.88297 L 216.61003,536.82047 L 219.11003,536.82047 L 219.11003,463.88297 C 220.79985,464.08669 222.42825,464.70437 223.86003,465.75797 L 219.11003,452.85172 L 219.11003,452.69547 L 219.04754,452.69547 L 217.82879,449.38297 z "
       id="path3948" />
    <rect
       style="fill:white;fill-opacity:0;stroke:none;stroke-width:2.5;stroke-linecap:butt;stroke-linejoin:miter;stroke-miterlimit:4;stroke-dasharray:none;stroke-dashoffset:0;stroke-opacity:1"
       id="rect3987"
       width="35.433071"
       height="53.149597"
       x="129.28203"
       y="519.09998" />
    <rect
       style="fill:url(#linearGradient8789);fill-opacity:1;stroke:none;stroke-width:0.625;stroke-linecap:butt;stroke-linejoin:miter;stroke-miterlimit:4;stroke-dasharray:none;stroke-dashoffset:0;stroke-opacity:1"
       id="rect3985"
       width="17.716536"
       height="35.433113"
       x="138.1403"
       y="536.81647" />
    <rect
       style="fill:white;fill-opacity:0;stroke:none;stroke-width:2.5;stroke-linecap:butt;stroke-linejoin:miter;stroke-miterlimit:4;stroke-dasharray:none;stroke-dashoffset:0;stroke-opacity:1"
       id="rect4880"
       width="35.433071"
       height="53.149597"
       x="164.71506"
       y="519.09998" />
    <rect
       style="fill:white;fill-opacity:0;stroke:none;stroke-width:2.5;stroke-linecap:butt;stroke-linejoin:miter;stroke-miterlimit:4;stroke-dasharray:none;stroke-dashoffset:0;stroke-opacity:1"
       id="rect4886"
       width="35.433071"
       height="53.149597"
       x="200.14815"
       y="519.09998" />
    <rect
       style="fill:url(#linearGradient8784);fill-opacity:1;stroke:none;stroke-width:0.625;stroke-linecap:butt;stroke-linejoin:miter;stroke-miterlimit:4;stroke-dasharray:none;stroke-dashoffset:0;stroke-opacity:1"
       id="rect5817"
       width="17.716536"
       height="35.433113"
       x="173.57338"
       y="536.81647" />
    <rect
       style="fill:url(#linearGradient8781);fill-opacity:1;stroke:none;stroke-width:0.625;stroke-linecap:butt;stroke-linejoin:miter;stroke-miterlimit:4;stroke-dasharray:none;stroke-dashoffset:0;stroke-opacity:1"
       id="rect5821"
       width="17.716536"
       height="35.433113"
       x="209.00644"
       y="536.81647" />
    <rect
       style="fill:none;fill-opacity:0;stroke:#204a87;stroke-width:2.50000024;stroke-linecap:butt;stroke-linejoin:miter;stroke-miterlimit:4;stroke-dasharray:none;stroke-dashoffset:0;stroke-opacity:1"
       id="rect1932"
       width="143.31776"
       height="70.619621"
       x="109.88056"
       y="536.81665" />
    <path
       style="font-size:14px;font-style:normal;font-weight:bold;text-align:center;text-anchor:middle;fill:black;fill-opacity:1;stroke:none;stroke-width:1px;stroke-linecap:butt;stroke-linejoin:miter;stroke-opacity:1;font-family:DejaVu Sans"
       d="M 133.27721,422.46255 L 133.27721,427.12466 L 130.81627,427.12466 L 130.81627,426.36588 L 130.81627,423.56998 C 130.81626,422.90006 130.80031,422.43977 130.76842,422.18912 C 130.74107,421.93847 130.69094,421.7539 130.61803,421.63541 C 130.52232,421.47591 130.39243,421.35286 130.22838,421.26627 C 130.06431,421.17513 129.87746,421.12955 129.66783,421.12955 C 129.15741,421.12955 128.75637,421.3278 128.46471,421.72427 C 128.17304,422.11621 128.0272,422.6608 128.02721,423.35806 L 128.02721,427.12466 L 125.57994,427.12466 L 125.57994,416.48795 L 128.02721,416.48795 L 128.02721,420.58951 C 128.39634,420.1429 128.78827,419.81478 129.20299,419.60513 C 129.6177,419.39095 130.0757,419.28385 130.57701,419.28384 C 131.46112,419.28385 132.13104,419.55501 132.58678,420.09732 C 133.04705,420.63964 133.2772,421.42806 133.27721,422.46255 M 139.20396,421.03384 C 138.66164,421.03385 138.24693,421.22981 137.95982,421.62173 C 137.67727,422.00911 137.53599,422.56966 137.536,423.30338 C 137.53599,424.0371 137.67727,424.59993 137.95982,424.99185 C 138.24693,425.37922 138.66164,425.57291 139.20396,425.57291 C 139.73716,425.57291 140.14504,425.37922 140.4276,424.99185 C 140.71014,424.59993 140.85142,424.0371 140.85143,423.30338 C 140.85142,422.56966 140.71014,422.00911 140.4276,421.62173 C 140.14504,421.22981 139.73716,421.03385 139.20396,421.03384 M 139.20396,419.28384 C 140.52102,419.28385 141.54868,419.63932 142.28697,420.35025 C 143.0298,421.06119 143.40122,422.04557 143.40123,423.30338 C 143.40122,424.56119 143.0298,425.54556 142.28697,426.2565 C 141.54868,426.96744 140.52102,427.32291 139.20396,427.32291 C 137.88235,427.32291 136.84784,426.96744 136.10045,426.2565 C 135.35761,425.54556 134.98619,424.56119 134.98619,423.30338 C 134.98619,422.04557 135.35761,421.06119 136.10045,420.35025 C 136.84784,419.63932 137.88235,419.28385 139.20396,419.28384 M 151.16685,419.70767 L 151.16685,421.56705 C 150.64276,421.3483 150.1369,421.18424 149.64928,421.07486 C 149.16164,420.96549 148.70136,420.9108 148.26842,420.9108 C 147.80357,420.9108 147.45722,420.97005 147.22935,421.08853 C 147.00604,421.20247 146.89439,421.3802 146.89439,421.62173 C 146.89439,421.8177 146.9787,421.96809 147.14732,422.07291 C 147.3205,422.17773 147.62811,422.2552 148.07018,422.30533 L 148.50084,422.36685 C 149.75409,422.52636 150.59719,422.78841 151.03014,423.15298 C 151.46307,423.51757 151.67954,424.08951 151.67955,424.8688 C 151.67954,425.68456 151.37876,426.29752 150.77721,426.70767 C 150.17564,427.11783 149.27785,427.32291 148.08385,427.32291 C 147.57798,427.32291 147.0539,427.28189 146.51158,427.19986 C 145.97382,427.12239 145.42011,427.0039 144.85045,426.84439 L 144.85045,424.98502 C 145.33808,425.222 145.8371,425.39973 146.34752,425.51822 C 146.86249,425.63671 147.3843,425.69595 147.91295,425.69595 C 148.39146,425.69595 148.75149,425.62987 148.99303,425.49771 C 149.23456,425.36555 149.35533,425.16959 149.35533,424.90982 C 149.35533,424.69107 149.27102,424.52929 149.1024,424.42447 C 148.93833,424.3151 148.60793,424.23079 148.11119,424.17154 L 147.68053,424.11685 C 146.59133,423.98014 145.82799,423.72721 145.39049,423.35806 C 144.95299,422.98893 144.73424,422.42838 144.73424,421.67642 C 144.73424,420.86523 145.01223,420.26367 145.56822,419.87173 C 146.12421,419.47982 146.97642,419.28385 148.12486,419.28384 C 148.57603,419.28385 149.04999,419.31803 149.54674,419.38638 C 150.04348,419.45475 150.58351,419.56185 151.16685,419.70767 M 156.17076,417.29459 L 156.17076,419.46841 L 158.69322,419.46841 L 158.69322,421.21841 L 156.17076,421.21841 L 156.17076,424.46548 C 156.17076,424.82096 156.2414,425.06249 156.38268,425.19009 C 156.52395,425.31314 156.80422,425.37467 157.2235,425.37466 L 158.48131,425.37466 L 158.48131,427.12466 L 156.38268,427.12466 C 155.41653,427.12466 154.73065,426.92414 154.32506,426.5231 C 153.92401,426.1175 153.72349,425.43163 153.7235,424.46548 L 153.7235,421.21841 L 152.5067,421.21841 L 152.5067,419.46841 L 153.7235,419.46841 L 153.7235,417.29459 L 156.17076,417.29459 M 171.25084,419.70767 L 171.25084,421.70377 C 170.91815,421.47591 170.58319,421.30729 170.24596,421.19791 C 169.91327,421.08854 169.56691,421.03385 169.20689,421.03384 C 168.5233,421.03385 167.99009,421.23437 167.60728,421.63541 C 167.22903,422.0319 167.0399,422.58788 167.0399,423.30338 C 167.0399,424.01887 167.22903,424.57714 167.60728,424.97818 C 167.99009,425.37467 168.5233,425.57291 169.20689,425.57291 C 169.5897,425.57291 169.95201,425.51594 170.29381,425.40201 C 170.64016,425.28808 170.95917,425.11946 171.25084,424.89615 L 171.25084,426.89908 C 170.86802,427.04035 170.47837,427.14517 170.08189,427.21353 C 169.68996,427.28645 169.29576,427.32291 168.89928,427.32291 C 167.51841,427.32291 166.43834,426.96972 165.65904,426.26334 C 164.87974,425.5524 164.4901,424.56575 164.4901,423.30338 C 164.4901,422.04101 164.87974,421.05664 165.65904,420.35025 C 166.43834,419.63932 167.51841,419.28385 168.89928,419.28384 C 169.30031,419.28385 169.69452,419.32031 170.08189,419.39322 C 170.47381,419.46159 170.86346,419.5664 171.25084,419.70767 M 177.02037,421.03384 C 176.47805,421.03385 176.06334,421.22981 175.77623,421.62173 C 175.49367,422.00911 175.3524,422.56966 175.3524,423.30338 C 175.3524,424.0371 175.49367,424.59993 175.77623,424.99185 C 176.06334,425.37922 176.47805,425.57291 177.02037,425.57291 C 177.55357,425.57291 177.96145,425.37922 178.244,424.99185 C 178.52655,424.59993 178.66782,424.0371 178.66783,423.30338 C 178.66782,422.56966 178.52655,422.00911 178.244,421.62173 C 177.96145,421.22981 177.55357,421.03385 177.02037,421.03384 M 177.02037,419.28384 C 178.33742,419.28385 179.36509,419.63932 180.10338,420.35025 C 180.84621,421.06119 181.21763,422.04557 181.21764,423.30338 C 181.21763,424.56119 180.84621,425.54556 180.10338,426.2565 C 179.36509,426.96744 178.33742,427.32291 177.02037,427.32291 C 175.69875,427.32291 174.66425,426.96744 173.91685,426.2565 C 173.17402,425.54556 172.8026,424.56119 172.8026,423.30338 C 172.8026,422.04557 173.17402,421.06119 173.91685,420.35025 C 174.66425,419.63932 175.69875,419.28385 177.02037,419.28384 M 190.69908,422.46255 L 190.69908,427.12466 L 188.23814,427.12466 L 188.23814,426.36588 L 188.23814,423.5563 C 188.23814,422.8955 188.22219,422.43977 188.19029,422.18912 C 188.16294,421.93847 188.11281,421.7539 188.0399,421.63541 C 187.94419,421.47591 187.81431,421.35286 187.65025,421.26627 C 187.48619,421.17513 187.29934,421.12955 187.08971,421.12955 C 186.57929,421.12955 186.17824,421.3278 185.88658,421.72427 C 185.59491,422.11621 185.44908,422.6608 185.44908,423.35806 L 185.44908,427.12466 L 183.00182,427.12466 L 183.00182,419.46841 L 185.44908,419.46841 L 185.44908,420.58951 C 185.81822,420.1429 186.21014,419.81478 186.62486,419.60513 C 187.03957,419.39095 187.49758,419.28385 187.99889,419.28384 C 188.88299,419.28385 189.55291,419.55501 190.00865,420.09732 C 190.46893,420.63964 190.69907,421.42806 190.69908,422.46255 M 195.65514,417.29459 L 195.65514,419.46841 L 198.1776,419.46841 L 198.1776,421.21841 L 195.65514,421.21841 L 195.65514,424.46548 C 195.65513,424.82096 195.72577,425.06249 195.86705,425.19009 C 196.00832,425.31314 196.2886,425.37467 196.70787,425.37466 L 197.96568,425.37466 L 197.96568,427.12466 L 195.86705,427.12466 C 194.9009,427.12466 194.21503,426.92414 193.80943,426.5231 C 193.40839,426.1175 193.20787,425.43163 193.20787,424.46548 L 193.20787,421.21841 L 191.99107,421.21841 L 191.99107,419.46841 L 193.20787,419.46841 L 193.20787,417.29459 L 195.65514,417.29459 M 205.369,421.55338 C 205.1548,421.45312 204.94061,421.3802 204.72643,421.33463 C 204.51678,421.2845 204.30487,421.25944 204.09068,421.25943 C 203.46177,421.25944 202.97642,421.46224 202.63463,421.86783 C 202.29738,422.26887 202.12877,422.84537 202.12877,423.59732 L 202.12877,427.12466 L 199.6815,427.12466 L 199.6815,419.46841 L 202.12877,419.46841 L 202.12877,420.72623 C 202.44322,420.22493 202.80324,419.86035 203.20885,419.63248 C 203.619,419.40006 204.10891,419.28385 204.67857,419.28384 C 204.7606,419.28385 204.84947,419.28841 204.94518,419.29752 C 205.04087,419.30208 205.17987,419.31575 205.36217,419.33853 L 205.369,421.55338 M 210.24303,421.03384 C 209.7007,421.03385 209.28599,421.22981 208.99889,421.62173 C 208.71633,422.00911 208.57505,422.56966 208.57506,423.30338 C 208.57505,424.0371 208.71633,424.59993 208.99889,424.99185 C 209.28599,425.37922 209.7007,425.57291 210.24303,425.57291 C 210.77622,425.57291 211.1841,425.37922 211.46666,424.99185 C 211.74921,424.59993 211.89048,424.0371 211.89049,423.30338 C 211.89048,422.56966 211.74921,422.00911 211.46666,421.62173 C 211.1841,421.22981 210.77622,421.03385 210.24303,421.03384 M 210.24303,419.28384 C 211.56008,419.28385 212.58775,419.63932 213.32603,420.35025 C 214.06886,421.06119 214.44028,422.04557 214.44029,423.30338 C 214.44028,424.56119 214.06886,425.54556 213.32603,426.2565 C 212.58775,426.96744 211.56008,427.32291 210.24303,427.32291 C 208.92141,427.32291 207.8869,426.96744 207.13951,426.2565 C 206.39667,425.54556 206.02525,424.56119 206.02525,423.30338 C 206.02525,422.04557 206.39667,421.06119 207.13951,420.35025 C 207.8869,419.63932 208.92141,419.28385 210.24303,419.28384 M 216.22447,416.48795 L 218.67174,416.48795 L 218.67174,427.12466 L 216.22447,427.12466 L 216.22447,416.48795 M 221.03697,416.48795 L 223.48424,416.48795 L 223.48424,427.12466 L 221.03697,427.12466 L 221.03697,416.48795 M 233.49205,423.27603 L 233.49205,423.9733 L 227.77037,423.9733 C 227.82961,424.54752 228.03697,424.97818 228.39244,425.26529 C 228.74791,425.5524 229.24465,425.69595 229.88268,425.69595 C 230.39764,425.69595 230.92401,425.62076 231.46178,425.47037 C 232.00409,425.31542 232.56008,425.083 233.12975,424.7731 L 233.12975,426.65982 C 232.55096,426.87857 231.97219,427.04263 231.39342,427.15201 C 230.81464,427.26594 230.23586,427.32291 229.65709,427.32291 C 228.27167,427.32291 227.19387,426.972 226.42369,426.27017 C 225.65806,425.56379 225.27525,424.57486 225.27525,423.30338 C 225.27525,422.05468 225.65123,421.07259 226.40318,420.35709 C 227.15969,419.6416 228.19875,419.28385 229.52037,419.28384 C 230.72349,419.28385 231.68508,419.64616 232.40514,420.37076 C 233.12974,421.09537 233.49204,422.0638 233.49205,423.27603 M 230.97643,422.46255 C 230.97642,421.99772 230.8397,421.62402 230.56627,421.34146 C 230.29738,421.05436 229.94419,420.9108 229.5067,420.9108 C 229.03274,420.9108 228.64765,421.04524 228.35143,421.31412 C 228.0552,421.57845 227.87063,421.96126 227.79771,422.46255 L 230.97643,422.46255 M 241.0526,421.55338 C 240.8384,421.45312 240.62421,421.3802 240.41002,421.33463 C 240.20038,421.2845 239.98846,421.25944 239.77428,421.25943 C 239.14537,421.25944 238.66001,421.46224 238.31822,421.86783 C 237.98098,422.26887 237.81236,422.84537 237.81236,423.59732 L 237.81236,427.12466 L 235.3651,427.12466 L 235.3651,419.46841 L 237.81236,419.46841 L 237.81236,420.72623 C 238.12681,420.22493 238.48684,419.86035 238.89244,419.63248 C 239.30259,419.40006 239.7925,419.28385 240.36217,419.28384 C 240.44419,419.28385 240.53306,419.28841 240.62877,419.29752 C 240.72447,419.30208 240.86346,419.31575 241.04576,419.33853 L 241.0526,421.55338"
       id="text5825" />
    <path
       style="font-size:14px;font-style:normal;font-weight:bold;text-align:center;text-anchor:middle;fill:black;fill-opacity:1;stroke:none;stroke-width:1px;stroke-linecap:butt;stroke-linejoin:miter;stroke-opacity:1;font-family:DejaVu Sans"
       d="M 162.29628,582.81055 L 162.29628,578.70898 L 164.75722,578.70898 L 164.75722,589.3457 L 162.29628,589.3457 L 162.29628,588.23828 C 161.95903,588.68945 161.58762,589.01986 161.18202,589.22949 C 160.77642,589.43913 160.30702,589.54395 159.77382,589.54395 C 158.83046,589.54395 158.05572,589.17025 157.4496,588.42285 C 156.84348,587.6709 156.54042,586.70476 156.54042,585.52441 C 156.54042,584.34408 156.84348,583.38021 157.4496,582.63281 C 158.05572,581.88087 158.83046,581.50489 159.77382,581.50488 C 160.30246,581.50489 160.76958,581.61199 161.17519,581.82617 C 161.58534,582.03581 161.95903,582.36394 162.29628,582.81055 M 160.683,587.7666 C 161.20708,587.7666 161.60584,587.5752 161.87929,587.19238 C 162.15728,586.80957 162.29627,586.25358 162.29628,585.52441 C 162.29627,584.79525 162.15728,584.23926 161.87929,583.85645 C 161.60584,583.47364 161.20708,583.28223 160.683,583.28223 C 160.16346,583.28223 159.7647,583.47364 159.48671,583.85645 C 159.21327,584.23926 159.07655,584.79525 159.07655,585.52441 C 159.07655,586.25358 159.21327,586.80957 159.48671,587.19238 C 159.7647,587.5752 160.16346,587.7666 160.683,587.7666 M 174.76503,585.49707 L 174.76503,586.19434 L 169.04335,586.19434 C 169.10259,586.76856 169.30995,587.19922 169.66542,587.48633 C 170.02089,587.77344 170.51763,587.91699 171.15565,587.91699 C 171.67062,587.91699 172.19699,587.8418 172.73476,587.69141 C 173.27707,587.53646 173.83306,587.30404 174.40273,586.99414 L 174.40273,588.88086 C 173.82394,589.09961 173.24517,589.26367 172.6664,589.37305 C 172.08761,589.48698 171.50884,589.54395 170.93007,589.54395 C 169.54465,589.54395 168.46685,589.19303 167.69667,588.49121 C 166.93104,587.78483 166.54823,586.7959 166.54823,585.52441 C 166.54823,584.27572 166.92421,583.29363 167.67616,582.57812 C 168.43267,581.86264 169.47173,581.50489 170.79335,581.50488 C 171.99647,581.50489 172.95806,581.86719 173.67812,582.5918 C 174.40272,583.31641 174.76502,584.28484 174.76503,585.49707 M 172.2494,584.68359 C 172.2494,584.21876 172.11268,583.84506 171.83925,583.5625 C 171.57036,583.2754 171.21717,583.13184 170.77968,583.13184 C 170.30572,583.13184 169.92062,583.26628 169.6244,583.53516 C 169.32818,583.79948 169.14361,584.1823 169.07069,584.68359 L 172.2494,584.68359 M 175.67421,581.68945 L 178.12148,581.68945 L 180.0287,586.98047 L 181.92909,581.68945 L 184.38319,581.68945 L 181.36855,589.3457 L 178.68202,589.3457 L 175.67421,581.68945 M 185.77089,581.68945 L 188.21815,581.68945 L 188.21815,589.3457 L 185.77089,589.3457 L 185.77089,581.68945 M 185.77089,578.70898 L 188.21815,578.70898 L 188.21815,580.70508 L 185.77089,580.70508 L 185.77089,578.70898 M 196.76991,581.92871 L 196.76991,583.9248 C 196.43722,583.69695 196.10226,583.52833 195.76503,583.41895 C 195.43234,583.30958 195.08599,583.25489 194.72597,583.25488 C 194.04237,583.25489 193.50917,583.45541 193.12636,583.85645 C 192.7481,584.25293 192.55897,584.80892 192.55898,585.52441 C 192.55897,586.23991 192.7481,586.79818 193.12636,587.19922 C 193.50917,587.5957 194.04237,587.79395 194.72597,587.79395 C 195.10877,587.79395 195.47108,587.73698 195.81288,587.62305 C 196.15923,587.50912 196.47824,587.3405 196.76991,587.11719 L 196.76991,589.12012 C 196.38709,589.26139 195.99745,589.36621 195.60097,589.43457 C 195.20903,589.50749 194.81483,589.54395 194.41835,589.54395 C 193.03749,589.54395 191.95741,589.19076 191.17812,588.48438 C 190.39882,587.77344 190.00917,586.78679 190.00917,585.52441 C 190.00917,584.26205 190.39882,583.27768 191.17812,582.57129 C 191.95741,581.86036 193.03749,581.50489 194.41835,581.50488 C 194.81939,581.50489 195.21359,581.54135 195.60097,581.61426 C 195.99289,581.68262 196.38254,581.78744 196.76991,581.92871 M 206.53847,585.49707 L 206.53847,586.19434 L 200.81679,586.19434 C 200.87603,586.76856 201.08339,587.19922 201.43886,587.48633 C 201.79432,587.77344 202.29107,587.91699 202.92909,587.91699 C 203.44406,587.91699 203.97043,587.8418 204.50819,587.69141 C 205.0505,587.53646 205.60649,587.30404 206.17616,586.99414 L 206.17616,588.88086 C 205.59738,589.09961 205.0186,589.26367 204.43983,589.37305 C 203.86105,589.48698 203.28228,589.54395 202.70351,589.54395 C 201.31809,589.54395 200.24029,589.19303 199.47011,588.49121 C 198.70448,587.78483 198.32167,586.7959 198.32167,585.52441 C 198.32167,584.27572 198.69765,583.29363 199.4496,582.57812 C 200.20611,581.86264 201.24517,581.50489 202.56679,581.50488 C 203.76991,581.50489 204.73149,581.86719 205.45155,582.5918 C 206.17615,583.31641 206.53846,584.28484 206.53847,585.49707 M 204.02284,584.68359 C 204.02284,584.21876 203.88612,583.84506 203.61269,583.5625 C 203.3438,583.2754 202.99061,583.13184 202.55312,583.13184 C 202.07915,583.13184 201.69406,583.26628 201.39784,583.53516 C 201.10162,583.79948 200.91704,584.1823 200.84413,584.68359 L 204.02284,584.68359"
       id="text5829" />
    <path
       style="font-size:14px;font-style:normal;font-weight:normal;text-align:center;text-anchor:middle;fill:black;fill-opacity:1;stroke:none;stroke-width:1px;stroke-linecap:butt;stroke-linejoin:miter;stroke-opacity:1;font-family:DejaVu Sans"
       d="M 242.91623,486.3273 L 244.17404,486.3273 L 244.17404,496.96402 L 242.91623,496.96402 L 242.91623,486.3273 M 249.76584,490.18961 C 249.09136,490.18961 248.55815,490.45394 248.16623,490.98257 C 247.7743,491.50667 247.57834,492.22672 247.57834,493.14273 C 247.57834,494.05875 247.77202,494.78108 248.15939,495.30972 C 248.55132,495.83381 249.0868,496.09586 249.76584,496.09586 C 250.43576,496.09586 250.96668,495.83153 251.35861,495.30289 C 251.75053,494.77424 251.9465,494.05419 251.9465,493.14273 C 251.9465,492.23583 251.75053,491.51806 251.35861,490.98941 C 250.96668,490.45621 250.43576,490.18961 249.76584,490.18961 M 249.76584,489.1232 C 250.85958,489.12321 251.71863,489.47868 252.34299,490.18961 C 252.96733,490.90055 253.2795,491.88492 253.27951,493.14273 C 253.2795,494.39599 252.96733,495.38036 252.34299,496.09586 C 251.71863,496.80679 250.85958,497.16226 249.76584,497.16226 C 248.66753,497.16226 247.8062,496.80679 247.18185,496.09586 C 246.56206,495.38036 246.25217,494.39599 246.25217,493.14273 C 246.25217,491.88492 246.56206,490.90055 247.18185,490.18961 C 247.8062,489.47868 248.66753,489.12321 249.76584,489.1232 M 260.39572,493.04703 C 260.39572,492.13557 260.20659,491.42919 259.82834,490.92789 C 259.45464,490.42659 258.92827,490.17594 258.24924,490.17593 C 257.57475,490.17594 257.04839,490.42659 256.67014,490.92789 C 256.29644,491.42919 256.10959,492.13557 256.10959,493.04703 C 256.10959,493.95393 256.29644,494.65803 256.67014,495.15933 C 257.04839,495.66064 257.57475,495.91129 258.24924,495.91129 C 258.92827,495.91129 259.45464,495.66064 259.82834,495.15933 C 260.20659,494.65803 260.39572,493.95393 260.39572,493.04703 M 261.65353,496.01382 C 261.65353,497.31721 261.36414,498.28563 260.78537,498.9191 C 260.20659,499.55712 259.3202,499.87613 258.12619,499.87613 C 257.68413,499.87613 257.26714,499.84195 256.87521,499.77359 C 256.48328,499.70979 256.10275,499.60952 255.73361,499.47281 L 255.73361,498.24918 C 256.10275,498.4497 256.46733,498.59781 256.82736,498.69351 C 257.18738,498.78921 257.55425,498.83706 257.92795,498.83707 C 258.75281,498.83706 259.37033,498.62059 259.78049,498.18765 C 260.19064,497.75927 260.39572,497.10985 260.39572,496.23941 L 260.39572,495.61734 C 260.13595,496.06851 259.80327,496.40575 259.39767,496.62906 C 258.99207,496.85237 258.50672,496.96402 257.94162,496.96402 C 257.00281,496.96402 256.24631,496.60627 255.67209,495.89078 C 255.09787,495.17528 254.81076,494.22737 254.81076,493.04703 C 254.81076,491.86214 255.09787,490.91194 255.67209,490.19644 C 256.24631,489.48095 257.00281,489.12321 257.94162,489.1232 C 258.50672,489.12321 258.99207,489.23486 259.39767,489.45816 C 259.80327,489.68147 260.13595,490.01871 260.39572,490.46988 L 260.39572,489.30777 L 261.65353,489.30777 L 261.65353,496.01382 M 264.24435,489.30777 L 265.50217,489.30777 L 265.50217,496.96402 L 264.24435,496.96402 L 264.24435,489.30777 M 264.24435,486.3273 L 265.50217,486.3273 L 265.50217,487.92007 L 264.24435,487.92007 L 264.24435,486.3273 M 273.63693,489.60172 L 273.63693,490.7775 C 273.28146,490.58154 272.92371,490.43571 272.56369,490.34 C 272.20822,490.23974 271.84819,490.18961 271.48361,490.18961 C 270.66785,490.18961 270.03439,490.44938 269.58322,490.9689 C 269.13205,491.48388 268.90646,492.20849 268.90646,493.14273 C 268.90646,494.07698 269.13205,494.80387 269.58322,495.32339 C 270.03439,495.83837 270.66785,496.09586 271.48361,496.09586 C 271.84819,496.09586 272.20822,496.04801 272.56369,495.9523 C 272.92371,495.85204 273.28146,495.70393 273.63693,495.50797 L 273.63693,496.67007 C 273.28601,496.83414 272.92143,496.95718 272.54318,497.03922 C 272.16948,497.12125 271.77072,497.16226 271.34689,497.16226 C 270.1939,497.16226 269.27788,496.79996 268.59885,496.07535 C 267.91981,495.35074 267.58029,494.3732 267.58029,493.14273 C 267.58029,491.89404 267.92209,490.91194 268.60568,490.19644 C 269.29383,489.48095 270.23491,489.12321 271.42892,489.1232 C 271.81629,489.12321 272.19454,489.16422 272.56369,489.24625 C 272.93282,489.32373 273.29057,489.44222 273.63693,489.60172 M 279.3176,493.11539 C 278.30132,493.11539 277.59722,493.2316 277.20529,493.46402 C 276.81336,493.69644 276.6174,494.09293 276.6174,494.65347 C 276.6174,495.10009 276.76323,495.45556 277.0549,495.71988 C 277.35112,495.97965 277.75216,496.10953 278.25803,496.10953 C 278.95529,496.10953 279.51355,495.86343 279.93283,495.37125 C 280.35665,494.8745 280.56857,494.21598 280.56857,493.39566 L 280.56857,493.11539 L 279.3176,493.11539 M 281.82639,492.59586 L 281.82639,496.96402 L 280.56857,496.96402 L 280.56857,495.80191 C 280.28146,496.26675 279.92371,496.61083 279.49533,496.83414 C 279.06694,497.05289 278.54285,497.16226 277.92307,497.16226 C 277.13921,497.16226 276.51486,496.94351 276.05002,496.50601 C 275.58973,496.06396 275.35959,495.47379 275.35959,494.7355 C 275.35959,493.87418 275.6467,493.22477 276.22092,492.78726 C 276.79969,492.34977 277.66102,492.13102 278.8049,492.13101 L 280.56857,492.13101 L 280.56857,492.00797 C 280.56857,491.42919 280.37716,490.98258 279.99435,490.66812 C 279.61609,490.34912 279.08289,490.18961 278.39474,490.18961 C 277.95724,490.18961 277.53114,490.24202 277.11642,490.34683 C 276.70171,490.45166 276.30295,490.60888 275.92014,490.81851 L 275.92014,489.6564 C 276.38042,489.47868 276.82703,489.34651 277.25998,489.25992 C 277.69292,489.16878 278.11447,489.12321 278.52463,489.1232 C 279.63204,489.12321 280.45919,489.41032 281.00607,489.98453 C 281.55294,490.55875 281.82638,491.42919 281.82639,492.59586 M 284.45139,486.3273 L 285.7092,486.3273 L 285.7092,496.96402 L 284.45139,496.96402 L 284.45139,486.3273 M 294.00803,495.81558 L 294.00803,499.87613 L 292.74338,499.87613 L 292.74338,489.30777 L 294.00803,489.30777 L 294.00803,490.46988 C 294.27235,490.01416 294.60503,489.67692 295.00607,489.45816 C 295.41167,489.23486 295.89474,489.12321 296.45529,489.1232 C 297.38497,489.12321 298.1392,489.49235 298.71799,490.23062 C 299.30131,490.96891 299.59298,491.93961 299.59299,493.14273 C 299.59298,494.34586 299.30131,495.31656 298.71799,496.05484 C 298.1392,496.79312 297.38497,497.16226 296.45529,497.16226 C 295.89474,497.16226 295.41167,497.05289 295.00607,496.83414 C 294.60503,496.61083 294.27235,496.27131 294.00803,495.81558 M 298.28732,493.14273 C 298.28732,492.21761 298.09591,491.493 297.7131,490.9689 C 297.33484,490.44026 296.81303,490.17594 296.14767,490.17593 C 295.48231,490.17594 294.95822,490.44026 294.57541,490.9689 C 294.19715,491.493 294.00802,492.21761 294.00803,493.14273 C 294.00802,494.06786 294.19715,494.79475 294.57541,495.32339 C 294.95822,495.84748 295.48231,496.10953 296.14767,496.10953 C 296.81303,496.10953 297.33484,495.84748 297.7131,495.32339 C 298.09591,494.79475 298.28732,494.06786 298.28732,493.14273 M 301.67795,489.30777 L 302.93576,489.30777 L 302.93576,496.96402 L 301.67795,496.96402 L 301.67795,489.30777 M 301.67795,486.3273 L 302.93576,486.3273 L 302.93576,487.92007 L 301.67795,487.92007 L 301.67795,486.3273 M 306.77756,495.81558 L 306.77756,499.87613 L 305.51291,499.87613 L 305.51291,489.30777 L 306.77756,489.30777 L 306.77756,490.46988 C 307.04188,490.01416 307.37456,489.67692 307.7756,489.45816 C 308.1812,489.23486 308.66427,489.12321 309.22482,489.1232 C 310.1545,489.12321 310.90874,489.49235 311.48752,490.23062 C 312.07084,490.96891 312.36251,491.93961 312.36252,493.14273 C 312.36251,494.34586 312.07084,495.31656 311.48752,496.05484 C 310.90874,496.79312 310.1545,497.16226 309.22482,497.16226 C 308.66427,497.16226 308.1812,497.05289 307.7756,496.83414 C 307.37456,496.61083 307.04188,496.27131 306.77756,495.81558 M 311.05685,493.14273 C 311.05685,492.21761 310.86544,491.493 310.48264,490.9689 C 310.10437,490.44026 309.58257,490.17594 308.91721,490.17593 C 308.25184,490.17594 307.72775,490.44026 307.34494,490.9689 C 306.96668,491.493 306.77755,492.21761 306.77756,493.14273 C 306.77755,494.06786 306.96668,494.79475 307.34494,495.32339 C 307.72775,495.84748 308.25184,496.10953 308.91721,496.10953 C 309.58257,496.10953 310.10437,495.84748 310.48264,495.32339 C 310.86544,494.79475 311.05685,494.06786 311.05685,493.14273 M 320.99631,492.82144 L 320.99631,493.43668 L 315.2131,493.43668 C 315.26779,494.30256 315.52755,494.96337 315.9924,495.4191 C 316.4618,495.87027 317.11349,496.09586 317.94748,496.09586 C 318.43055,496.09586 318.89767,496.03661 319.34885,495.91812 C 319.80457,495.79963 320.25574,495.6219 320.70236,495.38492 L 320.70236,496.57437 C 320.25118,496.76578 319.78862,496.91161 319.31467,497.01187 C 318.8407,497.11213 318.35991,497.16226 317.87228,497.16226 C 316.65093,497.16226 315.6825,496.80679 314.96701,496.09586 C 314.25607,495.38492 313.9006,494.42333 313.9006,493.21109 C 313.9006,491.95784 314.23784,490.96435 314.91232,490.23062 C 315.59136,489.49235 316.50509,489.12321 317.65353,489.1232 C 318.68348,489.12321 319.49695,489.45589 320.09396,490.12125 C 320.69552,490.78206 320.9963,491.68212 320.99631,492.82144 M 319.73849,492.4523 C 319.72937,491.76416 319.53569,491.215 319.15744,490.80484 C 318.78374,490.39469 318.28699,490.18961 317.66721,490.18961 C 316.96538,490.18961 316.40255,490.38785 315.97873,490.78433 C 315.55946,491.18082 315.31792,491.73909 315.25412,492.45914 L 319.73849,492.4523 M 327.91428,489.53336 L 327.91428,490.72281 C 327.5588,490.54052 327.18966,490.4038 326.80685,490.31265 C 326.42404,490.22151 326.02755,490.17594 325.6174,490.17593 C 324.99305,490.17594 324.52365,490.27164 324.2092,490.46304 C 323.8993,490.65446 323.74435,490.94156 323.74435,491.32437 C 323.74435,491.61604 323.85601,491.84619 324.07932,492.0148 C 324.30262,492.17887 324.75151,492.33609 325.42599,492.48648 L 325.85666,492.58218 C 326.74988,492.77359 327.38335,493.04475 327.75705,493.39566 C 328.1353,493.74202 328.32443,494.22737 328.32443,494.85172 C 328.32443,495.56265 328.04187,496.12548 327.47678,496.54019 C 326.91622,496.95491 326.14376,497.16226 325.15939,497.16226 C 324.74923,497.16226 324.32085,497.12125 323.87424,497.03922 C 323.43218,496.96174 322.96506,496.84325 322.47287,496.68375 L 322.47287,495.38492 C 322.93771,495.62646 323.39572,495.80875 323.84689,495.93179 C 324.29806,496.05028 324.74468,496.10953 325.18674,496.10953 C 325.77918,496.10953 326.23491,496.00927 326.55392,495.80875 C 326.87293,495.60367 327.03243,495.31656 327.03244,494.94742 C 327.03243,494.60562 326.91622,494.34358 326.68381,494.16129 C 326.45594,493.979 325.95236,493.80354 325.17307,493.63492 L 324.73557,493.53238 C 323.95627,493.36832 323.39344,493.11767 323.04709,492.78043 C 322.70073,492.43863 322.52756,491.97151 322.52756,491.37906 C 322.52756,490.65901 322.78276,490.10302 323.29318,489.71109 C 323.8036,489.31917 324.52821,489.12321 325.46701,489.1232 C 325.93185,489.12321 326.36935,489.15739 326.77951,489.22574 C 327.18966,489.29411 327.56792,489.39664 327.91428,489.53336"
       id="text5833" />
    <path
       style="font-size:14px;font-style:normal;font-weight:normal;text-align:start;text-anchor:start;fill:black;fill-opacity:1;stroke:none;stroke-width:1px;stroke-linecap:butt;stroke-linejoin:miter;stroke-opacity:1;font-family:DejaVu Sans"
       d="M 290.59903,574.10699 L 290.59903,574.72223 L 284.81583,574.72223 C 284.87051,575.58812 285.13028,576.24892 285.59512,576.70465 C 286.06452,577.15582 286.71621,577.38141 287.5502,577.38141 C 288.03327,577.38141 288.50039,577.32216 288.95157,577.20367 C 289.40729,577.08519 289.85846,576.90745 290.30508,576.67047 L 290.30508,577.85992 C 289.85391,578.05133 289.39134,578.19716 288.91739,578.29742 C 288.44342,578.39768 287.96263,578.44781 287.47501,578.44781 C 286.25365,578.44781 285.28522,578.09235 284.56973,577.38141 C 283.85879,576.67047 283.50333,575.70889 283.50333,574.49664 C 283.50333,573.24339 283.84056,572.2499 284.51505,571.51617 C 285.19408,570.7779 286.10782,570.40876 287.25626,570.40875 C 288.2862,570.40876 289.09967,570.74144 289.69669,571.4068 C 290.29824,572.06761 290.59902,572.96768 290.59903,574.10699 M 289.34122,573.73785 C 289.3321,573.04971 289.13841,572.50056 288.76016,572.09039 C 288.38646,571.68024 287.88971,571.47517 287.26993,571.47516 C 286.5681,571.47517 286.00528,571.67341 285.58145,572.06989 C 285.16218,572.46638 284.92064,573.02464 284.85684,573.74469 L 289.34122,573.73785 M 299.0004,573.62848 L 299.0004,578.24957 L 297.74258,578.24957 L 297.74258,573.66949 C 297.74258,572.94489 297.6013,572.40257 297.31876,572.04254 C 297.0362,571.68252 296.61237,571.50251 296.04727,571.5025 C 295.36823,571.50251 294.83275,571.71898 294.44083,572.15192 C 294.0489,572.58486 293.85293,573.17503 293.85294,573.92242 L 293.85294,578.24957 L 292.58829,578.24957 L 292.58829,570.59332 L 293.85294,570.59332 L 293.85294,571.78278 C 294.15371,571.3225 294.5069,570.97842 294.91251,570.75055 C 295.32266,570.52269 295.79434,570.40876 296.32755,570.40875 C 297.2071,570.40876 297.87246,570.6822 298.32364,571.22906 C 298.7748,571.77139 299.00039,572.57119 299.0004,573.62848 M 306.56094,571.75543 L 306.56094,567.61285 L 307.81876,567.61285 L 307.81876,578.24957 L 306.56094,578.24957 L 306.56094,577.10114 C 306.29661,577.55687 305.96165,577.89638 305.55606,578.11969 C 305.15501,578.33844 304.67194,578.44781 304.10684,578.44781 C 303.18171,578.44781 302.42748,578.07867 301.84415,577.34039 C 301.26537,576.60211 300.97598,575.63141 300.97598,574.42828 C 300.97598,573.22516 301.26537,572.25446 301.84415,571.51617 C 302.42748,570.7779 303.18171,570.40876 304.10684,570.40875 C 304.67194,570.40876 305.15501,570.52041 305.55606,570.74371 C 305.96165,570.96247 306.29661,571.29971 306.56094,571.75543 M 302.27481,574.42828 C 302.27481,575.35342 302.46394,576.0803 302.84219,576.60895 C 303.225,577.13304 303.74909,577.39508 304.41446,577.39508 C 305.07982,577.39508 305.60391,577.13304 305.98672,576.60895 C 306.36953,576.0803 306.56094,575.35342 306.56094,574.42828 C 306.56094,573.50316 306.36953,572.77855 305.98672,572.25446 C 305.60391,571.72582 305.07982,571.46149 304.41446,571.46149 C 303.74909,571.46149 303.225,571.72582 302.84219,572.25446 C 302.46394,572.77855 302.27481,573.50316 302.27481,574.42828 M 311.62637,577.10114 L 311.62637,581.16168 L 310.36172,581.16168 L 310.36172,570.59332 L 311.62637,570.59332 L 311.62637,571.75543 C 311.89069,571.29971 312.22338,570.96247 312.62442,570.74371 C 313.03002,570.52041 313.51309,570.40876 314.07364,570.40875 C 315.00332,570.40876 315.75755,570.7779 316.33633,571.51617 C 316.91966,572.25446 317.21133,573.22516 317.21133,574.42828 C 317.21133,575.63141 316.91966,576.60211 316.33633,577.34039 C 315.75755,578.07867 315.00332,578.44781 314.07364,578.44781 C 313.51309,578.44781 313.03002,578.33844 312.62442,578.11969 C 312.22338,577.89638 311.89069,577.55687 311.62637,577.10114 M 315.90567,574.42828 C 315.90566,573.50316 315.71426,572.77855 315.33145,572.25446 C 314.95319,571.72582 314.43138,571.46149 313.76602,571.46149 C 313.10065,571.46149 312.57657,571.72582 312.19376,572.25446 C 311.8155,572.77855 311.62637,573.50316 311.62637,574.42828 C 311.62637,575.35342 311.8155,576.0803 312.19376,576.60895 C 312.57657,577.13304 313.10065,577.39508 313.76602,577.39508 C 314.43138,577.39508 314.95319,577.13304 315.33145,576.60895 C 315.71426,576.0803 315.90566,575.35342 315.90567,574.42828 M 322.26309,571.47516 C 321.58861,571.47517 321.05541,571.73949 320.66348,572.26813 C 320.27155,572.79222 320.07559,573.51227 320.07559,574.42828 C 320.07559,575.3443 320.26927,576.06663 320.65665,576.59528 C 321.04857,577.11937 321.58405,577.38141 322.26309,577.38141 C 322.93301,577.38141 323.46393,577.11709 323.85587,576.58844 C 324.24779,576.0598 324.44375,575.33974 324.44376,574.42828 C 324.44375,573.52139 324.24779,572.80361 323.85587,572.27496 C 323.46393,571.74177 322.93301,571.47517 322.26309,571.47516 M 322.26309,570.40875 C 323.35684,570.40876 324.21589,570.76423 324.84024,571.47516 C 325.46458,572.1861 325.77676,573.17048 325.77676,574.42828 C 325.77676,575.68154 325.46458,576.66592 324.84024,577.38141 C 324.21589,578.09235 323.35684,578.44781 322.26309,578.44781 C 321.16478,578.44781 320.30345,578.09235 319.67911,577.38141 C 319.05931,576.66592 318.74942,575.68154 318.74942,574.42828 C 318.74942,573.17048 319.05931,572.1861 319.67911,571.47516 C 320.30345,570.76423 321.16478,570.40876 322.26309,570.40875 M 327.85489,570.59332 L 329.1127,570.59332 L 329.1127,578.24957 L 327.85489,578.24957 L 327.85489,570.59332 M 327.85489,567.61285 L 329.1127,567.61285 L 329.1127,569.20563 L 327.85489,569.20563 L 327.85489,567.61285 M 338.10196,573.62848 L 338.10196,578.24957 L 336.84415,578.24957 L 336.84415,573.66949 C 336.84414,572.94489 336.70286,572.40257 336.42032,572.04254 C 336.13776,571.68252 335.71393,571.50251 335.14883,571.5025 C 334.46979,571.50251 333.93431,571.71898 333.54239,572.15192 C 333.15046,572.58486 332.9545,573.17503 332.9545,573.92242 L 332.9545,578.24957 L 331.68985,578.24957 L 331.68985,570.59332 L 332.9545,570.59332 L 332.9545,571.78278 C 333.25528,571.3225 333.60847,570.97842 334.01407,570.75055 C 334.42422,570.52269 334.8959,570.40876 335.42911,570.40875 C 336.30866,570.40876 336.97402,570.6822 337.4252,571.22906 C 337.87637,571.77139 338.10195,572.57119 338.10196,573.62848 M 341.86856,568.41949 L 341.86856,570.59332 L 344.45938,570.59332 L 344.45938,571.57086 L 341.86856,571.57086 L 341.86856,575.72711 C 341.86856,576.35146 341.95287,576.7525 342.12149,576.93024 C 342.29466,577.10797 342.6433,577.19684 343.16739,577.19684 L 344.45938,577.19684 L 344.45938,578.24957 L 343.16739,578.24957 C 342.19668,578.24957 341.52676,578.06956 341.15762,577.70953 C 340.78848,577.34495 340.60391,576.68414 340.60391,575.72711 L 340.60391,571.57086 L 339.68106,571.57086 L 339.68106,570.59332 L 340.60391,570.59332 L 340.60391,568.41949 L 341.86856,568.41949 M 351.00137,570.81891 L 351.00137,572.00836 C 350.6459,571.82608 350.27676,571.68936 349.89395,571.59821 C 349.51113,571.50707 349.11465,571.46149 348.7045,571.46149 C 348.08015,571.46149 347.61075,571.5572 347.2963,571.7486 C 346.9864,571.94001 346.83145,572.22712 346.83145,572.60992 C 346.83145,572.9016 346.9431,573.13174 347.16641,573.30035 C 347.38972,573.46442 347.83861,573.62165 348.51309,573.77203 L 348.94376,573.86774 C 349.83698,574.05915 350.47044,574.33031 350.84415,574.68121 C 351.2224,575.02757 351.41152,575.51292 351.41153,576.13727 C 351.41152,576.84821 351.12897,577.41103 350.56387,577.82574 C 350.00332,578.24046 349.23086,578.44781 348.24649,578.44781 C 347.83633,578.44781 347.40795,578.4068 346.96133,578.32477 C 346.51928,578.24729 346.05215,578.1288 345.55997,577.9693 L 345.55997,576.67047 C 346.02481,576.91201 346.48282,577.0943 346.93399,577.21735 C 347.38516,577.33584 347.83177,577.39508 348.27383,577.39508 C 348.86628,577.39508 349.32201,577.29482 349.64102,577.0943 C 349.96003,576.88922 350.11953,576.60211 350.11954,576.23297 C 350.11953,575.89118 350.00332,575.62913 349.7709,575.44684 C 349.54304,575.26455 349.03945,575.08909 348.26016,574.92047 L 347.82266,574.81793 C 347.04336,574.65387 346.48054,574.40322 346.13419,574.06598 C 345.78783,573.72419 345.61465,573.25706 345.61465,572.66461 C 345.61465,571.94457 345.86986,571.38858 346.38028,570.99664 C 346.89069,570.60472 347.6153,570.40876 348.55411,570.40875 C 349.01895,570.40876 349.45645,570.44294 349.86661,570.51129 C 350.27676,570.57966 350.65501,570.6822 351.00137,570.81891 M 357.85098,570.59332 L 359.1088,570.59332 L 359.1088,578.24957 L 357.85098,578.24957 L 357.85098,570.59332 M 357.85098,567.61285 L 359.1088,567.61285 L 359.1088,569.20563 L 357.85098,569.20563 L 357.85098,567.61285 M 368.09805,573.62848 L 368.09805,578.24957 L 366.84024,578.24957 L 366.84024,573.66949 C 366.84023,572.94489 366.69896,572.40257 366.41641,572.04254 C 366.13385,571.68252 365.71003,571.50251 365.14493,571.5025 C 364.46589,571.50251 363.93041,571.71898 363.53848,572.15192 C 363.14655,572.58486 362.95059,573.17503 362.95059,573.92242 L 362.95059,578.24957 L 361.68594,578.24957 L 361.68594,570.59332 L 362.95059,570.59332 L 362.95059,571.78278 C 363.25137,571.3225 363.60456,570.97842 364.01016,570.75055 C 364.42031,570.52269 364.89199,570.40876 365.4252,570.40875 C 366.30475,570.40876 366.97012,570.6822 367.4213,571.22906 C 367.87246,571.77139 368.09805,572.57119 368.09805,573.62848 M 285.29434,585.91949 L 285.29434,588.09332 L 287.88516,588.09332 L 287.88516,589.07086 L 285.29434,589.07086 L 285.29434,593.22711 C 285.29434,593.85146 285.37865,594.2525 285.54727,594.43024 C 285.72045,594.60797 286.06908,594.69684 286.59317,594.69684 L 287.88516,594.69684 L 287.88516,595.74957 L 286.59317,595.74957 C 285.62246,595.74957 284.95254,595.56956 284.5834,595.20953 C 284.21426,594.84495 284.02969,594.18414 284.02969,593.22711 L 284.02969,589.07086 L 283.10684,589.07086 L 283.10684,588.09332 L 284.02969,588.09332 L 284.02969,585.91949 L 285.29434,585.91949 M 295.91055,591.12848 L 295.91055,595.74957 L 294.65274,595.74957 L 294.65274,591.16949 C 294.65273,590.44489 294.51146,589.90257 294.22891,589.54254 C 293.94635,589.18252 293.52253,589.00251 292.95743,589.0025 C 292.27839,589.00251 291.74291,589.21898 291.35098,589.65192 C 290.95905,590.08486 290.76309,590.67503 290.76309,591.42242 L 290.76309,595.74957 L 289.49844,595.74957 L 289.49844,585.11285 L 290.76309,585.11285 L 290.76309,589.28278 C 291.06387,588.8225 291.41706,588.47842 291.82266,588.25055 C 292.23281,588.02269 292.70449,587.90876 293.2377,587.90875 C 294.11725,587.90876 294.78262,588.1822 295.2338,588.72906 C 295.68496,589.27139 295.91055,590.07119 295.91055,591.12848 M 304.98184,591.60699 L 304.98184,592.22223 L 299.19864,592.22223 C 299.25332,593.08812 299.51309,593.74892 299.97794,594.20465 C 300.44733,594.65582 301.09903,594.88141 301.93301,594.88141 C 302.41608,594.88141 302.8832,594.82216 303.33438,594.70367 C 303.7901,594.58519 304.24128,594.40745 304.6879,594.17047 L 304.6879,595.35992 C 304.23672,595.55133 303.77415,595.69716 303.3002,595.79742 C 302.82624,595.89768 302.34544,595.94781 301.85782,595.94781 C 300.63646,595.94781 299.66804,595.59235 298.95255,594.88141 C 298.24161,594.17047 297.88614,593.20889 297.88614,591.99664 C 297.88614,590.74339 298.22338,589.7499 298.89786,589.01617 C 299.57689,588.2779 300.49063,587.90876 301.63907,587.90875 C 302.66901,587.90876 303.48249,588.24144 304.0795,588.9068 C 304.68105,589.56761 304.98183,590.46768 304.98184,591.60699 M 303.72403,591.23785 C 303.71491,590.54971 303.52122,590.00056 303.14297,589.59039 C 302.76927,589.18024 302.27253,588.97517 301.65274,588.97516 C 300.95091,588.97517 300.38809,589.17341 299.96426,589.56989 C 299.54499,589.96638 299.30345,590.52464 299.23965,591.24469 L 303.72403,591.23785 M 316.51407,589.25543 L 316.51407,585.11285 L 317.77188,585.11285 L 317.77188,595.74957 L 316.51407,595.74957 L 316.51407,594.60114 C 316.24974,595.05687 315.91478,595.39638 315.50919,595.61969 C 315.10814,595.83844 314.62507,595.94781 314.05997,595.94781 C 313.13483,595.94781 312.3806,595.57867 311.79727,594.84039 C 311.21849,594.10211 310.92911,593.13141 310.92911,591.92828 C 310.92911,590.72516 311.21849,589.75446 311.79727,589.01617 C 312.3806,588.2779 313.13483,587.90876 314.05997,587.90875 C 314.62507,587.90876 315.10814,588.02041 315.50919,588.24371 C 315.91478,588.46247 316.24974,588.79971 316.51407,589.25543 M 312.22794,591.92828 C 312.22793,592.85342 312.41706,593.5803 312.79532,594.10895 C 313.17813,594.63304 313.70222,594.89508 314.36758,594.89508 C 315.03294,594.89508 315.55703,594.63304 315.93985,594.10895 C 316.32266,593.5803 316.51406,592.85342 316.51407,591.92828 C 316.51406,591.00316 316.32266,590.27855 315.93985,589.75446 C 315.55703,589.22582 315.03294,588.96149 314.36758,588.96149 C 313.70222,588.96149 313.17813,589.22582 312.79532,589.75446 C 312.41706,590.27855 312.22793,591.00316 312.22794,591.92828 M 326.91153,591.60699 L 326.91153,592.22223 L 321.12833,592.22223 C 321.18301,593.08812 321.44278,593.74892 321.90762,594.20465 C 322.37702,594.65582 323.02871,594.88141 323.8627,594.88141 C 324.34577,594.88141 324.81289,594.82216 325.26407,594.70367 C 325.71979,594.58519 326.17096,594.40745 326.61758,594.17047 L 326.61758,595.35992 C 326.16641,595.55133 325.70384,595.69716 325.22989,595.79742 C 324.75592,595.89768 324.27513,595.94781 323.78751,595.94781 C 322.56615,595.94781 321.59772,595.59235 320.88223,594.88141 C 320.17129,594.17047 319.81583,593.20889 319.81583,591.99664 C 319.81583,590.74339 320.15306,589.7499 320.82755,589.01617 C 321.50658,588.2779 322.42032,587.90876 323.56876,587.90875 C 324.5987,587.90876 325.41217,588.24144 326.00919,588.9068 C 326.61074,589.56761 326.91152,590.46768 326.91153,591.60699 M 325.65372,591.23785 C 325.6446,590.54971 325.45091,590.00056 325.07266,589.59039 C 324.69896,589.18024 324.20221,588.97517 323.58243,588.97516 C 322.8806,588.97517 322.31778,589.17341 321.89395,589.56989 C 321.47468,589.96638 321.23314,590.52464 321.16934,591.24469 L 325.65372,591.23785 M 328.0463,588.09332 L 329.3793,588.09332 L 331.77188,594.5191 L 334.16446,588.09332 L 335.49747,588.09332 L 332.62637,595.74957 L 330.91739,595.74957 L 328.0463,588.09332 M 337.20645,588.09332 L 338.46426,588.09332 L 338.46426,595.74957 L 337.20645,595.74957 L 337.20645,588.09332 M 337.20645,585.11285 L 338.46426,585.11285 L 338.46426,586.70563 L 337.20645,586.70563 L 337.20645,585.11285 M 346.59903,588.38727 L 346.59903,589.56305 C 346.24355,589.36709 345.88581,589.22126 345.52579,589.12555 C 345.17031,589.0253 344.81029,588.97517 344.44571,588.97516 C 343.62995,588.97517 342.99649,589.23493 342.54532,589.75446 C 342.09414,590.26944 341.86856,590.99404 341.86856,591.92828 C 341.86856,592.86253 342.09414,593.58942 342.54532,594.10895 C 342.99649,594.62392 343.62995,594.88141 344.44571,594.88141 C 344.81029,594.88141 345.17031,594.83356 345.52579,594.73785 C 345.88581,594.63759 346.24355,594.48948 346.59903,594.29352 L 346.59903,595.45563 C 346.24811,595.61969 345.88353,595.74274 345.50528,595.82477 C 345.13158,595.9068 344.73281,595.94781 344.30899,595.94781 C 343.15599,595.94781 342.23998,595.58551 341.56094,594.8609 C 340.88191,594.13629 340.54239,593.15876 340.54239,591.92828 C 340.54239,590.67959 340.88418,589.6975 341.56778,588.98199 C 342.25593,588.26651 343.19701,587.90876 344.39102,587.90875 C 344.77839,587.90876 345.15664,587.94978 345.52579,588.0318 C 345.89492,588.10928 346.25267,588.22777 346.59903,588.38727 M 355.34903,591.60699 L 355.34903,592.22223 L 349.56583,592.22223 C 349.62051,593.08812 349.88028,593.74892 350.34512,594.20465 C 350.81452,594.65582 351.46621,594.88141 352.3002,594.88141 C 352.78327,594.88141 353.25039,594.82216 353.70157,594.70367 C 354.15729,594.58519 354.60846,594.40745 355.05508,594.17047 L 355.05508,595.35992 C 354.60391,595.55133 354.14134,595.69716 353.66739,595.79742 C 353.19342,595.89768 352.71263,595.94781 352.22501,595.94781 C 351.00365,595.94781 350.03522,595.59235 349.31973,594.88141 C 348.60879,594.17047 348.25333,593.20889 348.25333,591.99664 C 348.25333,590.74339 348.59056,589.7499 349.26505,589.01617 C 349.94408,588.2779 350.85782,587.90876 352.00626,587.90875 C 353.0362,587.90876 353.84967,588.24144 354.44669,588.9068 C 355.04824,589.56761 355.34902,590.46768 355.34903,591.60699 M 354.09122,591.23785 C 354.0821,590.54971 353.88841,590.00056 353.51016,589.59039 C 353.13646,589.18024 352.63971,588.97517 352.01993,588.97516 C 351.3181,588.97517 350.75528,589.17341 350.33145,589.56989 C 349.91218,589.96638 349.67064,590.52464 349.60684,591.24469 L 354.09122,591.23785"
       id="text5837" />
    <path
       style="fill:#ce5c00;fill-opacity:1;stroke:#d3d7cf;stroke-width:0.625;stroke-linecap:butt;stroke-linejoin:miter;stroke-miterlimit:4;stroke-dasharray:none;stroke-dashoffset:0;stroke-opacity:1"
       d="M 230.91908,554.78865 L 220.64814,554.59142 L 220.51766,554.5407 L 220.50069,554.58404 L 217.86467,554.53316 L 219.83902,556.27413 L 219.86076,556.28258 L 227.65311,563.13073 C 227.32236,561.84336 227.33527,560.53324 227.64619,559.30844 L 281.49176,580.23591 L 282.1704,578.50249 L 228.32483,557.57502 C 228.92532,556.45845 229.79719,555.49645 230.91908,554.78865 z "
       id="path6751" />
  </g>
</svg>
